<ttFont>
<head>
    <!-- Most of this table will be recalculated by the compiler -->
    <tableVersion value="1.0"/>
    <fontRevision value="1.0"/>
    <checkSumAdjustment value="0x45211722"/>
    <magicNumber value="0x5f0f3cf5"/>
    <flags value="00000000 00011111"/>
    <unitsPerEm value="1000"/>
    <created value="Mon Jun 29 22:52:19 2015"/>
    <modified value="Mon Jun 29 22:52:19 2015"/>
    <xMin value="-2347"/>
    <yMin value="-463"/>
    <xMax value="2346"/>
    <yMax value="1003"/>
    <macStyle value="00000000 00000000"/>
    <lowestRecPPEM value="8"/>
    <fontDirectionHint value="2"/>
    <indexToLocFormat value="0"/>
    <glyphDataFormat value="0"/>
  </head>
    <TTGlyph name=".notdef" xMin="50" yMin="0" xMax="200" yMax="533">
      <contour>
        <pt x="50" y="0" on="1"/>
        <pt x="50" y="533" on="1"/>
        <pt x="200" y="533" on="1"/>
        <pt x="200" y="0" on="1"/>
      </contour>
      <contour>
        <pt x="100" y="50" on="1"/>
        <pt x="150" y="50" on="1"/>
        <pt x="150" y="483" on="1"/>
        <pt x="100" y="483" on="1"/>
      </contour>
    </TTGlyph>
    <TTGlyph name="A" xMin="17" yMin="-1" xMax="703" yMax="701">
      <contour>
        <pt x="397" y="35" on="1"/>
        <pt x="412" y="35" on="0"/>
        <pt x="456" y="54" on="0"/>
        <pt x="456" y="65" on="1"/>
        <pt x="456" y="93" on="0"/>
        <pt x="428" y="170" on="1"/>
        <pt x="419" y="197" on="1"/>
        <pt x="197" y="197" on="1"/>
        <pt x="195" y="179" on="1"/>
        <pt x="184" y="134" on="0"/>
        <pt x="184" y="97" on="1"/>
        <pt x="184" y="55" on="0"/>
        <pt x="201" y="41" on="1"/>
        <pt x="206" y="38" on="0"/>
        <pt x="227" y="33" on="0"/>
        <pt x="241" y="25" on="0"/>
        <pt x="241" y="17" on="1"/>
        <pt x="241" y="10" on="0"/>
        <pt x="235" y="3" on="1"/>
        <pt x="230" y="-1" on="0"/>
        <pt x="130" y="-1" on="1"/>
        <pt x="28" y="-1" on="0"/>
        <pt x="24" y="3" on="1"/>
        <pt x="17" y="9" on="0"/>
        <pt x="17" y="17" on="1"/>
        <pt x="17" y="24" on="0"/>
        <pt x="28" y="35" on="0"/>
        <pt x="35" y="35" on="1"/>
        <pt x="49" y="35" on="0"/>
        <pt x="80" y="53" on="0"/>
        <pt x="88" y="66" on="1"/>
        <pt x="101" y="93" on="0"/>
        <pt x="210" y="383" on="1"/>
        <pt x="331" y="693" on="0"/>
        <pt x="339" y="701" on="0"/>
        <pt x="353" y="701" on="0"/>
        <pt x="357" y="697" on="1"/>
        <pt x="358" y="696" on="0"/>
        <pt x="493" y="399" on="1"/>
        <pt x="621" y="104" on="0"/>
        <pt x="633" y="83" on="1"/>
        <pt x="656" y="35" on="0"/>
        <pt x="686" y="35" on="1"/>
        <pt x="693" y="35" on="0"/>
        <pt x="703" y="24" on="0"/>
        <pt x="703" y="17" on="1"/>
        <pt x="703" y="9" on="0"/>
        <pt x="697" y="3" on="1"/>
        <pt x="693" y="-1" on="0"/>
        <pt x="541" y="-1" on="1"/>
        <pt x="388" y="-1" on="0"/>
        <pt x="386" y="1" on="1"/>
        <pt x="378" y="6" on="0"/>
        <pt x="378" y="16" on="1"/>
        <pt x="378" y="24" on="0"/>
        <pt x="389" y="35" on="0"/>
      </contour>
      <contour>
        <pt x="493" y="68" on="1"/>
        <pt x="493" y="49" on="0"/>
        <pt x="481" y="35" on="1"/>
        <pt x="619" y="35" on="1"/>
        <pt x="613" y="43" on="1"/>
        <pt x="602" y="59" on="0"/>
        <pt x="469" y="356" on="0"/>
        <pt x="348" y="636" on="0"/>
        <pt x="348" y="637" on="1"/>
        <pt x="347" y="637" on="0"/>
        <pt x="313" y="546" on="0"/>
        <pt x="313" y="543" on="1"/>
        <pt x="313" y="536" on="0"/>
        <pt x="328" y="503" on="1"/>
        <pt x="473" y="176" on="0"/>
        <pt x="490" y="92" on="1"/>
        <pt x="493" y="80" on="0"/>
      </contour>
      <contour>
        <pt x="404" y="235" on="1"/>
        <pt x="403" y="236" on="0"/>
        <pt x="358" y="346" on="0"/>
        <pt x="304" y="471" on="0"/>
        <pt x="295" y="488" on="1"/>
        <pt x="275" y="430" on="1"/>
        <pt x="233" y="322" on="0"/>
        <pt x="208" y="232" on="1"/>
        <pt x="306" y="232" on="1"/>
        <pt x="404" y="232" on="0"/>
      </contour>
      <contour>
        <pt x="155" y="48" on="1"/>
        <pt x="151" y="55" on="0"/>
        <pt x="148" y="88" on="1"/>
        <pt x="148" y="117" on="1"/>
        <pt x="135" y="86" on="1"/>
        <pt x="118" y="47" on="0"/>
        <pt x="117" y="46" on="1"/>
        <pt x="110" y="37" on="1"/>
        <pt x="135" y="35" on="1"/>
        <pt x="159" y="35" on="1"/>
        <pt x="157" y="41" on="0"/>
      </contour>
    </TTGlyph>
    <TTGlyph name="B" xMin="11" yMin="-1" xMax="620" yMax="683">
      <contour>
        <pt x="11" y="665" on="1"/>
        <pt x="11" y="672" on="0"/>
        <pt x="22" y="683" on="1"/>
        <pt x="213" y="683" on="1"/>
        <pt x="407" y="681" on="0"/>
        <pt x="431" y="677" on="1"/>
        <pt x="541" y="657" on="0"/>
        <pt x="571" y="577" on="1"/>
        <pt x="582" y="546" on="0"/>
        <pt x="582" y="515" on="1"/>
        <pt x="582" y="488" on="0"/>
        <pt x="573" y="468" on="1"/>
        <pt x="554" y="413" on="0"/>
        <pt x="484" y="372" on="1"/>
        <pt x="474" y="366" on="1"/>
        <pt x="475" y="366" on="1"/>
        <pt x="590" y="327" on="0"/>
        <pt x="613" y="232" on="1"/>
        <pt x="620" y="214" on="0"/>
        <pt x="620" y="178" on="1"/>
        <pt x="620" y="166" on="0"/>
        <pt x="618" y="152" on="1"/>
        <pt x="590" y="36" on="0"/>
        <pt x="420" y="6" on="1"/>
        <pt x="393" y="1" on="0"/>
        <pt x="207" y="-1" on="1"/>
        <pt x="22" y="-1" on="1"/>
        <pt x="11" y="10" on="0"/>
        <pt x="11" y="18" on="1"/>
        <pt x="11" y="24" on="0"/>
        <pt x="15" y="28" on="1"/>
        <pt x="24" y="35" on="0"/>
        <pt x="51" y="35" on="1"/>
        <pt x="79" y="37" on="0"/>
        <pt x="97" y="42" on="0"/>
        <pt x="102" y="52" on="1"/>
        <pt x="107" y="70" on="0"/>
        <pt x="107" y="612" on="0"/>
        <pt x="102" y="630" on="1"/>
        <pt x="97" y="640" on="0"/>
        <pt x="78" y="647" on="0"/>
        <pt x="51" y="648" on="1"/>
        <pt x="22" y="648" on="0"/>
        <pt x="15" y="655" on="1"/>
        <pt x="11" y="659" on="0"/>
      </contour>
      <contour>
        <pt x="233" y="635" on="1"/>
        <pt x="240" y="648" on="1"/>
        <pt x="133" y="648" on="1"/>
        <pt x="138" y="639" on="1"/>
        <pt x="142" y="621" on="0"/>
        <pt x="142" y="61" on="0"/>
        <pt x="138" y="43" on="1"/>
        <pt x="133" y="35" on="1"/>
        <pt x="240" y="35" on="1"/>
        <pt x="233" y="48" on="1"/>
        <pt x="229" y="61" on="1"/>
        <pt x="229" y="623" on="1"/>
      </contour>
      <contour>
        <pt x="284" y="370" on="1"/>
        <pt x="357" y="377" on="0"/>
        <pt x="417" y="437" on="0"/>
        <pt x="417" y="508" on="1"/>
        <pt x="417" y="611" on="0"/>
        <pt x="355" y="639" on="1"/>
        <pt x="338" y="648" on="0"/>
        <pt x="320" y="648" on="1"/>
        <pt x="298" y="648" on="0"/>
        <pt x="278" y="635" on="1"/>
        <pt x="267" y="628" on="0"/>
        <pt x="264" y="594" on="0"/>
        <pt x="264" y="492" on="1"/>
        <pt x="264" y="370" on="1"/>
      </contour>
      <contour>
        <pt x="449" y="637" on="1"/>
        <pt x="431" y="641" on="0"/>
        <pt x="422" y="641" on="1"/>
        <pt x="411" y="643" on="1"/>
        <pt x="420" y="630" on="1"/>
        <pt x="439" y="604" on="0"/>
        <pt x="452" y="554" on="0"/>
        <pt x="452" y="510" on="1"/>
        <pt x="452" y="435" on="0"/>
        <pt x="415" y="383" on="1"/>
        <pt x="424" y="383" on="0"/>
        <pt x="460" y="399" on="1"/>
        <pt x="512" y="428" on="0"/>
        <pt x="533" y="463" on="1"/>
        <pt x="546" y="485" on="0"/>
        <pt x="546" y="515" on="1"/>
        <pt x="546" y="534" on="0"/>
        <pt x="540" y="555" on="1"/>
        <pt x="527" y="615" on="0"/>
      </contour>
      <contour>
        <pt x="585" y="185" on="1"/>
        <pt x="585" y="243" on="0"/>
        <pt x="512" y="318" on="0"/>
        <pt x="455" y="332" on="1"/>
        <pt x="437" y="337" on="0"/>
        <pt x="436" y="337" on="1"/>
        <pt x="435" y="336" on="1"/>
        <pt x="435" y="335" on="0"/>
        <pt x="442" y="328" on="1"/>
        <pt x="456" y="314" on="0"/>
        <pt x="462" y="297" on="1"/>
        <pt x="484" y="250" on="0"/>
        <pt x="484" y="188" on="1"/>
        <pt x="484" y="108" on="0"/>
        <pt x="453" y="63" on="1"/>
        <pt x="446" y="48" on="0"/>
        <pt x="442" y="48" on="1"/>
        <pt x="442" y="47" on="0"/>
        <pt x="444" y="47" on="1"/>
        <pt x="460" y="47" on="0"/>
        <pt x="500" y="66" on="1"/>
        <pt x="585" y="108" on="0"/>
      </contour>
      <contour>
        <pt x="449" y="184" on="1"/>
        <pt x="449" y="316" on="0"/>
        <pt x="358" y="332" on="1"/>
        <pt x="355" y="332" on="0"/>
        <pt x="315" y="335" on="0"/>
        <pt x="302" y="335" on="1"/>
        <pt x="264" y="335" on="1"/>
        <pt x="264" y="199" on="1"/>
        <pt x="266" y="68" on="0"/>
        <pt x="270" y="57" on="1"/>
        <pt x="275" y="50" on="0"/>
        <pt x="289" y="43" on="1"/>
        <pt x="300" y="37" on="0"/>
        <pt x="324" y="37" on="1"/>
        <pt x="449" y="37" on="0"/>
      </contour>
    </TTGlyph>
    <TTGlyph name="C" xMin="39" yMin="-19" xMax="684" yMax="702">
      <contour>
        <pt x="666" y="147" on="1"/>
        <pt x="673" y="147" on="0"/>
        <pt x="684" y="137" on="0"/>
        <pt x="684" y="131" on="1"/>
        <pt x="684" y="122" on="0"/>
        <pt x="670" y="108" on="1"/>
        <pt x="646" y="76" on="0"/>
        <pt x="557" y="17" on="0"/>
        <pt x="515" y="3" on="1"/>
        <pt x="449" y="-19" on="0"/>
        <pt x="323" y="-19" on="0"/>
        <pt x="259" y="3" on="1"/>
        <pt x="172" y="33" on="0"/>
        <pt x="60" y="166" on="0"/>
        <pt x="44" y="261" on="1"/>
        <pt x="39" y="283" on="0"/>
        <pt x="39" y="399" on="0"/>
        <pt x="44" y="421" on="1"/>
        <pt x="66" y="538" on="0"/>
        <pt x="221" y="684" on="0"/>
        <pt x="341" y="699" on="1"/>
        <pt x="344" y="699" on="0"/>
        <pt x="384" y="701" on="0"/>
        <pt x="395" y="701" on="1"/>
        <pt x="451" y="698" on="0"/>
        <pt x="501" y="677" on="1"/>
        <pt x="556" y="655" on="0"/>
        <pt x="585" y="655" on="1"/>
        <pt x="597" y="655" on="0"/>
        <pt x="604" y="659" on="1"/>
        <pt x="619" y="664" on="0"/>
        <pt x="621" y="683" on="1"/>
        <pt x="624" y="702" on="0"/>
        <pt x="639" y="702" on="1"/>
        <pt x="647" y="702" on="0"/>
        <pt x="653" y="697" on="1"/>
        <pt x="657" y="690" on="1"/>
        <pt x="657" y="481" on="1"/>
        <pt x="653" y="474" on="1"/>
        <pt x="640" y="467" on="0"/>
        <pt x="628" y="472" on="1"/>
        <pt x="622" y="478" on="0"/>
        <pt x="619" y="492" on="1"/>
        <pt x="611" y="517" on="0"/>
        <pt x="595" y="541" on="1"/>
        <pt x="545" y="610" on="0"/>
        <pt x="473" y="643" on="1"/>
        <pt x="431" y="663" on="0"/>
        <pt x="390" y="663" on="1"/>
        <pt x="381" y="663" on="1"/>
        <pt x="337" y="663" on="0"/>
        <pt x="299" y="625" on="1"/>
        <pt x="257" y="587" on="0"/>
        <pt x="212" y="435" on="0"/>
        <pt x="212" y="336" on="1"/>
        <pt x="212" y="249" on="0"/>
        <pt x="233" y="179" on="1"/>
        <pt x="274" y="30" on="0"/>
        <pt x="405" y="30" on="1"/>
        <pt x="427" y="30" on="0"/>
        <pt x="466" y="37" on="1"/>
        <pt x="560" y="55" on="0"/>
        <pt x="641" y="130" on="1"/>
        <pt x="658" y="147" on="0"/>
      </contour>
      <contour>
        <pt x="250" y="625" on="1"/>
        <pt x="264" y="643" on="0"/>
        <pt x="261" y="643" on="1"/>
        <pt x="208" y="624" on="0"/>
        <pt x="159" y="577" on="1"/>
        <pt x="74" y="491" on="0"/>
        <pt x="74" y="341" on="1"/>
        <pt x="74" y="298" on="0"/>
        <pt x="79" y="268" on="1"/>
        <pt x="107" y="115" on="0"/>
        <pt x="230" y="54" on="1"/>
        <pt x="266" y="34" on="0"/>
        <pt x="277" y="34" on="1"/>
        <pt x="270" y="41" on="0"/>
        <pt x="264" y="48" on="1"/>
        <pt x="199" y="111" on="0"/>
        <pt x="181" y="254" on="1"/>
        <pt x="178" y="281" on="0"/>
        <pt x="178" y="407" on="0"/>
        <pt x="181" y="434" on="1"/>
        <pt x="200" y="559" on="0"/>
      </contour>
      <contour>
        <pt x="621" y="565" on="1"/>
        <pt x="621" y="625" on="1"/>
        <pt x="617" y="623" on="0"/>
        <pt x="613" y="623" on="1"/>
        <pt x="603" y="619" on="0"/>
        <pt x="590" y="619" on="1"/>
        <pt x="575" y="619" on="1"/>
        <pt x="588" y="605" on="1"/>
        <pt x="608" y="583" on="0"/>
        <pt x="610" y="579" on="1"/>
      </contour>
    </TTGlyph>
    <TTGlyph name="D" xMin="16" yMin="-1" xMax="688" yMax="683">
      <contour>
        <pt x="21" y="679" on="1"/>
        <pt x="28" y="683" on="1"/>
        <pt x="193" y="683" on="1"/>
        <pt x="329" y="683" on="0"/>
        <pt x="399" y="680" on="0"/>
        <pt x="430" y="672" on="1"/>
        <pt x="534" y="650" on="0"/>
        <pt x="667" y="520" on="0"/>
        <pt x="686" y="423" on="1"/>
        <pt x="688" y="406" on="0"/>
        <pt x="688" y="352" on="1"/>
        <pt x="688" y="274" on="0"/>
        <pt x="673" y="226" on="1"/>
        <pt x="641" y="130" on="0"/>
        <pt x="489" y="13" on="0"/>
        <pt x="381" y="1" on="1"/>
        <pt x="368" y="-1" on="0"/>
        <pt x="195" y="-1" on="1"/>
        <pt x="28" y="-1" on="1"/>
        <pt x="21" y="3" on="1"/>
        <pt x="16" y="10" on="0"/>
        <pt x="16" y="16" on="1"/>
        <pt x="16" y="21" on="0"/>
        <pt x="21" y="28" on="1"/>
        <pt x="30" y="35" on="0"/>
        <pt x="53" y="35" on="1"/>
        <pt x="68" y="36" on="0"/>
        <pt x="83" y="39" on="0"/>
        <pt x="92" y="45" on="0"/>
        <pt x="95" y="52" on="1"/>
        <pt x="98" y="61" on="0"/>
        <pt x="98" y="621" on="0"/>
        <pt x="95" y="630" on="1"/>
        <pt x="91" y="640" on="0"/>
        <pt x="75" y="646" on="0"/>
        <pt x="53" y="648" on="1"/>
        <pt x="28" y="648" on="0"/>
        <pt x="21" y="655" on="1"/>
        <pt x="16" y="660" on="0"/>
        <pt x="16" y="672" on="0"/>
      </contour>
      <contour>
        <pt x="237" y="646" on="1"/>
        <pt x="237" y="648" on="0"/>
        <pt x="184" y="648" on="1"/>
        <pt x="128" y="648" on="1"/>
        <pt x="128" y="647" on="0"/>
        <pt x="133" y="632" on="1"/>
        <pt x="136" y="620" on="0"/>
        <pt x="136" y="341" on="1"/>
        <pt x="136" y="64" on="0"/>
        <pt x="133" y="50" on="1"/>
        <pt x="128" y="35" on="1"/>
        <pt x="237" y="35" on="1"/>
        <pt x="230" y="48" on="1"/>
        <pt x="226" y="61" on="1"/>
        <pt x="226" y="343" on="1"/>
        <pt x="228" y="620" on="0"/>
        <pt x="231" y="633" on="1"/>
        <pt x="232" y="636" on="0"/>
      </contour>
      <contour>
        <pt x="321" y="648" on="1"/>
        <pt x="287" y="648" on="0"/>
        <pt x="264" y="621" on="1"/>
        <pt x="264" y="61" on="1"/>
        <pt x="268" y="55" on="1"/>
        <pt x="280" y="39" on="0"/>
        <pt x="310" y="35" on="1"/>
        <pt x="350" y="35" on="0"/>
        <pt x="381" y="46" on="1"/>
        <pt x="495" y="88" on="0"/>
        <pt x="513" y="295" on="1"/>
        <pt x="515" y="333" on="0"/>
        <pt x="515" y="349" on="1"/>
        <pt x="515" y="411" on="0"/>
        <pt x="504" y="459" on="1"/>
        <pt x="479" y="598" on="0"/>
        <pt x="373" y="641" on="1"/>
        <pt x="351" y="648" on="0"/>
      </contour>
      <contour>
        <pt x="550" y="352" on="1"/>
        <pt x="550" y="164" on="0"/>
        <pt x="468" y="59" on="1"/>
        <pt x="483" y="59" on="0"/>
        <pt x="526" y="90" on="1"/>
        <pt x="654" y="175" on="0"/>
        <pt x="654" y="354" on="1"/>
        <pt x="654" y="423" on="0"/>
        <pt x="619" y="514" on="0"/>
        <pt x="581" y="552" on="1"/>
        <pt x="544" y="593" on="0"/>
        <pt x="484" y="619" on="1"/>
        <pt x="480" y="621" on="0"/>
        <pt x="469" y="625" on="0"/>
        <pt x="462" y="628" on="0"/>
        <pt x="461" y="628" on="1"/>
        <pt x="466" y="621" on="0"/>
        <pt x="473" y="615" on="1"/>
        <pt x="550" y="521" on="0"/>
      </contour>
    </TTGlyph>
    <TTGlyph name="E" xMin="12" yMin="-1" xMax="640" yMax="683">
      <contour>
        <pt x="437" y="197" on="1"/>
        <pt x="420" y="197" on="0"/>
        <pt x="420" y="217" on="1"/>
        <pt x="420" y="240" on="0"/>
        <pt x="406" y="270" on="1"/>
        <pt x="377" y="328" on="0"/>
        <pt x="284" y="335" on="1"/>
        <pt x="260" y="335" on="1"/>
        <pt x="260" y="201" on="1"/>
        <pt x="262" y="65" on="0"/>
        <pt x="264" y="57" on="1"/>
        <pt x="266" y="48" on="0"/>
        <pt x="282" y="35" on="1"/>
        <pt x="331" y="35" on="1"/>
        <pt x="400" y="35" on="0"/>
        <pt x="449" y="50" on="1"/>
        <pt x="572" y="92" on="0"/>
        <pt x="602" y="179" on="1"/>
        <pt x="605" y="203" on="0"/>
        <pt x="622" y="203" on="1"/>
        <pt x="629" y="203" on="0"/>
        <pt x="640" y="190" on="0"/>
        <pt x="640" y="183" on="1"/>
        <pt x="638" y="181" on="0"/>
        <pt x="610" y="9" on="0"/>
        <pt x="604" y="3" on="1"/>
        <pt x="600" y="-1" on="1"/>
        <pt x="24" y="-1" on="1"/>
        <pt x="17" y="3" on="1"/>
        <pt x="12" y="10" on="0"/>
        <pt x="12" y="16" on="1"/>
        <pt x="12" y="21" on="0"/>
        <pt x="17" y="28" on="1"/>
        <pt x="26" y="35" on="0"/>
        <pt x="51" y="35" on="1"/>
        <pt x="92" y="38" on="0"/>
        <pt x="97" y="52" on="1"/>
        <pt x="102" y="60" on="0"/>
        <pt x="102" y="622" on="0"/>
        <pt x="97" y="632" on="1"/>
        <pt x="91" y="645" on="0"/>
        <pt x="51" y="648" on="1"/>
        <pt x="24" y="648" on="0"/>
        <pt x="17" y="655" on="1"/>
        <pt x="12" y="660" on="0"/>
        <pt x="12" y="672" on="0"/>
        <pt x="17" y="679" on="1"/>
        <pt x="24" y="683" on="1"/>
        <pt x="582" y="683" on="1"/>
        <pt x="590" y="680" on="0"/>
        <pt x="593" y="672" on="1"/>
        <pt x="593" y="588" on="1"/>
        <pt x="593" y="514" on="0"/>
        <pt x="588" y="490" on="0"/>
        <pt x="575" y="490" on="1"/>
        <pt x="567" y="490" on="0"/>
        <pt x="559" y="501" on="0"/>
        <pt x="555" y="517" on="1"/>
        <pt x="552" y="556" on="0"/>
        <pt x="517" y="590" on="1"/>
        <pt x="497" y="611" on="0"/>
        <pt x="480" y="619" on="1"/>
        <pt x="446" y="636" on="0"/>
        <pt x="394" y="647" on="0"/>
        <pt x="340" y="648" on="1"/>
        <pt x="282" y="648" on="1"/>
        <pt x="275" y="643" on="1"/>
        <pt x="265" y="633" on="0"/>
        <pt x="262" y="596" on="0"/>
        <pt x="260" y="492" on="1"/>
        <pt x="260" y="370" on="1"/>
        <pt x="277" y="370" on="1"/>
        <pt x="329" y="375" on="0"/>
        <pt x="387" y="407" on="0"/>
        <pt x="404" y="439" on="1"/>
        <pt x="420" y="480" on="0"/>
        <pt x="420" y="506" on="1"/>
        <pt x="420" y="525" on="0"/>
        <pt x="431" y="528" on="1"/>
        <pt x="444" y="531" on="0"/>
        <pt x="451" y="521" on="1"/>
        <pt x="455" y="517" on="0"/>
        <pt x="455" y="361" on="1"/>
        <pt x="455" y="208" on="0"/>
        <pt x="451" y="203" on="1"/>
        <pt x="444" y="197" on="0"/>
      </contour>
      <contour>
        <pt x="235" y="648" on="1"/>
        <pt x="129" y="648" on="1"/>
        <pt x="133" y="639" on="1"/>
        <pt x="137" y="625" on="0"/>
        <pt x="137" y="57" on="0"/>
        <pt x="133" y="43" on="1"/>
        <pt x="129" y="35" on="1"/>
        <pt x="235" y="35" on="1"/>
        <pt x="233" y="41" on="0"/>
        <pt x="231" y="48" on="1"/>
        <pt x="226" y="61" on="1"/>
        <pt x="226" y="623" on="1"/>
        <pt x="231" y="635" on="1"/>
      </contour>
      <contour>
        <pt x="557" y="603" on="1"/>
        <pt x="557" y="648" on="1"/>
        <pt x="504" y="648" on="1"/>
        <pt x="504" y="646" on="0"/>
        <pt x="515" y="639" on="1"/>
        <pt x="527" y="634" on="0"/>
        <pt x="542" y="619" on="1"/>
      </contour>
      <contour>
        <pt x="420" y="317" on="1"/>
        <pt x="420" y="397" on="1"/>
        <pt x="406" y="383" on="1"/>
        <pt x="394" y="370" on="0"/>
        <pt x="380" y="363" on="1"/>
        <pt x="366" y="355" on="1"/>
        <pt x="373" y="350" on="0"/>
        <pt x="382" y="346" on="1"/>
        <pt x="400" y="333" on="0"/>
        <pt x="409" y="328" on="1"/>
      </contour>
      <contour>
        <pt x="577" y="35" on="1"/>
        <pt x="577" y="36" on="0"/>
        <pt x="582" y="62" on="1"/>
        <pt x="586" y="88" on="1"/>
        <pt x="585" y="88" on="0"/>
        <pt x="582" y="83" on="1"/>
        <pt x="557" y="61" on="0"/>
        <pt x="526" y="46" on="1"/>
        <pt x="511" y="37" on="1"/>
        <pt x="542" y="35" on="1"/>
      </contour>
    </TTGlyph>
    <TTGlyph name="F" xMin="12" yMin="-1" xMax="584" yMax="683">
      <contour>
        <pt x="573" y="683" on="1"/>
        <pt x="576" y="678" on="0"/>
        <pt x="584" y="670" on="1"/>
        <pt x="584" y="499" on="1"/>
        <pt x="577" y="495" on="1"/>
        <pt x="569" y="485" on="0"/>
        <pt x="557" y="492" on="1"/>
        <pt x="546" y="498" on="0"/>
        <pt x="546" y="515" on="1"/>
        <pt x="546" y="535" on="0"/>
        <pt x="533" y="559" on="1"/>
        <pt x="526" y="574" on="0"/>
        <pt x="486" y="613" on="0"/>
        <pt x="469" y="621" on="1"/>
        <pt x="415" y="648" on="0"/>
        <pt x="326" y="648" on="1"/>
        <pt x="293" y="648" on="0"/>
        <pt x="280" y="646" on="0"/>
        <pt x="275" y="641" on="1"/>
        <pt x="266" y="632" on="0"/>
        <pt x="264" y="626" on="1"/>
        <pt x="262" y="618" on="0"/>
        <pt x="260" y="492" on="1"/>
        <pt x="260" y="370" on="1"/>
        <pt x="275" y="372" on="1"/>
        <pt x="323" y="376" on="0"/>
        <pt x="378" y="408" on="0"/>
        <pt x="393" y="441" on="1"/>
        <pt x="409" y="473" on="0"/>
        <pt x="409" y="506" on="1"/>
        <pt x="409" y="529" on="0"/>
        <pt x="427" y="529" on="1"/>
        <pt x="437" y="529" on="0"/>
        <pt x="442" y="519" on="1"/>
        <pt x="444" y="511" on="0"/>
        <pt x="444" y="362" on="1"/>
        <pt x="444" y="212" on="0"/>
        <pt x="442" y="206" on="1"/>
        <pt x="436" y="197" on="0"/>
        <pt x="426" y="197" on="1"/>
        <pt x="409" y="197" on="0"/>
        <pt x="409" y="217" on="1"/>
        <pt x="409" y="265" on="0"/>
        <pt x="375" y="299" on="1"/>
        <pt x="346" y="328" on="0"/>
        <pt x="280" y="335" on="1"/>
        <pt x="260" y="335" on="1"/>
        <pt x="260" y="206" on="1"/>
        <pt x="260" y="70" on="0"/>
        <pt x="262" y="63" on="1"/>
        <pt x="265" y="46" on="0"/>
        <pt x="288" y="36" on="0"/>
        <pt x="326" y="35" on="1"/>
        <pt x="362" y="35" on="0"/>
        <pt x="366" y="28" on="1"/>
        <pt x="377" y="17" on="0"/>
        <pt x="366" y="3" on="1"/>
        <pt x="360" y="-1" on="1"/>
        <pt x="24" y="-1" on="1"/>
        <pt x="17" y="3" on="1"/>
        <pt x="12" y="10" on="0"/>
        <pt x="12" y="16" on="1"/>
        <pt x="12" y="21" on="0"/>
        <pt x="17" y="28" on="1"/>
        <pt x="26" y="35" on="0"/>
        <pt x="51" y="35" on="1"/>
        <pt x="92" y="38" on="0"/>
        <pt x="97" y="52" on="1"/>
        <pt x="102" y="60" on="0"/>
        <pt x="102" y="622" on="0"/>
        <pt x="97" y="632" on="1"/>
        <pt x="91" y="645" on="0"/>
        <pt x="51" y="648" on="1"/>
        <pt x="24" y="648" on="0"/>
        <pt x="17" y="655" on="1"/>
        <pt x="12" y="660" on="0"/>
        <pt x="12" y="672" on="0"/>
        <pt x="17" y="679" on="1"/>
        <pt x="24" y="683" on="1"/>
      </contour>
      <contour>
        <pt x="235" y="648" on="1"/>
        <pt x="129" y="648" on="1"/>
        <pt x="133" y="639" on="1"/>
        <pt x="137" y="625" on="0"/>
        <pt x="137" y="57" on="0"/>
        <pt x="133" y="43" on="1"/>
        <pt x="129" y="35" on="1"/>
        <pt x="182" y="35" on="1"/>
        <pt x="233" y="35" on="0"/>
        <pt x="233" y="39" on="1"/>
        <pt x="226" y="54" on="0"/>
        <pt x="224" y="131" on="0"/>
        <pt x="224" y="346" on="1"/>
        <pt x="226" y="623" on="1"/>
        <pt x="231" y="635" on="1"/>
      </contour>
      <contour>
        <pt x="549" y="603" on="1"/>
        <pt x="549" y="648" on="1"/>
        <pt x="495" y="648" on="1"/>
        <pt x="506" y="641" on="1"/>
        <pt x="531" y="621" on="0"/>
        <pt x="533" y="619" on="1"/>
      </contour>
      <contour>
        <pt x="409" y="317" on="1"/>
        <pt x="409" y="395" on="1"/>
        <pt x="400" y="386" on="1"/>
        <pt x="390" y="376" on="0"/>
        <pt x="375" y="366" on="1"/>
        <pt x="357" y="355" on="1"/>
        <pt x="373" y="346" on="1"/>
        <pt x="394" y="331" on="0"/>
        <pt x="397" y="328" on="1"/>
      </contour>
    </TTGlyph>
    <TTGlyph name="G" xMin="39" yMin="-19" xMax="749" yMax="702">
      <contour>
        <pt x="341" y="699" on="1"/>
        <pt x="344" y="699" on="0"/>
        <pt x="384" y="701" on="0"/>
        <pt x="395" y="701" on="1"/>
        <pt x="451" y="698" on="0"/>
        <pt x="501" y="677" on="1"/>
        <pt x="556" y="655" on="0"/>
        <pt x="585" y="655" on="1"/>
        <pt x="597" y="655" on="0"/>
        <pt x="604" y="659" on="1"/>
        <pt x="619" y="664" on="0"/>
        <pt x="621" y="683" on="1"/>
        <pt x="624" y="702" on="0"/>
        <pt x="639" y="702" on="1"/>
        <pt x="647" y="702" on="0"/>
        <pt x="653" y="697" on="1"/>
        <pt x="657" y="690" on="1"/>
        <pt x="657" y="481" on="1"/>
        <pt x="653" y="474" on="1"/>
        <pt x="640" y="467" on="0"/>
        <pt x="628" y="472" on="1"/>
        <pt x="622" y="478" on="0"/>
        <pt x="619" y="492" on="1"/>
        <pt x="611" y="517" on="0"/>
        <pt x="595" y="541" on="1"/>
        <pt x="545" y="610" on="0"/>
        <pt x="473" y="643" on="1"/>
        <pt x="431" y="663" on="0"/>
        <pt x="390" y="663" on="1"/>
        <pt x="381" y="663" on="1"/>
        <pt x="337" y="663" on="0"/>
        <pt x="299" y="625" on="1"/>
        <pt x="213" y="547" on="0"/>
        <pt x="213" y="337" on="1"/>
        <pt x="213" y="188" on="0"/>
        <pt x="253" y="110" on="1"/>
        <pt x="286" y="45" on="0"/>
        <pt x="341" y="23" on="1"/>
        <pt x="357" y="19" on="0"/>
        <pt x="397" y="19" on="1"/>
        <pt x="486" y="19" on="0"/>
        <pt x="506" y="39" on="1"/>
        <pt x="513" y="45" on="1"/>
        <pt x="513" y="119" on="1"/>
        <pt x="513" y="184" on="0"/>
        <pt x="506" y="203" on="1"/>
        <pt x="491" y="238" on="0"/>
        <pt x="435" y="250" on="1"/>
        <pt x="421" y="250" on="0"/>
        <pt x="415" y="257" on="1"/>
        <pt x="404" y="267" on="0"/>
        <pt x="415" y="281" on="1"/>
        <pt x="421" y="285" on="1"/>
        <pt x="737" y="285" on="1"/>
        <pt x="744" y="281" on="1"/>
        <pt x="749" y="274" on="0"/>
        <pt x="749" y="268" on="1"/>
        <pt x="749" y="260" on="0"/>
        <pt x="738" y="250" on="0"/>
        <pt x="730" y="250" on="1"/>
        <pt x="695" y="250" on="0"/>
        <pt x="677" y="217" on="1"/>
        <pt x="666" y="195" on="0"/>
        <pt x="666" y="119" on="1"/>
        <pt x="666" y="52" on="0"/>
        <pt x="664" y="50" on="1"/>
        <pt x="656" y="36" on="0"/>
        <pt x="555" y="3" on="1"/>
        <pt x="483" y="-16" on="0"/>
        <pt x="415" y="-19" on="1"/>
        <pt x="364" y="-19" on="0"/>
        <pt x="348" y="-17" on="1"/>
        <pt x="226" y="-3" on="0"/>
        <pt x="66" y="143" on="0"/>
        <pt x="44" y="261" on="1"/>
        <pt x="39" y="283" on="0"/>
        <pt x="39" y="399" on="0"/>
        <pt x="44" y="421" on="1"/>
        <pt x="66" y="538" on="0"/>
        <pt x="221" y="684" on="0"/>
      </contour>
      <contour>
        <pt x="250" y="625" on="1"/>
        <pt x="264" y="643" on="0"/>
        <pt x="261" y="643" on="1"/>
        <pt x="208" y="624" on="0"/>
        <pt x="159" y="577" on="1"/>
        <pt x="74" y="491" on="0"/>
        <pt x="74" y="341" on="1"/>
        <pt x="74" y="298" on="0"/>
        <pt x="79" y="268" on="1"/>
        <pt x="106" y="117" on="0"/>
        <pt x="230" y="52" on="1"/>
        <pt x="250" y="43" on="1"/>
        <pt x="250" y="46" on="0"/>
        <pt x="241" y="59" on="1"/>
        <pt x="177" y="148" on="0"/>
        <pt x="177" y="343" on="1"/>
        <pt x="177" y="361" on="1"/>
        <pt x="183" y="534" on="0"/>
      </contour>
      <contour>
        <pt x="621" y="565" on="1"/>
        <pt x="621" y="625" on="1"/>
        <pt x="617" y="623" on="0"/>
        <pt x="613" y="623" on="1"/>
        <pt x="603" y="619" on="0"/>
        <pt x="590" y="619" on="1"/>
        <pt x="575" y="619" on="1"/>
        <pt x="588" y="605" on="1"/>
        <pt x="608" y="583" on="0"/>
        <pt x="610" y="579" on="1"/>
      </contour>
      <contour>
        <pt x="655" y="250" on="1"/>
        <pt x="517" y="250" on="1"/>
        <pt x="524" y="241" on="1"/>
        <pt x="536" y="227" on="0"/>
        <pt x="544" y="201" on="1"/>
        <pt x="548" y="190" on="0"/>
        <pt x="548" y="114" on="1"/>
        <pt x="548" y="39" on="1"/>
        <pt x="549" y="39" on="0"/>
        <pt x="576" y="49" on="0"/>
        <pt x="609" y="61" on="0"/>
        <pt x="615" y="63" on="1"/>
        <pt x="630" y="70" on="1"/>
        <pt x="630" y="134" on="1"/>
        <pt x="632" y="190" on="0"/>
        <pt x="637" y="219" on="0"/>
        <pt x="648" y="237" on="1"/>
        <pt x="655" y="245" on="0"/>
      </contour>
    </TTGlyph>
    <TTGlyph name="H" xMin="14" yMin="-1" xMax="762" yMax="683">
      <contour>
        <pt x="751" y="683" on="1"/>
        <pt x="762" y="676" on="0"/>
        <pt x="762" y="666" on="1"/>
        <pt x="762" y="659" on="0"/>
        <pt x="757" y="655" on="1"/>
        <pt x="751" y="648" on="0"/>
        <pt x="724" y="648" on="1"/>
        <pt x="684" y="645" on="0"/>
        <pt x="677" y="632" on="1"/>
        <pt x="675" y="626" on="0"/>
        <pt x="675" y="341" on="1"/>
        <pt x="675" y="57" on="0"/>
        <pt x="677" y="52" on="1"/>
        <pt x="684" y="38" on="0"/>
        <pt x="724" y="35" on="1"/>
        <pt x="750" y="35" on="0"/>
        <pt x="757" y="28" on="1"/>
        <pt x="762" y="23" on="0"/>
        <pt x="762" y="16" on="1"/>
        <pt x="762" y="6" on="0"/>
        <pt x="751" y="-1" on="1"/>
        <pt x="433" y="-1" on="1"/>
        <pt x="426" y="3" on="1"/>
        <pt x="415" y="17" on="0"/>
        <pt x="426" y="28" on="1"/>
        <pt x="435" y="35" on="0"/>
        <pt x="459" y="35" on="1"/>
        <pt x="501" y="38" on="0"/>
        <pt x="506" y="52" on="1"/>
        <pt x="511" y="64" on="0"/>
        <pt x="511" y="190" on="1"/>
        <pt x="511" y="323" on="1"/>
        <pt x="266" y="323" on="1"/>
        <pt x="266" y="190" on="1"/>
        <pt x="266" y="60" on="0"/>
        <pt x="271" y="52" on="1"/>
        <pt x="276" y="38" on="0"/>
        <pt x="317" y="35" on="1"/>
        <pt x="342" y="35" on="0"/>
        <pt x="351" y="28" on="1"/>
        <pt x="360" y="17" on="0"/>
        <pt x="351" y="3" on="1"/>
        <pt x="344" y="-1" on="1"/>
        <pt x="26" y="-1" on="1"/>
        <pt x="19" y="3" on="1"/>
        <pt x="14" y="10" on="0"/>
        <pt x="14" y="16" on="1"/>
        <pt x="14" y="21" on="0"/>
        <pt x="19" y="28" on="1"/>
        <pt x="28" y="35" on="0"/>
        <pt x="53" y="35" on="1"/>
        <pt x="94" y="38" on="0"/>
        <pt x="99" y="52" on="1"/>
        <pt x="104" y="60" on="0"/>
        <pt x="104" y="622" on="0"/>
        <pt x="99" y="632" on="1"/>
        <pt x="93" y="645" on="0"/>
        <pt x="53" y="648" on="1"/>
        <pt x="26" y="648" on="0"/>
        <pt x="19" y="655" on="1"/>
        <pt x="14" y="660" on="0"/>
        <pt x="14" y="672" on="0"/>
        <pt x="19" y="679" on="1"/>
        <pt x="26" y="683" on="1"/>
        <pt x="344" y="683" on="1"/>
        <pt x="351" y="679" on="1"/>
        <pt x="361" y="665" on="0"/>
        <pt x="351" y="655" on="1"/>
        <pt x="344" y="648" on="0"/>
        <pt x="317" y="648" on="1"/>
        <pt x="287" y="645" on="0"/>
        <pt x="282" y="641" on="1"/>
        <pt x="270" y="637" on="0"/>
        <pt x="268" y="608" on="0"/>
        <pt x="266" y="497" on="1"/>
        <pt x="266" y="370" on="1"/>
        <pt x="511" y="370" on="1"/>
        <pt x="511" y="497" on="1"/>
        <pt x="511" y="519" on="0"/>
        <pt x="510" y="553" on="1"/>
        <pt x="509" y="615" on="0"/>
        <pt x="505" y="638" on="0"/>
        <pt x="496" y="641" on="1"/>
        <pt x="495" y="641" on="1"/>
        <pt x="489" y="645" on="0"/>
        <pt x="459" y="648" on="1"/>
        <pt x="433" y="648" on="0"/>
        <pt x="426" y="655" on="1"/>
        <pt x="415" y="665" on="0"/>
        <pt x="426" y="679" on="1"/>
        <pt x="433" y="683" on="1"/>
      </contour>
      <contour>
        <pt x="235" y="639" on="1"/>
        <pt x="239" y="648" on="1"/>
        <pt x="131" y="648" on="1"/>
        <pt x="135" y="639" on="1"/>
        <pt x="139" y="625" on="0"/>
        <pt x="139" y="57" on="0"/>
        <pt x="135" y="43" on="1"/>
        <pt x="131" y="35" on="1"/>
        <pt x="239" y="35" on="1"/>
        <pt x="235" y="43" on="1"/>
        <pt x="233" y="50" on="0"/>
        <pt x="233" y="632" on="0"/>
      </contour>
      <contour>
        <pt x="639" y="341" on="1"/>
        <pt x="639" y="411" on="0"/>
        <pt x="638" y="561" on="0"/>
        <pt x="638" y="572" on="1"/>
        <pt x="638" y="629" on="0"/>
        <pt x="646" y="648" on="1"/>
        <pt x="537" y="648" on="1"/>
        <pt x="542" y="639" on="1"/>
        <pt x="546" y="625" on="0"/>
        <pt x="546" y="57" on="0"/>
        <pt x="542" y="43" on="1"/>
        <pt x="537" y="35" on="1"/>
        <pt x="646" y="35" on="1"/>
        <pt x="642" y="43" on="1"/>
        <pt x="639" y="50" on="0"/>
      </contour>
    </TTGlyph>
    <TTGlyph name="H22073" xMin="55" yMin="0" xMax="722" yMax="689">
      <contour>
        <pt x="71" y="0" on="1"/>
        <pt x="59" y="4" on="0"/>
        <pt x="55" y="16" on="1"/>
        <pt x="55" y="346" on="1"/>
        <pt x="56" y="676" on="1"/>
        <pt x="63" y="685" on="0"/>
        <pt x="70" y="689" on="1"/>
        <pt x="709" y="689" on="1"/>
        <pt x="719" y="681" on="0"/>
        <pt x="722" y="674" on="1"/>
        <pt x="722" y="15" on="1"/>
        <pt x="720" y="10" on="0"/>
        <pt x="709" y="1" on="1"/>
        <pt x="390" y="0" on="1"/>
      </contour>
      <contour>
        <pt x="682" y="40" on="1"/>
        <pt x="682" y="649" on="1"/>
        <pt x="95" y="649" on="1"/>
        <pt x="95" y="40" on="1"/>
      </contour>
    </TTGlyph>
    <TTGlyph name="I" xMin="20" yMin="-1" xMax="369" yMax="683">
      <contour>
        <pt x="358" y="683" on="1"/>
        <pt x="369" y="676" on="0"/>
        <pt x="369" y="666" on="1"/>
        <pt x="369" y="659" on="0"/>
        <pt x="364" y="655" on="1"/>
        <pt x="358" y="648" on="0"/>
        <pt x="331" y="648" on="1"/>
        <pt x="288" y="645" on="0"/>
        <pt x="282" y="632" on="1"/>
        <pt x="278" y="626" on="0"/>
        <pt x="278" y="341" on="1"/>
        <pt x="278" y="57" on="0"/>
        <pt x="282" y="50" on="1"/>
        <pt x="286" y="42" on="0"/>
        <pt x="305" y="37" on="0"/>
        <pt x="331" y="35" on="1"/>
        <pt x="357" y="35" on="0"/>
        <pt x="364" y="28" on="1"/>
        <pt x="369" y="23" on="0"/>
        <pt x="369" y="16" on="1"/>
        <pt x="369" y="6" on="0"/>
        <pt x="358" y="-1" on="1"/>
        <pt x="31" y="-1" on="1"/>
        <pt x="24" y="3" on="1"/>
        <pt x="20" y="8" on="0"/>
        <pt x="20" y="16" on="1"/>
        <pt x="20" y="23" on="0"/>
        <pt x="24" y="28" on="1"/>
        <pt x="33" y="35" on="0"/>
        <pt x="58" y="35" on="1"/>
        <pt x="84" y="37" on="0"/>
        <pt x="103" y="42" on="0"/>
        <pt x="107" y="50" on="1"/>
        <pt x="113" y="60" on="0"/>
        <pt x="113" y="341" on="1"/>
        <pt x="113" y="623" on="0"/>
        <pt x="107" y="632" on="1"/>
        <pt x="101" y="645" on="0"/>
        <pt x="58" y="648" on="1"/>
        <pt x="31" y="648" on="0"/>
        <pt x="24" y="655" on="1"/>
        <pt x="20" y="659" on="0"/>
        <pt x="20" y="666" on="1"/>
        <pt x="20" y="674" on="0"/>
        <pt x="24" y="679" on="1"/>
        <pt x="31" y="683" on="1"/>
      </contour>
      <contour>
        <pt x="244" y="639" on="1"/>
        <pt x="249" y="648" on="1"/>
        <pt x="140" y="648" on="1"/>
        <pt x="144" y="639" on="1"/>
        <pt x="149" y="627" on="0"/>
        <pt x="149" y="55" on="0"/>
        <pt x="144" y="43" on="1"/>
        <pt x="140" y="35" on="1"/>
        <pt x="249" y="35" on="1"/>
        <pt x="244" y="43" on="1"/>
        <pt x="242" y="50" on="0"/>
        <pt x="242" y="632" on="0"/>
      </contour>
    </TTGlyph>
    <TTGlyph name="J" xMin="6" yMin="-77" xMax="478" yMax="683">
      <contour>
        <pt x="6" y="30" on="1"/>
        <pt x="6" y="61" on="0"/>
        <pt x="46" y="103" on="0"/>
        <pt x="79" y="103" on="1"/>
        <pt x="95" y="103" on="0"/>
        <pt x="110" y="96" on="1"/>
        <pt x="151" y="73" on="0"/>
        <pt x="151" y="38" on="1"/>
        <pt x="151" y="9" on="0"/>
        <pt x="130" y="-15" on="1"/>
        <pt x="116" y="-34" on="0"/>
        <pt x="130" y="-37" on="1"/>
        <pt x="133" y="-39" on="0"/>
        <pt x="157" y="-39" on="1"/>
        <pt x="208" y="-39" on="0"/>
        <pt x="219" y="-8" on="1"/>
        <pt x="226" y="3" on="1"/>
        <pt x="226" y="305" on="1"/>
        <pt x="226" y="612" on="0"/>
        <pt x="224" y="621" on="1"/>
        <pt x="220" y="636" on="0"/>
        <pt x="201" y="646" on="0"/>
        <pt x="166" y="647" on="1"/>
        <pt x="137" y="647" on="0"/>
        <pt x="128" y="654" on="1"/>
        <pt x="119" y="665" on="0"/>
        <pt x="128" y="679" on="1"/>
        <pt x="135" y="683" on="1"/>
        <pt x="466" y="683" on="1"/>
        <pt x="473" y="679" on="1"/>
        <pt x="478" y="672" on="0"/>
        <pt x="478" y="666" on="1"/>
        <pt x="478" y="661" on="0"/>
        <pt x="473" y="654" on="1"/>
        <pt x="464" y="647" on="0"/>
        <pt x="439" y="647" on="1"/>
        <pt x="399" y="644" on="0"/>
        <pt x="393" y="632" on="1"/>
        <pt x="388" y="620" on="0"/>
        <pt x="388" y="347" on="1"/>
        <pt x="386" y="69" on="0"/>
        <pt x="384" y="59" on="1"/>
        <pt x="364" y="-6" on="0"/>
        <pt x="267" y="-72" on="0"/>
        <pt x="184" y="-77" on="1"/>
        <pt x="172" y="-77" on="1"/>
        <pt x="102" y="-77" on="0"/>
        <pt x="9" y="-18" on="0"/>
      </contour>
      <contour>
        <pt x="357" y="639" on="1"/>
        <pt x="362" y="647" on="1"/>
        <pt x="253" y="647" on="1"/>
        <pt x="257" y="639" on="1"/>
        <pt x="262" y="616" on="0"/>
        <pt x="262" y="312" on="1"/>
        <pt x="262" y="-4" on="1"/>
        <pt x="255" y="-17" on="1"/>
        <pt x="248" y="-29" on="0"/>
        <pt x="250" y="-29" on="1"/>
        <pt x="252" y="-29" on="0"/>
        <pt x="253" y="-28" on="1"/>
        <pt x="325" y="-10" on="0"/>
        <pt x="348" y="65" on="1"/>
        <pt x="350" y="74" on="0"/>
        <pt x="353" y="354" on="1"/>
        <pt x="353" y="625" on="0"/>
      </contour>
      <contour>
        <pt x="115" y="36" on="1"/>
        <pt x="115" y="49" on="0"/>
        <pt x="93" y="67" on="0"/>
        <pt x="79" y="67" on="1"/>
        <pt x="62" y="67" on="0"/>
        <pt x="50" y="54" on="1"/>
        <pt x="44" y="47" on="0"/>
        <pt x="44" y="34" on="1"/>
        <pt x="44" y="9" on="0"/>
        <pt x="62" y="-8" on="1"/>
        <pt x="66" y="-11" on="0"/>
        <pt x="77" y="-20" on="0"/>
        <pt x="86" y="-25" on="0"/>
        <pt x="86" y="-24" on="1"/>
        <pt x="90" y="-13" on="1"/>
        <pt x="100" y="3" on="0"/>
        <pt x="102" y="5" on="1"/>
        <pt x="115" y="22" on="0"/>
      </contour>
    </TTGlyph>
    <TTGlyph name="K" xMin="22" yMin="-1" xMax="768" yMax="683">
      <contour>
        <pt x="768" y="15" on="1"/>
        <pt x="768" y="6" on="0"/>
        <pt x="758" y="-1" on="1"/>
        <pt x="624" y="-1" on="1"/>
        <pt x="491" y="-1" on="0"/>
        <pt x="486" y="3" on="1"/>
        <pt x="480" y="10" on="0"/>
        <pt x="480" y="17" on="1"/>
        <pt x="480" y="25" on="0"/>
        <pt x="495" y="35" on="0"/>
        <pt x="506" y="35" on="1"/>
        <pt x="518" y="36" on="0"/>
        <pt x="523" y="41" on="0"/>
        <pt x="520" y="48" on="1"/>
        <pt x="487" y="90" on="0"/>
        <pt x="400" y="195" on="1"/>
        <pt x="302" y="310" on="1"/>
        <pt x="286" y="297" on="1"/>
        <pt x="273" y="283" on="1"/>
        <pt x="273" y="170" on="1"/>
        <pt x="275" y="72" on="0"/>
        <pt x="277" y="46" on="0"/>
        <pt x="289" y="41" on="1"/>
        <pt x="293" y="38" on="0"/>
        <pt x="324" y="35" on="1"/>
        <pt x="349" y="35" on="0"/>
        <pt x="358" y="28" on="1"/>
        <pt x="367" y="17" on="0"/>
        <pt x="358" y="3" on="1"/>
        <pt x="351" y="-1" on="1"/>
        <pt x="33" y="-1" on="1"/>
        <pt x="26" y="3" on="1"/>
        <pt x="22" y="8" on="0"/>
        <pt x="22" y="16" on="1"/>
        <pt x="22" y="23" on="0"/>
        <pt x="26" y="28" on="1"/>
        <pt x="35" y="35" on="0"/>
        <pt x="60" y="35" on="1"/>
        <pt x="101" y="38" on="0"/>
        <pt x="106" y="52" on="1"/>
        <pt x="111" y="60" on="0"/>
        <pt x="111" y="622" on="0"/>
        <pt x="106" y="632" on="1"/>
        <pt x="100" y="645" on="0"/>
        <pt x="60" y="648" on="1"/>
        <pt x="33" y="648" on="0"/>
        <pt x="26" y="655" on="1"/>
        <pt x="22" y="659" on="0"/>
        <pt x="22" y="666" on="1"/>
        <pt x="22" y="674" on="0"/>
        <pt x="26" y="679" on="1"/>
        <pt x="33" y="683" on="1"/>
        <pt x="351" y="683" on="1"/>
        <pt x="358" y="679" on="1"/>
        <pt x="368" y="665" on="0"/>
        <pt x="358" y="655" on="1"/>
        <pt x="351" y="648" on="0"/>
        <pt x="324" y="648" on="1"/>
        <pt x="288" y="645" on="0"/>
        <pt x="280" y="637" on="1"/>
        <pt x="275" y="631" on="0"/>
        <pt x="273" y="579" on="0"/>
        <pt x="273" y="477" on="1"/>
        <pt x="275" y="343" on="1"/>
        <pt x="382" y="446" on="1"/>
        <pt x="484" y="540" on="0"/>
        <pt x="498" y="559" on="1"/>
        <pt x="512" y="576" on="0"/>
        <pt x="512" y="599" on="1"/>
        <pt x="512" y="617" on="0"/>
        <pt x="492" y="645" on="0"/>
        <pt x="475" y="648" on="1"/>
        <pt x="455" y="651" on="0"/>
        <pt x="455" y="666" on="1"/>
        <pt x="455" y="672" on="0"/>
        <pt x="462" y="679" on="1"/>
        <pt x="466" y="683" on="0"/>
        <pt x="593" y="683" on="1"/>
        <pt x="720" y="683" on="1"/>
        <pt x="732" y="675" on="0"/>
        <pt x="732" y="666" on="1"/>
        <pt x="732" y="659" on="0"/>
        <pt x="721" y="648" on="0"/>
        <pt x="713" y="648" on="1"/>
        <pt x="670" y="648" on="0"/>
        <pt x="589" y="581" on="1"/>
        <pt x="567" y="562" on="0"/>
        <pt x="413" y="416" on="0"/>
        <pt x="413" y="415" on="1"/>
        <pt x="413" y="413" on="0"/>
        <pt x="695" y="77" on="0"/>
        <pt x="711" y="61" on="1"/>
        <pt x="737" y="35" on="0"/>
        <pt x="751" y="35" on="1"/>
        <pt x="758" y="35" on="0"/>
        <pt x="768" y="23" on="0"/>
      </contour>
      <contour>
        <pt x="242" y="639" on="1"/>
        <pt x="246" y="648" on="1"/>
        <pt x="138" y="648" on="1"/>
        <pt x="142" y="639" on="1"/>
        <pt x="146" y="625" on="0"/>
        <pt x="146" y="57" on="0"/>
        <pt x="142" y="43" on="1"/>
        <pt x="138" y="35" on="1"/>
        <pt x="246" y="35" on="1"/>
        <pt x="242" y="43" on="1"/>
        <pt x="240" y="50" on="0"/>
        <pt x="240" y="632" on="0"/>
      </contour>
      <contour>
        <pt x="595" y="632" on="1"/>
        <pt x="615" y="648" on="1"/>
        <pt x="535" y="648" on="1"/>
        <pt x="542" y="637" on="1"/>
        <pt x="542" y="636" on="0"/>
        <pt x="547" y="614" on="0"/>
        <pt x="549" y="610" on="1"/>
        <pt x="549" y="595" on="1"/>
        <pt x="562" y="606" on="1"/>
        <pt x="565" y="608" on="0"/>
        <pt x="589" y="629" on="0"/>
      </contour>
      <contour>
        <pt x="524" y="226" on="1"/>
        <pt x="386" y="388" on="1"/>
        <pt x="386" y="389" on="0"/>
        <pt x="370" y="374" on="0"/>
        <pt x="358" y="361" on="1"/>
        <pt x="330" y="338" on="0"/>
        <pt x="330" y="333" on="1"/>
        <pt x="330" y="332" on="0"/>
        <pt x="330" y="332" on="1"/>
        <pt x="331" y="330" on="1"/>
        <pt x="432" y="214" on="0"/>
        <pt x="533" y="90" on="1"/>
        <pt x="558" y="55" on="0"/>
        <pt x="558" y="41" on="1"/>
        <pt x="558" y="35" on="1"/>
        <pt x="684" y="35" on="1"/>
        <pt x="671" y="50" on="1"/>
        <pt x="667" y="54" on="0"/>
      </contour>
    </TTGlyph>
    <TTGlyph name="L" xMin="12" yMin="-1" xMax="640" yMax="683">
      <contour>
        <pt x="17" y="679" on="1"/>
        <pt x="24" y="683" on="1"/>
        <pt x="333" y="683" on="1"/>
        <pt x="340" y="679" on="1"/>
        <pt x="350" y="665" on="0"/>
        <pt x="340" y="655" on="1"/>
        <pt x="333" y="648" on="0"/>
        <pt x="309" y="648" on="1"/>
        <pt x="287" y="646" on="0"/>
        <pt x="270" y="640" on="0"/>
        <pt x="266" y="630" on="1"/>
        <pt x="264" y="623" on="0"/>
        <pt x="264" y="346" on="1"/>
        <pt x="264" y="68" on="0"/>
        <pt x="266" y="57" on="1"/>
        <pt x="273" y="41" on="0"/>
        <pt x="284" y="35" on="1"/>
        <pt x="340" y="35" on="1"/>
        <pt x="413" y="37" on="0"/>
        <pt x="460" y="55" on="1"/>
        <pt x="514" y="78" on="0"/>
        <pt x="592" y="157" on="0"/>
        <pt x="602" y="197" on="1"/>
        <pt x="605" y="221" on="0"/>
        <pt x="622" y="221" on="1"/>
        <pt x="629" y="221" on="0"/>
        <pt x="640" y="208" on="0"/>
        <pt x="640" y="201" on="1"/>
        <pt x="638" y="194" on="0"/>
        <pt x="611" y="15" on="0"/>
        <pt x="611" y="12" on="1"/>
        <pt x="611" y="11" on="0"/>
        <pt x="606" y="3" on="1"/>
        <pt x="600" y="-1" on="1"/>
        <pt x="24" y="-1" on="1"/>
        <pt x="17" y="3" on="1"/>
        <pt x="12" y="10" on="0"/>
        <pt x="12" y="16" on="1"/>
        <pt x="12" y="21" on="0"/>
        <pt x="17" y="28" on="1"/>
        <pt x="26" y="35" on="0"/>
        <pt x="51" y="35" on="1"/>
        <pt x="92" y="38" on="0"/>
        <pt x="97" y="52" on="1"/>
        <pt x="102" y="60" on="0"/>
        <pt x="102" y="622" on="0"/>
        <pt x="97" y="632" on="1"/>
        <pt x="91" y="645" on="0"/>
        <pt x="51" y="648" on="1"/>
        <pt x="24" y="648" on="0"/>
        <pt x="17" y="655" on="1"/>
        <pt x="12" y="660" on="0"/>
        <pt x="12" y="672" on="0"/>
      </contour>
      <contour>
        <pt x="233" y="643" on="1"/>
        <pt x="233" y="648" on="1"/>
        <pt x="129" y="648" on="1"/>
        <pt x="133" y="639" on="1"/>
        <pt x="137" y="625" on="0"/>
        <pt x="137" y="57" on="0"/>
        <pt x="133" y="43" on="1"/>
        <pt x="129" y="35" on="1"/>
        <pt x="237" y="35" on="1"/>
        <pt x="235" y="41" on="0"/>
        <pt x="233" y="48" on="1"/>
        <pt x="229" y="61" on="1"/>
        <pt x="226" y="339" on="1"/>
        <pt x="226" y="621" on="0"/>
        <pt x="229" y="628" on="1"/>
        <pt x="230" y="630" on="0"/>
        <pt x="232" y="642" on="0"/>
      </contour>
      <contour>
        <pt x="580" y="48" on="1"/>
        <pt x="580" y="54" on="0"/>
        <pt x="586" y="93" on="0"/>
        <pt x="586" y="97" on="1"/>
        <pt x="586" y="98" on="0"/>
        <pt x="583" y="95" on="0"/>
        <pt x="575" y="88" on="0"/>
        <pt x="571" y="86" on="1"/>
        <pt x="549" y="64" on="0"/>
        <pt x="513" y="43" on="1"/>
        <pt x="500" y="35" on="1"/>
        <pt x="577" y="35" on="1"/>
      </contour>
    </TTGlyph>
    <TTGlyph name="M" xMin="17" yMin="-1" xMax="926" yMax="683">
      <contour>
        <pt x="17" y="17" on="1"/>
        <pt x="17" y="35" on="0"/>
        <pt x="39" y="35" on="1"/>
        <pt x="84" y="42" on="0"/>
        <pt x="97" y="68" on="1"/>
        <pt x="104" y="79" on="1"/>
        <pt x="104" y="639" on="1"/>
        <pt x="88" y="641" on="1"/>
        <pt x="72" y="644" on="0"/>
        <pt x="53" y="648" on="1"/>
        <pt x="25" y="648" on="0"/>
        <pt x="19" y="659" on="1"/>
        <pt x="18" y="661" on="0"/>
        <pt x="18" y="666" on="1"/>
        <pt x="18" y="673" on="0"/>
        <pt x="24" y="679" on="1"/>
        <pt x="28" y="683" on="0"/>
        <pt x="146" y="683" on="1"/>
        <pt x="261" y="683" on="0"/>
        <pt x="266" y="679" on="1"/>
        <pt x="267" y="678" on="0"/>
        <pt x="340" y="511" on="0"/>
        <pt x="437" y="284" on="0"/>
        <pt x="464" y="217" on="1"/>
        <pt x="464" y="215" on="0"/>
        <pt x="465" y="215" on="1"/>
        <pt x="469" y="215" on="0"/>
        <pt x="566" y="443" on="1"/>
        <pt x="663" y="676" on="0"/>
        <pt x="668" y="681" on="1"/>
        <pt x="673" y="683" on="0"/>
        <pt x="790" y="683" on="1"/>
        <pt x="908" y="683" on="1"/>
        <pt x="915" y="679" on="1"/>
        <pt x="924" y="664" on="0"/>
        <pt x="915" y="655" on="1"/>
        <pt x="912" y="648" on="0"/>
        <pt x="897" y="648" on="1"/>
        <pt x="852" y="640" on="0"/>
        <pt x="839" y="615" on="1"/>
        <pt x="835" y="606" on="1"/>
        <pt x="833" y="346" on="1"/>
        <pt x="833" y="86" on="0"/>
        <pt x="835" y="79" on="1"/>
        <pt x="838" y="69" on="0"/>
        <pt x="861" y="46" on="0"/>
        <pt x="873" y="41" on="1"/>
        <pt x="877" y="40" on="0"/>
        <pt x="897" y="36" on="0"/>
        <pt x="901" y="35" on="1"/>
        <pt x="926" y="35" on="0"/>
        <pt x="926" y="16" on="1"/>
        <pt x="926" y="6" on="0"/>
        <pt x="915" y="-1" on="1"/>
        <pt x="604" y="-1" on="1"/>
        <pt x="597" y="3" on="1"/>
        <pt x="588" y="19" on="0"/>
        <pt x="597" y="28" on="1"/>
        <pt x="600" y="35" on="0"/>
        <pt x="615" y="35" on="1"/>
        <pt x="660" y="42" on="0"/>
        <pt x="673" y="68" on="1"/>
        <pt x="679" y="79" on="1"/>
        <pt x="679" y="339" on="1"/>
        <pt x="679" y="409" on="0"/>
        <pt x="679" y="477" on="0"/>
        <pt x="679" y="563" on="0"/>
        <pt x="678" y="598" on="0"/>
        <pt x="677" y="597" on="1"/>
        <pt x="646" y="521" on="0"/>
        <pt x="521" y="228" on="0"/>
        <pt x="425" y="5" on="0"/>
        <pt x="424" y="3" on="1"/>
        <pt x="416" y="-1" on="0"/>
        <pt x="404" y="-1" on="0"/>
        <pt x="401" y="1" on="1"/>
        <pt x="399" y="3" on="0"/>
        <pt x="273" y="301" on="1"/>
        <pt x="148" y="599" on="1"/>
        <pt x="146" y="343" on="1"/>
        <pt x="146" y="86" on="0"/>
        <pt x="148" y="79" on="1"/>
        <pt x="152" y="69" on="0"/>
        <pt x="174" y="46" on="0"/>
        <pt x="186" y="41" on="1"/>
        <pt x="190" y="40" on="0"/>
        <pt x="210" y="36" on="0"/>
        <pt x="215" y="35" on="1"/>
        <pt x="226" y="35" on="0"/>
        <pt x="235" y="28" on="1"/>
        <pt x="244" y="17" on="0"/>
        <pt x="235" y="3" on="1"/>
        <pt x="228" y="-1" on="1"/>
        <pt x="28" y="-1" on="1"/>
        <pt x="21" y="3" on="1"/>
        <pt x="17" y="11" on="0"/>
      </contour>
      <contour>
        <pt x="344" y="412" on="1"/>
        <pt x="244" y="648" on="1"/>
        <pt x="157" y="648" on="1"/>
        <pt x="166" y="637" on="1"/>
        <pt x="169" y="633" on="0"/>
        <pt x="293" y="346" on="1"/>
        <pt x="413" y="66" on="1"/>
        <pt x="424" y="88" on="0"/>
        <pt x="435" y="117" on="1"/>
        <pt x="457" y="166" on="1"/>
        <pt x="450" y="170" on="1"/>
        <pt x="440" y="178" on="0"/>
      </contour>
      <contour>
        <pt x="817" y="646" on="1"/>
        <pt x="817" y="648" on="0"/>
        <pt x="766" y="648" on="1"/>
        <pt x="715" y="648" on="1"/>
        <pt x="715" y="72" on="1"/>
        <pt x="708" y="57" on="1"/>
        <pt x="701" y="45" on="0"/>
        <pt x="697" y="41" on="1"/>
        <pt x="695" y="37" on="1"/>
        <pt x="695" y="35" on="0"/>
        <pt x="757" y="35" on="1"/>
        <pt x="819" y="35" on="1"/>
        <pt x="813" y="46" on="1"/>
        <pt x="802" y="61" on="0"/>
        <pt x="800" y="76" on="1"/>
        <pt x="797" y="105" on="0"/>
        <pt x="797" y="346" on="1"/>
        <pt x="799" y="612" on="1"/>
        <pt x="804" y="626" on="1"/>
        <pt x="812" y="638" on="0"/>
        <pt x="815" y="641" on="1"/>
      </contour>
      <contour>
        <pt x="124" y="42" on="1"/>
        <pt x="119" y="42" on="0"/>
        <pt x="119" y="38" on="1"/>
        <pt x="119" y="35" on="0"/>
        <pt x="128" y="35" on="1"/>
        <pt x="132" y="35" on="0"/>
        <pt x="132" y="36" on="1"/>
      </contour>
    </TTGlyph>
    <TTGlyph name="N" xMin="20" yMin="-20" xMax="702" yMax="683">
      <contour>
        <pt x="24" y="16" on="1"/>
        <pt x="24" y="27" on="0"/>
        <pt x="38" y="34" on="0"/>
        <pt x="56" y="34" on="1"/>
        <pt x="62" y="36" on="0"/>
        <pt x="82" y="38" on="0"/>
        <pt x="84" y="39" on="1"/>
        <pt x="106" y="48" on="0"/>
        <pt x="109" y="72" on="1"/>
        <pt x="111" y="83" on="0"/>
        <pt x="111" y="345" on="1"/>
        <pt x="111" y="603" on="1"/>
        <pt x="96" y="619" on="1"/>
        <pt x="72" y="643" on="0"/>
        <pt x="44" y="648" on="1"/>
        <pt x="20" y="648" on="0"/>
        <pt x="20" y="664" on="1"/>
        <pt x="20" y="669" on="0"/>
        <pt x="31" y="683" on="1"/>
        <pt x="142" y="683" on="1"/>
        <pt x="256" y="683" on="0"/>
        <pt x="258" y="681" on="1"/>
        <pt x="259" y="680" on="0"/>
        <pt x="300" y="626" on="0"/>
        <pt x="384" y="517" on="0"/>
        <pt x="422" y="468" on="1"/>
        <pt x="582" y="259" on="1"/>
        <pt x="582" y="425" on="1"/>
        <pt x="582" y="597" on="0"/>
        <pt x="580" y="608" on="1"/>
        <pt x="577" y="629" on="0"/>
        <pt x="553" y="646" on="0"/>
        <pt x="522" y="648" on="1"/>
        <pt x="500" y="648" on="0"/>
        <pt x="493" y="654" on="1"/>
        <pt x="484" y="665" on="0"/>
        <pt x="493" y="679" on="1"/>
        <pt x="500" y="683" on="1"/>
        <pt x="691" y="683" on="1"/>
        <pt x="698" y="679" on="1"/>
        <pt x="702" y="674" on="0"/>
        <pt x="702" y="666" on="1"/>
        <pt x="702" y="657" on="0"/>
        <pt x="698" y="652" on="1"/>
        <pt x="688" y="648" on="0"/>
        <pt x="680" y="648" on="1"/>
        <pt x="633" y="648" on="0"/>
        <pt x="627" y="612" on="1"/>
        <pt x="624" y="601" on="0"/>
        <pt x="624" y="294" on="1"/>
        <pt x="624" y="-8" on="1"/>
        <pt x="620" y="-15" on="1"/>
        <pt x="613" y="-20" on="0"/>
        <pt x="601" y="-20" on="0"/>
        <pt x="596" y="-15" on="1"/>
        <pt x="593" y="-13" on="0"/>
        <pt x="371" y="270" on="1"/>
        <pt x="156" y="548" on="1"/>
        <pt x="153" y="319" on="1"/>
        <pt x="153" y="85" on="0"/>
        <pt x="156" y="77" on="1"/>
        <pt x="159" y="53" on="0"/>
        <pt x="182" y="36" on="0"/>
        <pt x="213" y="34" on="1"/>
        <pt x="236" y="34" on="0"/>
        <pt x="242" y="28" on="1"/>
        <pt x="253" y="17" on="0"/>
        <pt x="242" y="3" on="1"/>
        <pt x="236" y="-1" on="1"/>
        <pt x="36" y="-1" on="1"/>
        <pt x="29" y="3" on="1"/>
        <pt x="24" y="8" on="0"/>
      </contour>
      <contour>
        <pt x="589" y="192" on="1"/>
        <pt x="425" y="402" on="0"/>
        <pt x="240" y="648" on="1"/>
        <pt x="120" y="648" on="1"/>
        <pt x="136" y="628" on="1"/>
        <pt x="137" y="626" on="0"/>
        <pt x="586" y="55" on="0"/>
        <pt x="587" y="54" on="1"/>
        <pt x="589" y="68" on="1"/>
        <pt x="589" y="78" on="0"/>
        <pt x="589" y="121" on="1"/>
      </contour>
    </TTGlyph>
    <TTGlyph name="O" xMin="34" yMin="-19" xMax="742" yMax="701">
      <contour>
        <pt x="333" y="697" on="1"/>
        <pt x="369" y="701" on="0"/>
        <pt x="387" y="701" on="1"/>
        <pt x="485" y="701" on="0"/>
        <pt x="562" y="661" on="1"/>
        <pt x="628" y="629" on="0"/>
        <pt x="715" y="520" on="0"/>
        <pt x="731" y="448" on="1"/>
        <pt x="742" y="410" on="0"/>
        <pt x="742" y="272" on="0"/>
        <pt x="731" y="234" on="1"/>
        <pt x="707" y="140" on="0"/>
        <pt x="646" y="81" on="1"/>
        <pt x="549" y="-19" on="0"/>
        <pt x="389" y="-19" on="1"/>
        <pt x="228" y="-19" on="0"/>
        <pt x="131" y="81" on="1"/>
        <pt x="57" y="155" on="0"/>
        <pt x="37" y="274" on="1"/>
        <pt x="34" y="292" on="0"/>
        <pt x="34" y="341" on="1"/>
        <pt x="34" y="392" on="0"/>
        <pt x="37" y="410" on="1"/>
        <pt x="58" y="528" on="0"/>
        <pt x="131" y="601" on="1"/>
        <pt x="205" y="678" on="0"/>
      </contour>
      <contour>
        <pt x="437" y="659" on="1"/>
        <pt x="406" y="664" on="0"/>
        <pt x="395" y="665" on="1"/>
        <pt x="329" y="665" on="0"/>
        <pt x="286" y="625" on="1"/>
        <pt x="232" y="571" on="0"/>
        <pt x="213" y="439" on="1"/>
        <pt x="210" y="408" on="0"/>
        <pt x="210" y="341" on="1"/>
        <pt x="210" y="275" on="0"/>
        <pt x="213" y="245" on="1"/>
        <pt x="232" y="111" on="0"/>
        <pt x="286" y="57" on="1"/>
        <pt x="309" y="37" on="0"/>
        <pt x="342" y="23" on="1"/>
        <pt x="357" y="19" on="0"/>
        <pt x="389" y="19" on="1"/>
        <pt x="420" y="19" on="0"/>
        <pt x="437" y="23" on="1"/>
        <pt x="469" y="38" on="0"/>
        <pt x="491" y="57" on="1"/>
        <pt x="545" y="110" on="0"/>
        <pt x="564" y="245" on="1"/>
        <pt x="568" y="285" on="0"/>
        <pt x="568" y="397" on="0"/>
        <pt x="564" y="439" on="1"/>
        <pt x="545" y="572" on="0"/>
        <pt x="491" y="625" on="1"/>
        <pt x="464" y="650" on="0"/>
      </contour>
      <contour>
        <pt x="177" y="445" on="1"/>
        <pt x="192" y="557" on="0"/>
        <pt x="249" y="639" on="1"/>
        <pt x="246" y="639" on="0"/>
        <pt x="201" y="614" on="0"/>
        <pt x="193" y="608" on="1"/>
        <pt x="189" y="606" on="0"/>
        <pt x="177" y="596" on="0"/>
        <pt x="160" y="581" on="0"/>
        <pt x="155" y="577" on="1"/>
        <pt x="97" y="518" on="0"/>
        <pt x="77" y="423" on="1"/>
        <pt x="69" y="383" on="0"/>
        <pt x="69" y="344" on="1"/>
        <pt x="69" y="132" on="0"/>
        <pt x="231" y="52" on="1"/>
        <pt x="244" y="45" on="0"/>
        <pt x="246" y="45" on="1"/>
        <pt x="248" y="45" on="0"/>
        <pt x="246" y="48" on="1"/>
        <pt x="216" y="89" on="0"/>
        <pt x="188" y="170" on="0"/>
        <pt x="177" y="239" on="1"/>
        <pt x="174" y="269" on="0"/>
        <pt x="174" y="341" on="1"/>
        <pt x="174" y="414" on="0"/>
      </contour>
      <contour>
        <pt x="582" y="610" on="1"/>
        <pt x="578" y="612" on="0"/>
        <pt x="552" y="627" on="0"/>
        <pt x="546" y="630" on="1"/>
        <pt x="533" y="637" on="0"/>
        <pt x="531" y="637" on="1"/>
        <pt x="530" y="637" on="0"/>
        <pt x="530" y="636" on="1"/>
        <pt x="530" y="635" on="1"/>
        <pt x="531" y="634" on="1"/>
        <pt x="562" y="591" on="0"/>
        <pt x="577" y="543" on="1"/>
        <pt x="602" y="471" on="0"/>
        <pt x="602" y="341" on="1"/>
        <pt x="602" y="261" on="0"/>
        <pt x="600" y="239" on="1"/>
        <pt x="592" y="174" on="0"/>
        <pt x="561" y="89" on="0"/>
        <pt x="531" y="48" on="1"/>
        <pt x="530" y="47" on="1"/>
        <pt x="530" y="46" on="1"/>
        <pt x="530" y="45" on="0"/>
        <pt x="531" y="45" on="1"/>
        <pt x="533" y="45" on="0"/>
        <pt x="546" y="52" on="1"/>
        <pt x="595" y="79" on="0"/>
        <pt x="622" y="105" on="1"/>
        <pt x="708" y="197" on="0"/>
        <pt x="708" y="341" on="1"/>
        <pt x="708" y="430" on="0"/>
        <pt x="677" y="497" on="1"/>
        <pt x="662" y="529" on="0"/>
        <pt x="610" y="592" on="0"/>
      </contour>
    </TTGlyph>
    <TTGlyph name="P" xMin="16" yMin="-1" xMax="597" yMax="683">
      <contour>
        <pt x="21" y="679" on="1"/>
        <pt x="28" y="683" on="1"/>
        <pt x="195" y="683" on="1"/>
        <pt x="334" y="683" on="0"/>
        <pt x="407" y="680" on="0"/>
        <pt x="437" y="672" on="1"/>
        <pt x="477" y="664" on="0"/>
        <pt x="515" y="643" on="1"/>
        <pt x="597" y="595" on="0"/>
        <pt x="597" y="495" on="1"/>
        <pt x="597" y="450" on="0"/>
        <pt x="581" y="421" on="1"/>
        <pt x="553" y="367" on="0"/>
        <pt x="495" y="337" on="1"/>
        <pt x="460" y="319" on="0"/>
        <pt x="401" y="308" on="1"/>
        <pt x="381" y="303" on="0"/>
        <pt x="319" y="303" on="1"/>
        <pt x="261" y="303" on="1"/>
        <pt x="261" y="181" on="1"/>
        <pt x="261" y="160" on="0"/>
        <pt x="262" y="127" on="1"/>
        <pt x="263" y="67" on="0"/>
        <pt x="266" y="46" on="0"/>
        <pt x="276" y="42" on="1"/>
        <pt x="277" y="41" on="1"/>
        <pt x="282" y="38" on="0"/>
        <pt x="313" y="35" on="1"/>
        <pt x="337" y="35" on="0"/>
        <pt x="346" y="28" on="1"/>
        <pt x="357" y="17" on="0"/>
        <pt x="346" y="3" on="1"/>
        <pt x="339" y="-1" on="1"/>
        <pt x="28" y="-1" on="1"/>
        <pt x="21" y="3" on="1"/>
        <pt x="16" y="10" on="0"/>
        <pt x="16" y="16" on="1"/>
        <pt x="16" y="21" on="0"/>
        <pt x="21" y="28" on="1"/>
        <pt x="30" y="35" on="0"/>
        <pt x="53" y="35" on="1"/>
        <pt x="68" y="36" on="0"/>
        <pt x="83" y="39" on="0"/>
        <pt x="92" y="45" on="0"/>
        <pt x="95" y="52" on="1"/>
        <pt x="98" y="61" on="0"/>
        <pt x="98" y="621" on="0"/>
        <pt x="95" y="630" on="1"/>
        <pt x="91" y="640" on="0"/>
        <pt x="75" y="646" on="0"/>
        <pt x="53" y="648" on="1"/>
        <pt x="28" y="648" on="0"/>
        <pt x="21" y="655" on="1"/>
        <pt x="16" y="660" on="0"/>
        <pt x="16" y="672" on="0"/>
      </contour>
      <contour>
        <pt x="230" y="635" on="1"/>
        <pt x="237" y="648" on="1"/>
        <pt x="128" y="648" on="1"/>
        <pt x="128" y="647" on="0"/>
        <pt x="133" y="632" on="1"/>
        <pt x="136" y="620" on="0"/>
        <pt x="136" y="341" on="1"/>
        <pt x="136" y="64" on="0"/>
        <pt x="133" y="50" on="1"/>
        <pt x="128" y="35" on="1"/>
        <pt x="235" y="35" on="1"/>
        <pt x="230" y="43" on="1"/>
        <pt x="226" y="57" on="0"/>
        <pt x="226" y="337" on="1"/>
        <pt x="226" y="621" on="1"/>
      </contour>
      <contour>
        <pt x="424" y="537" on="1"/>
        <pt x="417" y="600" on="0"/>
        <pt x="374" y="647" on="0"/>
        <pt x="322" y="647" on="1"/>
        <pt x="301" y="647" on="0"/>
        <pt x="293" y="643" on="1"/>
        <pt x="271" y="637" on="0"/>
        <pt x="264" y="621" on="1"/>
        <pt x="261" y="617" on="0"/>
        <pt x="261" y="479" on="1"/>
        <pt x="261" y="341" on="1"/>
        <pt x="301" y="341" on="1"/>
        <pt x="346" y="341" on="0"/>
        <pt x="353" y="343" on="1"/>
        <pt x="406" y="357" on="0"/>
        <pt x="419" y="423" on="1"/>
        <pt x="426" y="450" on="0"/>
        <pt x="426" y="498" on="1"/>
        <pt x="426" y="513" on="0"/>
      </contour>
      <contour>
        <pt x="484" y="619" on="1"/>
        <pt x="481" y="621" on="0"/>
        <pt x="448" y="635" on="1"/>
        <pt x="433" y="639" on="1"/>
        <pt x="439" y="621" on="1"/>
        <pt x="462" y="578" on="0"/>
        <pt x="462" y="506" on="1"/>
        <pt x="462" y="404" on="0"/>
        <pt x="433" y="361" on="1"/>
        <pt x="428" y="354" on="0"/>
        <pt x="428" y="350" on="1"/>
        <pt x="429" y="350" on="1"/>
        <pt x="438" y="350" on="0"/>
        <pt x="479" y="368" on="1"/>
        <pt x="562" y="410" on="0"/>
        <pt x="562" y="490" on="1"/>
        <pt x="562" y="551" on="0"/>
        <pt x="524" y="592" on="1"/>
        <pt x="507" y="607" on="0"/>
      </contour>
    </TTGlyph>
    <TTGlyph name="Q" xMin="34" yMin="-181" xMax="742" yMax="701">
      <contour>
        <pt x="333" y="697" on="1"/>
        <pt x="357" y="701" on="0"/>
        <pt x="388" y="701" on="1"/>
        <pt x="485" y="701" on="0"/>
        <pt x="562" y="661" on="1"/>
        <pt x="698" y="595" on="0"/>
        <pt x="731" y="448" on="1"/>
        <pt x="742" y="410" on="0"/>
        <pt x="742" y="272" on="0"/>
        <pt x="731" y="235" on="1"/>
        <pt x="707" y="141" on="0"/>
        <pt x="646" y="81" on="1"/>
        <pt x="616" y="50" on="0"/>
        <pt x="533" y="3" on="0"/>
        <pt x="493" y="-5" on="1"/>
        <pt x="480" y="-10" on="1"/>
        <pt x="480" y="-17" on="0"/>
        <pt x="504" y="-48" on="1"/>
        <pt x="529" y="-77" on="0"/>
        <pt x="606" y="-114" on="0"/>
        <pt x="648" y="-114" on="1"/>
        <pt x="672" y="-114" on="0"/>
        <pt x="697" y="-108" on="1"/>
        <pt x="717" y="-105" on="0"/>
        <pt x="722" y="-108" on="1"/>
        <pt x="735" y="-116" on="0"/>
        <pt x="723" y="-144" on="0"/>
        <pt x="669" y="-161" on="1"/>
        <pt x="609" y="-181" on="0"/>
        <pt x="548" y="-181" on="1"/>
        <pt x="426" y="-181" on="0"/>
        <pt x="342" y="-97" on="1"/>
        <pt x="308" y="-63" on="0"/>
        <pt x="284" y="-19" on="1"/>
        <pt x="280" y="-3" on="1"/>
        <pt x="262" y="1" on="1"/>
        <pt x="188" y="24" on="0"/>
        <pt x="131" y="81" on="1"/>
        <pt x="57" y="155" on="0"/>
        <pt x="37" y="275" on="1"/>
        <pt x="34" y="292" on="0"/>
        <pt x="34" y="392" on="0"/>
        <pt x="37" y="410" on="1"/>
        <pt x="58" y="528" on="0"/>
        <pt x="131" y="601" on="1"/>
        <pt x="206" y="680" on="0"/>
      </contour>
      <contour>
        <pt x="437" y="659" on="1"/>
        <pt x="395" y="666" on="1"/>
        <pt x="329" y="666" on="0"/>
        <pt x="286" y="626" on="1"/>
        <pt x="232" y="570" on="0"/>
        <pt x="213" y="439" on="1"/>
        <pt x="210" y="408" on="0"/>
        <pt x="210" y="276" on="0"/>
        <pt x="213" y="246" on="1"/>
        <pt x="231" y="113" on="0"/>
        <pt x="286" y="57" on="1"/>
        <pt x="309" y="37" on="0"/>
        <pt x="342" y="23" on="1"/>
        <pt x="357" y="19" on="0"/>
        <pt x="389" y="19" on="1"/>
        <pt x="420" y="19" on="0"/>
        <pt x="437" y="23" on="1"/>
        <pt x="469" y="38" on="0"/>
        <pt x="491" y="57" on="1"/>
        <pt x="545" y="111" on="0"/>
        <pt x="564" y="246" on="1"/>
        <pt x="568" y="286" on="0"/>
        <pt x="568" y="342" on="1"/>
        <pt x="568" y="397" on="0"/>
        <pt x="564" y="439" on="1"/>
        <pt x="545" y="572" on="0"/>
        <pt x="491" y="626" on="1"/>
        <pt x="463" y="650" on="0"/>
      </contour>
      <contour>
        <pt x="246" y="635" on="1"/>
        <pt x="249" y="639" on="1"/>
        <pt x="246" y="639" on="0"/>
        <pt x="201" y="614" on="0"/>
        <pt x="193" y="608" on="1"/>
        <pt x="189" y="606" on="0"/>
        <pt x="177" y="596" on="0"/>
        <pt x="160" y="581" on="0"/>
        <pt x="155" y="577" on="1"/>
        <pt x="98" y="520" on="0"/>
        <pt x="77" y="423" on="1"/>
        <pt x="69" y="383" on="0"/>
        <pt x="69" y="344" on="1"/>
        <pt x="69" y="133" on="0"/>
        <pt x="231" y="52" on="1"/>
        <pt x="247" y="42" on="0"/>
        <pt x="247" y="46" on="1"/>
        <pt x="247" y="46" on="0"/>
        <pt x="246" y="48" on="1"/>
        <pt x="216" y="89" on="0"/>
        <pt x="188" y="170" on="0"/>
        <pt x="177" y="239" on="1"/>
        <pt x="174" y="269" on="0"/>
        <pt x="174" y="413" on="0"/>
        <pt x="177" y="446" on="1"/>
        <pt x="193" y="558" on="0"/>
      </contour>
      <contour>
        <pt x="582" y="610" on="1"/>
        <pt x="579" y="611" on="0"/>
        <pt x="564" y="621" on="0"/>
        <pt x="551" y="628" on="0"/>
        <pt x="546" y="630" on="1"/>
        <pt x="532" y="638" on="0"/>
        <pt x="531" y="638" on="1"/>
        <pt x="530" y="638" on="0"/>
        <pt x="531" y="635" on="1"/>
        <pt x="563" y="590" on="0"/>
        <pt x="577" y="543" on="1"/>
        <pt x="602" y="472" on="0"/>
        <pt x="602" y="341" on="1"/>
        <pt x="602" y="261" on="0"/>
        <pt x="600" y="239" on="1"/>
        <pt x="592" y="174" on="0"/>
        <pt x="561" y="89" on="0"/>
        <pt x="531" y="48" on="1"/>
        <pt x="529" y="44" on="0"/>
        <pt x="536" y="46" on="0"/>
        <pt x="546" y="52" on="1"/>
        <pt x="595" y="79" on="0"/>
        <pt x="622" y="106" on="1"/>
        <pt x="708" y="197" on="0"/>
        <pt x="708" y="341" on="1"/>
        <pt x="708" y="430" on="0"/>
        <pt x="677" y="497" on="1"/>
        <pt x="661" y="530" on="0"/>
        <pt x="610" y="593" on="0"/>
      </contour>
      <contour>
        <pt x="391" y="-17" on="1"/>
        <pt x="333" y="-17" on="1"/>
        <pt x="329" y="-15" on="0"/>
        <pt x="326" y="-15" on="1"/>
        <pt x="324" y="-15" on="0"/>
        <pt x="324" y="-17" on="1"/>
        <pt x="324" y="-21" on="0"/>
        <pt x="362" y="-68" on="1"/>
        <pt x="424" y="-130" on="0"/>
        <pt x="506" y="-143" on="1"/>
        <pt x="518" y="-144" on="0"/>
        <pt x="544" y="-144" on="1"/>
        <pt x="569" y="-144" on="0"/>
        <pt x="577" y="-143" on="1"/>
        <pt x="589" y="-141" on="1"/>
        <pt x="575" y="-139" on="1"/>
        <pt x="539" y="-125" on="0"/>
        <pt x="471" y="-70" on="0"/>
        <pt x="453" y="-37" on="1"/>
        <pt x="442" y="-19" on="1"/>
      </contour>
    </TTGlyph>
    <TTGlyph name="R" xMin="16" yMin="-1" xMax="705" yMax="683">
      <contour>
        <pt x="17" y="665" on="1"/>
        <pt x="17" y="672" on="0"/>
        <pt x="28" y="683" on="1"/>
        <pt x="221" y="683" on="1"/>
        <pt x="415" y="681" on="0"/>
        <pt x="439" y="677" on="1"/>
        <pt x="563" y="653" on="0"/>
        <pt x="608" y="577" on="1"/>
        <pt x="621" y="548" on="1"/>
        <pt x="626" y="530" on="0"/>
        <pt x="626" y="497" on="1"/>
        <pt x="626" y="447" on="0"/>
        <pt x="613" y="419" on="1"/>
        <pt x="578" y="348" on="0"/>
        <pt x="473" y="326" on="1"/>
        <pt x="455" y="321" on="1"/>
        <pt x="455" y="313" on="0"/>
        <pt x="566" y="157" on="1"/>
        <pt x="650" y="44" on="0"/>
        <pt x="686" y="35" on="1"/>
        <pt x="705" y="30" on="0"/>
        <pt x="705" y="16" on="1"/>
        <pt x="705" y="7" on="0"/>
        <pt x="693" y="-1" on="1"/>
        <pt x="510" y="-1" on="1"/>
        <pt x="503" y="6" on="0"/>
        <pt x="404" y="159" on="1"/>
        <pt x="306" y="310" on="1"/>
        <pt x="268" y="310" on="1"/>
        <pt x="268" y="183" on="1"/>
        <pt x="270" y="74" on="0"/>
        <pt x="272" y="46" on="0"/>
        <pt x="284" y="41" on="1"/>
        <pt x="288" y="38" on="0"/>
        <pt x="319" y="35" on="1"/>
        <pt x="344" y="35" on="0"/>
        <pt x="353" y="28" on="1"/>
        <pt x="362" y="17" on="0"/>
        <pt x="353" y="3" on="1"/>
        <pt x="346" y="-1" on="1"/>
        <pt x="28" y="-1" on="1"/>
        <pt x="21" y="3" on="1"/>
        <pt x="16" y="10" on="0"/>
        <pt x="16" y="16" on="1"/>
        <pt x="16" y="21" on="0"/>
        <pt x="21" y="28" on="1"/>
        <pt x="30" y="35" on="0"/>
        <pt x="55" y="35" on="1"/>
        <pt x="96" y="38" on="0"/>
        <pt x="101" y="52" on="1"/>
        <pt x="106" y="60" on="0"/>
        <pt x="106" y="622" on="0"/>
        <pt x="101" y="632" on="1"/>
        <pt x="95" y="645" on="0"/>
        <pt x="55" y="648" on="1"/>
        <pt x="28" y="648" on="0"/>
        <pt x="21" y="655" on="1"/>
        <pt x="17" y="659" on="0"/>
      </contour>
      <contour>
        <pt x="237" y="635" on="1"/>
        <pt x="244" y="648" on="1"/>
        <pt x="133" y="648" on="1"/>
        <pt x="137" y="639" on="1"/>
        <pt x="141" y="625" on="0"/>
        <pt x="141" y="57" on="0"/>
        <pt x="137" y="43" on="1"/>
        <pt x="133" y="35" on="1"/>
        <pt x="241" y="35" on="1"/>
        <pt x="237" y="43" on="1"/>
        <pt x="233" y="57" on="0"/>
        <pt x="233" y="337" on="1"/>
        <pt x="233" y="621" on="1"/>
      </contour>
      <contour>
        <pt x="457" y="496" on="1"/>
        <pt x="457" y="621" on="0"/>
        <pt x="377" y="643" on="1"/>
        <pt x="374" y="643" on="0"/>
        <pt x="339" y="648" on="1"/>
        <pt x="300" y="648" on="0"/>
        <pt x="281" y="635" on="1"/>
        <pt x="271" y="628" on="0"/>
        <pt x="268" y="591" on="0"/>
        <pt x="268" y="481" on="1"/>
        <pt x="268" y="346" on="1"/>
        <pt x="284" y="346" on="1"/>
        <pt x="327" y="346" on="0"/>
        <pt x="375" y="352" on="1"/>
        <pt x="424" y="365" on="0"/>
        <pt x="457" y="424" on="0"/>
      </contour>
      <contour>
        <pt x="477" y="630" on="1"/>
        <pt x="457" y="637" on="1"/>
        <pt x="461" y="626" on="1"/>
        <pt x="474" y="611" on="0"/>
        <pt x="488" y="561" on="1"/>
        <pt x="492" y="537" on="0"/>
        <pt x="492" y="496" on="1"/>
        <pt x="492" y="456" on="0"/>
        <pt x="488" y="428" on="1"/>
        <pt x="484" y="391" on="0"/>
        <pt x="468" y="370" on="1"/>
        <pt x="464" y="366" on="0"/>
        <pt x="464" y="361" on="1"/>
        <pt x="464" y="360" on="0"/>
        <pt x="465" y="360" on="1"/>
        <pt x="469" y="360" on="0"/>
        <pt x="497" y="370" on="1"/>
        <pt x="593" y="400" on="0"/>
        <pt x="593" y="495" on="1"/>
        <pt x="593" y="592" on="0"/>
      </contour>
      <contour>
        <pt x="464" y="243" on="1"/>
        <pt x="411" y="317" on="0"/>
        <pt x="410" y="317" on="1"/>
        <pt x="404" y="317" on="0"/>
        <pt x="401" y="315" on="1"/>
        <pt x="384" y="315" on="0"/>
        <pt x="370" y="312" on="1"/>
        <pt x="346" y="312" on="1"/>
        <pt x="376" y="266" on="0"/>
        <pt x="496" y="81" on="0"/>
        <pt x="526" y="35" on="1"/>
        <pt x="619" y="35" on="1"/>
        <pt x="606" y="50" on="1"/>
        <pt x="553" y="109" on="0"/>
      </contour>
    </TTGlyph>
    <TTGlyph name="S" xMin="28" yMin="-12" xMax="528" yMax="702">
      <contour>
        <pt x="528" y="191" on="1"/>
        <pt x="528" y="97" on="0"/>
        <pt x="376" y="-10" on="0"/>
        <pt x="266" y="-10" on="1"/>
        <pt x="231" y="-10" on="0"/>
        <pt x="203" y="-6" on="0"/>
        <pt x="172" y="4" on="1"/>
        <pt x="144" y="15" on="0"/>
        <pt x="110" y="15" on="1"/>
        <pt x="86" y="9" on="0"/>
        <pt x="70" y="-3" on="1"/>
        <pt x="61" y="-12" on="0"/>
        <pt x="53" y="-12" on="1"/>
        <pt x="46" y="-12" on="0"/>
        <pt x="41" y="-8" on="1"/>
        <pt x="37" y="-1" on="1"/>
        <pt x="37" y="112" on="1"/>
        <pt x="37" y="226" on="0"/>
        <pt x="41" y="230" on="1"/>
        <pt x="48" y="240" on="0"/>
        <pt x="61" y="237" on="1"/>
        <pt x="72" y="234" on="0"/>
        <pt x="72" y="212" on="1"/>
        <pt x="72" y="174" on="0"/>
        <pt x="106" y="121" on="1"/>
        <pt x="113" y="110" on="0"/>
        <pt x="152" y="69" on="0"/>
        <pt x="166" y="59" on="1"/>
        <pt x="221" y="23" on="0"/>
        <pt x="264" y="23" on="1"/>
        <pt x="315" y="23" on="0"/>
        <pt x="348" y="41" on="1"/>
        <pt x="368" y="50" on="0"/>
        <pt x="384" y="79" on="1"/>
        <pt x="393" y="102" on="0"/>
        <pt x="393" y="129" on="1"/>
        <pt x="393" y="151" on="0"/>
        <pt x="386" y="172" on="1"/>
        <pt x="373" y="208" on="0"/>
        <pt x="295" y="267" on="0"/>
        <pt x="221" y="299" on="1"/>
        <pt x="120" y="343" on="0"/>
        <pt x="28" y="438" on="0"/>
        <pt x="28" y="501" on="1"/>
        <pt x="28" y="561" on="0"/>
        <pt x="55" y="610" on="1"/>
        <pt x="98" y="682" on="0"/>
        <pt x="212" y="699" on="1"/>
        <pt x="214" y="699" on="0"/>
        <pt x="249" y="701" on="0"/>
        <pt x="261" y="701" on="1"/>
        <pt x="308" y="698" on="0"/>
        <pt x="348" y="684" on="1"/>
        <pt x="371" y="675" on="0"/>
        <pt x="408" y="675" on="1"/>
        <pt x="432" y="679" on="0"/>
        <pt x="448" y="692" on="1"/>
        <pt x="457" y="702" on="0"/>
        <pt x="465" y="702" on="1"/>
        <pt x="470" y="702" on="0"/>
        <pt x="477" y="697" on="1"/>
        <pt x="481" y="690" on="1"/>
        <pt x="481" y="497" on="1"/>
        <pt x="477" y="490" on="1"/>
        <pt x="464" y="481" on="0"/>
        <pt x="450" y="490" on="1"/>
        <pt x="446" y="500" on="0"/>
        <pt x="446" y="501" on="1"/>
        <pt x="446" y="504" on="0"/>
        <pt x="441" y="524" on="1"/>
        <pt x="426" y="571" on="0"/>
        <pt x="330" y="655" on="0"/>
        <pt x="281" y="664" on="1"/>
        <pt x="267" y="666" on="0"/>
        <pt x="260" y="666" on="1"/>
        <pt x="213" y="666" on="0"/>
        <pt x="148" y="611" on="0"/>
        <pt x="148" y="565" on="1"/>
        <pt x="148" y="560" on="0"/>
        <pt x="150" y="550" on="1"/>
        <pt x="157" y="518" on="0"/>
        <pt x="235" y="461" on="0"/>
        <pt x="319" y="428" on="1"/>
        <pt x="392" y="397" on="0"/>
        <pt x="479" y="334" on="0"/>
        <pt x="506" y="284" on="1"/>
        <pt x="528" y="239" on="0"/>
      </contour>
      <contour>
        <pt x="446" y="619" on="1"/>
        <pt x="446" y="648" on="0"/>
        <pt x="444" y="648" on="1"/>
        <pt x="439" y="646" on="0"/>
        <pt x="435" y="644" on="1"/>
        <pt x="425" y="644" on="0"/>
        <pt x="415" y="639" on="1"/>
        <pt x="404" y="639" on="1"/>
        <pt x="417" y="624" on="1"/>
        <pt x="435" y="606" on="0"/>
        <pt x="439" y="601" on="1"/>
        <pt x="446" y="592" on="1"/>
      </contour>
      <contour>
        <pt x="124" y="619" on="1"/>
        <pt x="128" y="635" on="1"/>
        <pt x="126" y="635" on="0"/>
        <pt x="108" y="617" on="1"/>
        <pt x="64" y="576" on="0"/>
        <pt x="64" y="502" on="1"/>
        <pt x="64" y="452" on="0"/>
        <pt x="104" y="412" on="1"/>
        <pt x="145" y="371" on="0"/>
        <pt x="228" y="335" on="1"/>
        <pt x="317" y="298" on="0"/>
        <pt x="403" y="230" on="0"/>
        <pt x="419" y="184" on="1"/>
        <pt x="427" y="163" on="0"/>
        <pt x="427" y="128" on="1"/>
        <pt x="427" y="94" on="0"/>
        <pt x="419" y="75" on="1"/>
        <pt x="415" y="61" on="1"/>
        <pt x="421" y="61" on="0"/>
        <pt x="448" y="88" on="1"/>
        <pt x="490" y="127" on="0"/>
        <pt x="490" y="190" on="1"/>
        <pt x="490" y="233" on="0"/>
        <pt x="475" y="264" on="1"/>
        <pt x="456" y="299" on="0"/>
        <pt x="430" y="321" on="1"/>
        <pt x="391" y="360" on="0"/>
        <pt x="306" y="395" on="1"/>
        <pt x="244" y="419" on="0"/>
        <pt x="204" y="441" on="1"/>
        <pt x="138" y="481" on="0"/>
        <pt x="119" y="526" on="1"/>
        <pt x="113" y="544" on="0"/>
        <pt x="113" y="565" on="1"/>
        <pt x="113" y="596" on="0"/>
      </contour>
      <contour>
        <pt x="84" y="90" on="1"/>
        <pt x="82" y="92" on="0"/>
        <pt x="78" y="97" on="1"/>
        <pt x="75" y="101" on="0"/>
        <pt x="74" y="101" on="1"/>
        <pt x="72" y="101" on="0"/>
        <pt x="72" y="43" on="0"/>
        <pt x="75" y="43" on="1"/>
        <pt x="76" y="43" on="0"/>
        <pt x="77" y="44" on="1"/>
        <pt x="104" y="50" on="0"/>
        <pt x="110" y="50" on="1"/>
        <pt x="119" y="50" on="1"/>
        <pt x="106" y="64" on="1"/>
        <pt x="104" y="67" on="0"/>
        <pt x="87" y="87" on="0"/>
      </contour>
    </TTGlyph>
    <TTGlyph name="SF010000" xMin="55" yMin="306" xMax="444" yMax="694">
      <contour>
        <pt x="68" y="692" on="1"/>
        <pt x="71" y="694" on="0"/>
        <pt x="250" y="694" on="1"/>
        <pt x="428" y="694" on="0"/>
        <pt x="432" y="692" on="1"/>
        <pt x="444" y="686" on="0"/>
        <pt x="444" y="662" on="0"/>
        <pt x="432" y="656" on="1"/>
        <pt x="428" y="654" on="0"/>
        <pt x="261" y="654" on="1"/>
        <pt x="95" y="654" on="1"/>
        <pt x="95" y="487" on="1"/>
        <pt x="95" y="355" on="0"/>
        <pt x="94" y="316" on="0"/>
        <pt x="90" y="312" on="1"/>
        <pt x="84" y="306" on="0"/>
        <pt x="76" y="306" on="1"/>
        <pt x="67" y="306" on="0"/>
        <pt x="61" y="312" on="1"/>
        <pt x="56" y="317" on="0"/>
        <pt x="55" y="359" on="0"/>
        <pt x="55" y="641" on="0"/>
        <pt x="56" y="683" on="0"/>
        <pt x="61" y="688" on="1"/>
        <pt x="64" y="690" on="0"/>
      </contour>
    </TTGlyph>
    <TTGlyph name="SF020000" xMin="55" yMin="-22" xMax="444" yMax="366">
      <contour>
        <pt x="76" y="366" on="1"/>
        <pt x="88" y="366" on="0"/>
        <pt x="95" y="351" on="1"/>
        <pt x="95" y="18" on="1"/>
        <pt x="261" y="18" on="1"/>
        <pt x="428" y="18" on="0"/>
        <pt x="432" y="16" on="1"/>
        <pt x="444" y="10" on="0"/>
        <pt x="444" y="-14" on="0"/>
        <pt x="432" y="-20" on="1"/>
        <pt x="428" y="-22" on="0"/>
        <pt x="250" y="-22" on="1"/>
        <pt x="71" y="-22" on="0"/>
        <pt x="68" y="-20" on="1"/>
        <pt x="64" y="-18" on="0"/>
        <pt x="61" y="-16" on="1"/>
        <pt x="56" y="-11" on="0"/>
        <pt x="55" y="31" on="0"/>
        <pt x="55" y="313" on="0"/>
        <pt x="56" y="355" on="0"/>
        <pt x="61" y="360" on="1"/>
        <pt x="67" y="366" on="0"/>
      </contour>
    </TTGlyph>
    <TTGlyph name="SF030000" xMin="55" yMin="306" xMax="444" yMax="694">
      <contour>
        <pt x="424" y="306" on="1"/>
        <pt x="413" y="306" on="0"/>
        <pt x="404" y="321" on="1"/>
        <pt x="404" y="654" on="1"/>
        <pt x="238" y="654" on="1"/>
        <pt x="71" y="654" on="0"/>
        <pt x="68" y="656" on="1"/>
        <pt x="55" y="662" on="0"/>
        <pt x="55" y="686" on="0"/>
        <pt x="68" y="692" on="1"/>
        <pt x="71" y="694" on="0"/>
        <pt x="250" y="694" on="1"/>
        <pt x="428" y="694" on="0"/>
        <pt x="436" y="690" on="0"/>
        <pt x="438" y="688" on="1"/>
        <pt x="443" y="683" on="0"/>
        <pt x="444" y="641" on="0"/>
        <pt x="444" y="359" on="0"/>
        <pt x="443" y="317" on="0"/>
        <pt x="438" y="312" on="1"/>
        <pt x="432" y="306" on="0"/>
      </contour>
    </TTGlyph>
    <TTGlyph name="SF040000" xMin="55" yMin="-22" xMax="444" yMax="366">
      <contour>
        <pt x="404" y="351" on="1"/>
        <pt x="413" y="366" on="0"/>
        <pt x="424" y="366" on="1"/>
        <pt x="432" y="366" on="0"/>
        <pt x="438" y="360" on="1"/>
        <pt x="443" y="355" on="0"/>
        <pt x="444" y="313" on="0"/>
        <pt x="444" y="31" on="0"/>
        <pt x="443" y="-11" on="0"/>
        <pt x="438" y="-16" on="1"/>
        <pt x="436" y="-18" on="0"/>
        <pt x="428" y="-22" on="0"/>
        <pt x="250" y="-22" on="1"/>
        <pt x="71" y="-22" on="0"/>
        <pt x="68" y="-20" on="1"/>
        <pt x="55" y="-14" on="0"/>
        <pt x="55" y="10" on="0"/>
        <pt x="68" y="16" on="1"/>
        <pt x="71" y="18" on="0"/>
        <pt x="238" y="18" on="1"/>
        <pt x="404" y="18" on="1"/>
      </contour>
    </TTGlyph>
    <TTGlyph name="T" xMin="33" yMin="-1" xMax="635" yMax="683">
      <contour>
        <pt x="33" y="672" on="1"/>
        <pt x="36" y="680" on="0"/>
        <pt x="44" y="683" on="1"/>
        <pt x="624" y="683" on="1"/>
        <pt x="632" y="680" on="0"/>
        <pt x="635" y="672" on="1"/>
        <pt x="635" y="490" on="1"/>
        <pt x="631" y="483" on="1"/>
        <pt x="621" y="479" on="0"/>
        <pt x="617" y="479" on="1"/>
        <pt x="611" y="479" on="0"/>
        <pt x="600" y="491" on="0"/>
        <pt x="600" y="499" on="1"/>
        <pt x="600" y="525" on="0"/>
        <pt x="584" y="552" on="1"/>
        <pt x="577" y="567" on="0"/>
        <pt x="539" y="609" on="0"/>
        <pt x="524" y="617" on="1"/>
        <pt x="479" y="642" on="0"/>
        <pt x="426" y="646" on="1"/>
        <pt x="415" y="648" on="1"/>
        <pt x="415" y="355" on="1"/>
        <pt x="415" y="62" on="0"/>
        <pt x="422" y="52" on="1"/>
        <pt x="425" y="42" on="0"/>
        <pt x="444" y="37" on="0"/>
        <pt x="473" y="35" on="1"/>
        <pt x="500" y="35" on="0"/>
        <pt x="509" y="28" on="1"/>
        <pt x="518" y="17" on="0"/>
        <pt x="509" y="3" on="1"/>
        <pt x="502" y="-1" on="1"/>
        <pt x="166" y="-1" on="1"/>
        <pt x="160" y="3" on="1"/>
        <pt x="149" y="17" on="0"/>
        <pt x="160" y="28" on="1"/>
        <pt x="167" y="35" on="0"/>
        <pt x="195" y="35" on="1"/>
        <pt x="224" y="37" on="0"/>
        <pt x="244" y="42" on="0"/>
        <pt x="249" y="52" on="1"/>
        <pt x="253" y="66" on="0"/>
        <pt x="253" y="355" on="1"/>
        <pt x="253" y="648" on="1"/>
        <pt x="242" y="646" on="1"/>
        <pt x="192" y="642" on="0"/>
        <pt x="144" y="617" on="1"/>
        <pt x="129" y="609" on="0"/>
        <pt x="91" y="567" on="0"/>
        <pt x="84" y="552" on="1"/>
        <pt x="69" y="527" on="0"/>
        <pt x="69" y="499" on="1"/>
        <pt x="69" y="490" on="0"/>
        <pt x="58" y="478" on="0"/>
        <pt x="50" y="478" on="1"/>
        <pt x="44" y="478" on="0"/>
        <pt x="37" y="483" on="1"/>
        <pt x="33" y="490" on="1"/>
      </contour>
      <contour>
        <pt x="113" y="639" on="1"/>
        <pt x="126" y="648" on="1"/>
        <pt x="69" y="648" on="1"/>
        <pt x="69" y="597" on="1"/>
        <pt x="84" y="612" on="1"/>
        <pt x="93" y="623" on="0"/>
      </contour>
      <contour>
        <pt x="380" y="350" on="1"/>
        <pt x="380" y="648" on="1"/>
        <pt x="289" y="648" on="1"/>
        <pt x="289" y="350" on="1"/>
        <pt x="289" y="66" on="0"/>
        <pt x="284" y="43" on="1"/>
        <pt x="280" y="35" on="1"/>
        <pt x="389" y="35" on="1"/>
        <pt x="384" y="43" on="1"/>
        <pt x="380" y="61" on="0"/>
      </contour>
      <contour>
        <pt x="600" y="597" on="1"/>
        <pt x="600" y="648" on="1"/>
        <pt x="542" y="648" on="1"/>
        <pt x="555" y="639" on="1"/>
        <pt x="575" y="623" on="0"/>
        <pt x="584" y="612" on="1"/>
      </contour>
    </TTGlyph>
    <TTGlyph name="U" xMin="16" yMin="-19" xMax="709" yMax="683">
      <contour>
        <pt x="697" y="683" on="1"/>
        <pt x="709" y="675" on="0"/>
        <pt x="709" y="659" on="0"/>
        <pt x="698" y="648" on="0"/>
        <pt x="690" y="648" on="1"/>
        <pt x="653" y="648" on="0"/>
        <pt x="633" y="597" on="1"/>
        <pt x="624" y="573" on="0"/>
        <pt x="620" y="519" on="0"/>
        <pt x="619" y="377" on="1"/>
        <pt x="617" y="193" on="0"/>
        <pt x="613" y="174" on="1"/>
        <pt x="596" y="95" on="0"/>
        <pt x="544" y="41" on="1"/>
        <pt x="477" y="-19" on="0"/>
        <pt x="355" y="-19" on="1"/>
        <pt x="344" y="-19" on="1"/>
        <pt x="221" y="-13" on="0"/>
        <pt x="159" y="52" on="1"/>
        <pt x="118" y="94" on="0"/>
        <pt x="106" y="154" on="1"/>
        <pt x="101" y="172" on="0"/>
        <pt x="99" y="399" on="1"/>
        <pt x="99" y="618" on="0"/>
        <pt x="95" y="632" on="1"/>
        <pt x="88" y="644" on="0"/>
        <pt x="53" y="648" on="1"/>
        <pt x="29" y="648" on="0"/>
        <pt x="21" y="654" on="1"/>
        <pt x="16" y="661" on="0"/>
        <pt x="16" y="666" on="1"/>
        <pt x="16" y="672" on="0"/>
        <pt x="21" y="679" on="1"/>
        <pt x="28" y="683" on="1"/>
        <pt x="341" y="683" on="1"/>
        <pt x="348" y="679" on="1"/>
        <pt x="359" y="665" on="0"/>
        <pt x="348" y="654" on="1"/>
        <pt x="342" y="648" on="0"/>
        <pt x="315" y="648" on="1"/>
        <pt x="270" y="644" on="0"/>
        <pt x="266" y="632" on="1"/>
        <pt x="262" y="627" on="0"/>
        <pt x="261" y="568" on="0"/>
        <pt x="261" y="399" on="1"/>
        <pt x="261" y="218" on="0"/>
        <pt x="263" y="147" on="0"/>
        <pt x="270" y="117" on="1"/>
        <pt x="286" y="50" on="0"/>
        <pt x="339" y="30" on="1"/>
        <pt x="355" y="25" on="0"/>
        <pt x="393" y="25" on="1"/>
        <pt x="444" y="25" on="0"/>
        <pt x="481" y="43" on="1"/>
        <pt x="497" y="50" on="0"/>
        <pt x="541" y="94" on="0"/>
        <pt x="550" y="114" on="1"/>
        <pt x="568" y="154" on="0"/>
        <pt x="575" y="205" on="1"/>
        <pt x="576" y="219" on="0"/>
        <pt x="576" y="379" on="1"/>
        <pt x="576" y="538" on="0"/>
        <pt x="575" y="550" on="1"/>
        <pt x="568" y="597" on="0"/>
        <pt x="532" y="648" on="0"/>
        <pt x="506" y="648" on="1"/>
        <pt x="498" y="648" on="0"/>
        <pt x="487" y="660" on="0"/>
        <pt x="487" y="667" on="1"/>
        <pt x="487" y="675" on="0"/>
        <pt x="499" y="683" on="1"/>
      </contour>
      <contour>
        <pt x="228" y="639" on="1"/>
        <pt x="233" y="648" on="1"/>
        <pt x="128" y="648" on="1"/>
        <pt x="128" y="647" on="0"/>
        <pt x="133" y="632" on="1"/>
        <pt x="135" y="621" on="0"/>
        <pt x="135" y="412" on="1"/>
        <pt x="135" y="197" on="0"/>
        <pt x="137" y="185" on="1"/>
        <pt x="148" y="115" on="0"/>
        <pt x="181" y="79" on="1"/>
        <pt x="209" y="51" on="0"/>
        <pt x="235" y="41" on="1"/>
        <pt x="242" y="36" on="0"/>
        <pt x="275" y="25" on="0"/>
        <pt x="277" y="25" on="1"/>
        <pt x="273" y="32" on="0"/>
        <pt x="266" y="41" on="1"/>
        <pt x="239" y="77" on="0"/>
        <pt x="228" y="145" on="1"/>
        <pt x="226" y="161" on="0"/>
        <pt x="226" y="399" on="1"/>
        <pt x="226" y="632" on="0"/>
      </contour>
      <contour>
        <pt x="604" y="621" on="1"/>
        <pt x="619" y="648" on="1"/>
        <pt x="577" y="648" on="1"/>
        <pt x="586" y="634" on="1"/>
        <pt x="587" y="632" on="0"/>
        <pt x="595" y="617" on="0"/>
        <pt x="595" y="614" on="1"/>
        <pt x="597" y="608" on="1"/>
      </contour>
    </TTGlyph>
    <TTGlyph name="V" xMin="0" yMin="-20" xMax="719" yMax="683">
      <contour>
        <pt x="547" y="590" on="1"/>
        <pt x="547" y="619" on="0"/>
        <pt x="535" y="644" on="0"/>
        <pt x="516" y="648" on="1"/>
        <pt x="501" y="648" on="0"/>
        <pt x="498" y="654" on="1"/>
        <pt x="488" y="664" on="0"/>
        <pt x="498" y="679" on="1"/>
        <pt x="504" y="683" on="1"/>
        <pt x="607" y="683" on="1"/>
        <pt x="686" y="683" on="0"/>
        <pt x="713" y="680" on="0"/>
        <pt x="718" y="672" on="1"/>
        <pt x="719" y="670" on="0"/>
        <pt x="719" y="667" on="1"/>
        <pt x="719" y="660" on="0"/>
        <pt x="708" y="648" on="0"/>
        <pt x="700" y="648" on="1"/>
        <pt x="678" y="648" on="0"/>
        <pt x="658" y="628" on="1"/>
        <pt x="642" y="614" on="1"/>
        <pt x="513" y="301" on="1"/>
        <pt x="484" y="231" on="0"/>
        <pt x="413" y="64" on="0"/>
        <pt x="381" y="-14" on="0"/>
        <pt x="380" y="-15" on="1"/>
        <pt x="373" y="-20" on="0"/>
        <pt x="368" y="-20" on="1"/>
        <pt x="361" y="-20" on="0"/>
        <pt x="358" y="-15" on="1"/>
        <pt x="354" y="-13" on="0"/>
        <pt x="220" y="283" on="0"/>
        <pt x="78" y="594" on="0"/>
        <pt x="67" y="610" on="1"/>
        <pt x="45" y="648" on="0"/>
        <pt x="18" y="648" on="1"/>
        <pt x="11" y="648" on="0"/>
        <pt x="0" y="659" on="0"/>
        <pt x="0" y="673" on="0"/>
        <pt x="7" y="679" on="1"/>
        <pt x="11" y="683" on="0"/>
        <pt x="164" y="683" on="1"/>
        <pt x="316" y="683" on="1"/>
        <pt x="322" y="679" on="1"/>
        <pt x="327" y="673" on="0"/>
        <pt x="327" y="666" on="1"/>
        <pt x="327" y="648" on="0"/>
        <pt x="302" y="648" on="1"/>
        <pt x="272" y="642" on="0"/>
        <pt x="258" y="628" on="1"/>
        <pt x="249" y="621" on="0"/>
        <pt x="249" y="608" on="1"/>
        <pt x="263" y="530" on="0"/>
        <pt x="384" y="263" on="1"/>
        <pt x="394" y="243" on="0"/>
        <pt x="415" y="193" on="0"/>
        <pt x="420" y="185" on="1"/>
        <pt x="423" y="185" on="0"/>
        <pt x="473" y="317" on="1"/>
        <pt x="524" y="443" on="0"/>
        <pt x="542" y="534" on="1"/>
        <pt x="547" y="555" on="0"/>
      </contour>
      <contour>
        <pt x="216" y="614" on="1"/>
        <pt x="216" y="622" on="0"/>
        <pt x="216" y="631" on="0"/>
        <pt x="218" y="638" on="0"/>
        <pt x="218" y="639" on="0"/>
        <pt x="223" y="646" on="0"/>
        <pt x="224" y="648" on="1"/>
        <pt x="84" y="648" on="1"/>
        <pt x="96" y="632" on="1"/>
        <pt x="118" y="592" on="0"/>
        <pt x="236" y="330" on="1"/>
        <pt x="367" y="43" on="1"/>
        <pt x="376" y="63" on="0"/>
        <pt x="387" y="88" on="1"/>
        <pt x="404" y="132" on="1"/>
        <pt x="380" y="185" on="1"/>
        <pt x="250" y="468" on="0"/>
        <pt x="222" y="568" on="1"/>
        <pt x="216" y="590" on="0"/>
      </contour>
      <contour>
        <pt x="576" y="645" on="1"/>
        <pt x="584" y="630" on="0"/>
        <pt x="584" y="597" on="1"/>
        <pt x="587" y="568" on="1"/>
        <pt x="598" y="597" on="1"/>
        <pt x="609" y="624" on="0"/>
        <pt x="618" y="637" on="1"/>
        <pt x="624" y="648" on="1"/>
        <pt x="600" y="648" on="1"/>
        <pt x="576" y="648" on="0"/>
      </contour>
    </TTGlyph>
    <TTGlyph name="W" xMin="5" yMin="-19" xMax="994" yMax="683">
      <contour>
        <pt x="802" y="648" on="1"/>
        <pt x="795" y="648" on="0"/>
        <pt x="785" y="660" on="0"/>
        <pt x="785" y="666" on="1"/>
        <pt x="785" y="671" on="0"/>
        <pt x="795" y="683" on="1"/>
        <pt x="982" y="683" on="1"/>
        <pt x="988" y="679" on="1"/>
        <pt x="994" y="671" on="0"/>
        <pt x="994" y="665" on="1"/>
        <pt x="994" y="650" on="0"/>
        <pt x="975" y="648" on="1"/>
        <pt x="953" y="643" on="0"/>
        <pt x="939" y="619" on="1"/>
        <pt x="931" y="593" on="0"/>
        <pt x="715" y="-10" on="0"/>
        <pt x="710" y="-15" on="1"/>
        <pt x="706" y="-19" on="0"/>
        <pt x="692" y="-19" on="0"/>
        <pt x="688" y="-15" on="1"/>
        <pt x="682" y="-6" on="0"/>
        <pt x="596" y="220" on="0"/>
        <pt x="514" y="437" on="0"/>
        <pt x="513" y="437" on="1"/>
        <pt x="513" y="438" on="0"/>
        <pt x="486" y="380" on="0"/>
        <pt x="437" y="269" on="0"/>
        <pt x="413" y="212" on="1"/>
        <pt x="315" y="-14" on="0"/>
        <pt x="310" y="-17" on="1"/>
        <pt x="308" y="-19" on="0"/>
        <pt x="296" y="-19" on="0"/>
        <pt x="288" y="-15" on="1"/>
        <pt x="57" y="619" on="1"/>
        <pt x="45" y="643" on="0"/>
        <pt x="24" y="648" on="1"/>
        <pt x="5" y="650" on="0"/>
        <pt x="5" y="665" on="1"/>
        <pt x="5" y="673" on="0"/>
        <pt x="10" y="679" on="1"/>
        <pt x="17" y="683" on="1"/>
        <pt x="146" y="683" on="1"/>
        <pt x="247" y="683" on="0"/>
        <pt x="279" y="680" on="0"/>
        <pt x="284" y="672" on="1"/>
        <pt x="285" y="670" on="0"/>
        <pt x="285" y="666" on="1"/>
        <pt x="285" y="659" on="0"/>
        <pt x="275" y="648" on="0"/>
        <pt x="268" y="648" on="1"/>
        <pt x="253" y="648" on="0"/>
        <pt x="239" y="634" on="1"/>
        <pt x="230" y="630" on="0"/>
        <pt x="230" y="619" on="1"/>
        <pt x="230" y="598" on="0"/>
        <pt x="264" y="481" on="1"/>
        <pt x="362" y="192" on="1"/>
        <pt x="363" y="193" on="0"/>
        <pt x="493" y="490" on="0"/>
        <pt x="493" y="492" on="1"/>
        <pt x="493" y="496" on="0"/>
        <pt x="452" y="596" on="0"/>
        <pt x="446" y="608" on="1"/>
        <pt x="426" y="648" on="0"/>
        <pt x="399" y="648" on="1"/>
        <pt x="392" y="648" on="0"/>
        <pt x="382" y="659" on="0"/>
        <pt x="382" y="667" on="1"/>
        <pt x="382" y="676" on="0"/>
        <pt x="393" y="683" on="1"/>
        <pt x="679" y="683" on="1"/>
        <pt x="690" y="672" on="0"/>
        <pt x="690" y="665" on="1"/>
        <pt x="690" y="661" on="0"/>
        <pt x="679" y="648" on="0"/>
        <pt x="673" y="648" on="1"/>
        <pt x="653" y="648" on="0"/>
        <pt x="633" y="632" on="1"/>
        <pt x="622" y="625" on="1"/>
        <pt x="622" y="610" on="1"/>
        <pt x="629" y="546" on="0"/>
        <pt x="715" y="310" on="1"/>
        <pt x="722" y="293" on="0"/>
        <pt x="739" y="243" on="0"/>
        <pt x="749" y="218" on="0"/>
        <pt x="751" y="218" on="1"/>
        <pt x="754" y="218" on="0"/>
        <pt x="779" y="294" on="1"/>
        <pt x="847" y="492" on="0"/>
        <pt x="847" y="581" on="1"/>
        <pt x="847" y="648" on="0"/>
      </contour>
      <contour>
        <pt x="194" y="623" on="1"/>
        <pt x="194" y="628" on="0"/>
        <pt x="199" y="648" on="1"/>
        <pt x="82" y="648" on="1"/>
        <pt x="90" y="632" on="1"/>
        <pt x="99" y="616" on="0"/>
        <pt x="199" y="332" on="1"/>
        <pt x="302" y="50" on="1"/>
        <pt x="303" y="50" on="0"/>
        <pt x="342" y="139" on="0"/>
        <pt x="342" y="141" on="1"/>
        <pt x="342" y="145" on="0"/>
        <pt x="315" y="217" on="1"/>
        <pt x="231" y="458" on="0"/>
        <pt x="210" y="537" on="1"/>
        <pt x="194" y="591" on="0"/>
      </contour>
      <contour>
        <pt x="585" y="620" on="1"/>
        <pt x="585" y="635" on="0"/>
        <pt x="593" y="648" on="1"/>
        <pt x="530" y="648" on="1"/>
        <pt x="466" y="648" on="0"/>
        <pt x="466" y="645" on="1"/>
        <pt x="468" y="643" on="0"/>
        <pt x="470" y="639" on="1"/>
        <pt x="484" y="617" on="0"/>
        <pt x="595" y="323" on="1"/>
        <pt x="699" y="54" on="1"/>
        <pt x="701" y="56" on="0"/>
        <pt x="735" y="151" on="0"/>
        <pt x="735" y="154" on="1"/>
        <pt x="719" y="197" on="0"/>
        <pt x="702" y="245" on="1"/>
        <pt x="585" y="562" on="0"/>
      </contour>
      <contour>
        <pt x="915" y="645" on="1"/>
        <pt x="915" y="648" on="0"/>
        <pt x="893" y="648" on="1"/>
        <pt x="868" y="648" on="1"/>
        <pt x="875" y="634" on="1"/>
        <pt x="876" y="629" on="0"/>
        <pt x="881" y="604" on="0"/>
        <pt x="882" y="597" on="1"/>
        <pt x="884" y="572" on="1"/>
        <pt x="893" y="597" on="1"/>
        <pt x="897" y="605" on="0"/>
        <pt x="911" y="639" on="0"/>
      </contour>
    </TTGlyph>
    <TTGlyph name="X" xMin="16" yMin="-1" xMax="705" yMax="683">
      <contour>
        <pt x="28" y="-1" on="1"/>
        <pt x="16" y="7" on="0"/>
        <pt x="16" y="23" on="0"/>
        <pt x="27" y="35" on="0"/>
        <pt x="35" y="35" on="1"/>
        <pt x="61" y="35" on="0"/>
        <pt x="117" y="88" on="1"/>
        <pt x="289" y="279" on="0"/>
        <pt x="304" y="297" on="1"/>
        <pt x="307" y="303" on="0"/>
        <pt x="255" y="377" on="1"/>
        <pt x="117" y="586" on="0"/>
        <pt x="79" y="626" on="1"/>
        <pt x="60" y="648" on="0"/>
        <pt x="39" y="648" on="1"/>
        <pt x="32" y="648" on="0"/>
        <pt x="22" y="659" on="0"/>
        <pt x="22" y="673" on="0"/>
        <pt x="28" y="679" on="1"/>
        <pt x="33" y="683" on="0"/>
        <pt x="184" y="683" on="1"/>
        <pt x="335" y="683" on="1"/>
        <pt x="341" y="679" on="1"/>
        <pt x="352" y="665" on="0"/>
        <pt x="341" y="655" on="1"/>
        <pt x="335" y="648" on="0"/>
        <pt x="315" y="648" on="1"/>
        <pt x="280" y="644" on="0"/>
        <pt x="273" y="637" on="1"/>
        <pt x="273" y="636" on="0"/>
        <pt x="283" y="614" on="0"/>
        <pt x="303" y="577" on="0"/>
        <pt x="313" y="561" on="1"/>
        <pt x="381" y="448" on="0"/>
        <pt x="386" y="448" on="1"/>
        <pt x="464" y="549" on="0"/>
        <pt x="468" y="563" on="1"/>
        <pt x="478" y="580" on="0"/>
        <pt x="478" y="601" on="1"/>
        <pt x="478" y="620" on="0"/>
        <pt x="459" y="648" on="0"/>
        <pt x="444" y="648" on="1"/>
        <pt x="428" y="648" on="0"/>
        <pt x="428" y="666" on="1"/>
        <pt x="428" y="677" on="0"/>
        <pt x="433" y="679" on="1"/>
        <pt x="437" y="683" on="0"/>
        <pt x="681" y="683" on="0"/>
        <pt x="686" y="679" on="1"/>
        <pt x="690" y="677" on="0"/>
        <pt x="690" y="666" on="1"/>
        <pt x="690" y="648" on="0"/>
        <pt x="673" y="648" on="1"/>
        <pt x="652" y="648" on="0"/>
        <pt x="619" y="637" on="1"/>
        <pt x="571" y="615" on="0"/>
        <pt x="517" y="550" on="1"/>
        <pt x="490" y="517" on="0"/>
        <pt x="410" y="411" on="0"/>
        <pt x="410" y="408" on="1"/>
        <pt x="415" y="399" on="0"/>
        <pt x="587" y="146" on="0"/>
        <pt x="617" y="106" on="1"/>
        <pt x="648" y="61" on="0"/>
        <pt x="674" y="35" on="0"/>
        <pt x="688" y="35" on="1"/>
        <pt x="705" y="35" on="0"/>
        <pt x="705" y="16" on="1"/>
        <pt x="705" y="6" on="0"/>
        <pt x="695" y="-1" on="1"/>
        <pt x="539" y="-1" on="1"/>
        <pt x="384" y="-1" on="0"/>
        <pt x="379" y="3" on="1"/>
        <pt x="373" y="10" on="0"/>
        <pt x="373" y="17" on="1"/>
        <pt x="373" y="27" on="0"/>
        <pt x="387" y="35" on="0"/>
        <pt x="408" y="35" on="1"/>
        <pt x="459" y="40" on="0"/>
        <pt x="459" y="49" on="1"/>
        <pt x="459" y="59" on="0"/>
        <pt x="376" y="200" on="0"/>
        <pt x="335" y="259" on="1"/>
        <pt x="334" y="260" on="0"/>
        <pt x="332" y="260" on="1"/>
        <pt x="328" y="260" on="0"/>
        <pt x="273" y="197" on="1"/>
        <pt x="210" y="127" on="0"/>
        <pt x="208" y="117" on="1"/>
        <pt x="199" y="104" on="0"/>
        <pt x="199" y="82" on="1"/>
        <pt x="199" y="62" on="0"/>
        <pt x="223" y="35" on="0"/>
        <pt x="239" y="35" on="1"/>
        <pt x="247" y="35" on="0"/>
        <pt x="257" y="23" on="0"/>
        <pt x="257" y="15" on="1"/>
        <pt x="257" y="11" on="0"/>
        <pt x="253" y="3" on="1"/>
        <pt x="246" y="-1" on="1"/>
      </contour>
      <contour>
        <pt x="237" y="639" on="1"/>
        <pt x="237" y="648" on="1"/>
        <pt x="173" y="648" on="1"/>
        <pt x="113" y="647" on="0"/>
        <pt x="113" y="646" on="1"/>
        <pt x="113" y="642" on="0"/>
        <pt x="137" y="612" on="1"/>
        <pt x="186" y="546" on="0"/>
        <pt x="418" y="200" on="0"/>
        <pt x="453" y="139" on="1"/>
        <pt x="496" y="64" on="0"/>
        <pt x="496" y="43" on="1"/>
        <pt x="496" y="37" on="0"/>
        <pt x="495" y="35" on="1"/>
        <pt x="559" y="35" on="1"/>
        <pt x="622" y="35" on="0"/>
        <pt x="622" y="37" on="1"/>
        <pt x="622" y="38" on="0"/>
        <pt x="620" y="40" on="0"/>
        <pt x="613" y="49" on="0"/>
        <pt x="600" y="68" on="0"/>
        <pt x="595" y="75" on="1"/>
        <pt x="555" y="129" on="0"/>
        <pt x="334" y="458" on="0"/>
        <pt x="297" y="519" on="1"/>
        <pt x="237" y="615" on="0"/>
      </contour>
      <contour>
        <pt x="553" y="637" on="1"/>
        <pt x="566" y="648" on="1"/>
        <pt x="504" y="648" on="1"/>
        <pt x="508" y="637" on="1"/>
        <pt x="510" y="630" on="0"/>
        <pt x="515" y="615" on="1"/>
        <pt x="515" y="603" on="1"/>
        <pt x="528" y="615" on="1"/>
        <pt x="529" y="616" on="0"/>
        <pt x="549" y="634" on="0"/>
      </contour>
      <contour>
        <pt x="170" y="46" on="1"/>
        <pt x="169" y="49" on="0"/>
        <pt x="165" y="67" on="0"/>
        <pt x="164" y="70" on="1"/>
        <pt x="164" y="83" on="1"/>
        <pt x="137" y="59" on="1"/>
        <pt x="113" y="35" on="1"/>
        <pt x="175" y="35" on="1"/>
        <pt x="175" y="38" on="0"/>
      </contour>
    </TTGlyph>
    <TTGlyph name="Y" xMin="16" yMin="-1" xMax="704" yMax="683">
      <contour>
        <pt x="693" y="683" on="1"/>
        <pt x="704" y="676" on="0"/>
        <pt x="704" y="667" on="1"/>
        <pt x="704" y="650" on="0"/>
        <pt x="684" y="648" on="1"/>
        <pt x="672" y="645" on="0"/>
        <pt x="653" y="623" on="1"/>
        <pt x="633" y="604" on="0"/>
        <pt x="594" y="547" on="0"/>
        <pt x="517" y="426" on="1"/>
        <pt x="439" y="301" on="1"/>
        <pt x="439" y="183" on="1"/>
        <pt x="442" y="62" on="0"/>
        <pt x="444" y="59" on="1"/>
        <pt x="449" y="35" on="0"/>
        <pt x="504" y="35" on="1"/>
        <pt x="521" y="35" on="0"/>
        <pt x="528" y="30" on="1"/>
        <pt x="538" y="16" on="0"/>
        <pt x="528" y="3" on="1"/>
        <pt x="521" y="-1" on="1"/>
        <pt x="195" y="-1" on="1"/>
        <pt x="188" y="3" on="1"/>
        <pt x="178" y="16" on="0"/>
        <pt x="188" y="30" on="1"/>
        <pt x="195" y="35" on="0"/>
        <pt x="213" y="35" on="1"/>
        <pt x="266" y="35" on="0"/>
        <pt x="273" y="59" on="1"/>
        <pt x="274" y="61" on="0"/>
        <pt x="277" y="163" on="1"/>
        <pt x="277" y="261" on="1"/>
        <pt x="181" y="432" on="1"/>
        <pt x="158" y="474" on="0"/>
        <pt x="109" y="562" on="0"/>
        <pt x="76" y="619" on="0"/>
        <pt x="75" y="621" on="1"/>
        <pt x="64" y="638" on="0"/>
        <pt x="51" y="648" on="0"/>
        <pt x="37" y="648" on="1"/>
        <pt x="28" y="648" on="0"/>
        <pt x="16" y="659" on="0"/>
        <pt x="16" y="667" on="1"/>
        <pt x="16" y="672" on="0"/>
        <pt x="21" y="679" on="1"/>
        <pt x="28" y="683" on="1"/>
        <pt x="295" y="683" on="1"/>
        <pt x="301" y="679" on="1"/>
        <pt x="306" y="672" on="0"/>
        <pt x="306" y="666" on="1"/>
        <pt x="306" y="648" on="0"/>
        <pt x="284" y="648" on="1"/>
        <pt x="258" y="648" on="0"/>
        <pt x="255" y="641" on="1"/>
        <pt x="255" y="635" on="0"/>
        <pt x="257" y="630" on="1"/>
        <pt x="268" y="609" on="0"/>
        <pt x="339" y="479" on="1"/>
        <pt x="418" y="339" on="0"/>
        <pt x="421" y="339" on="1"/>
        <pt x="423" y="339" on="0"/>
        <pt x="556" y="554" on="0"/>
        <pt x="557" y="557" on="1"/>
        <pt x="560" y="566" on="0"/>
        <pt x="560" y="582" on="1"/>
        <pt x="560" y="599" on="0"/>
        <pt x="557" y="608" on="1"/>
        <pt x="541" y="640" on="0"/>
        <pt x="504" y="648" on="1"/>
        <pt x="489" y="648" on="0"/>
        <pt x="486" y="655" on="1"/>
        <pt x="475" y="664" on="0"/>
        <pt x="486" y="679" on="1"/>
        <pt x="493" y="683" on="1"/>
      </contour>
      <contour>
        <pt x="219" y="637" on="1"/>
        <pt x="219" y="648" on="1"/>
        <pt x="101" y="648" on="1"/>
        <pt x="110" y="635" on="1"/>
        <pt x="110" y="634" on="0"/>
        <pt x="132" y="596" on="0"/>
        <pt x="157" y="550" on="0"/>
        <pt x="196" y="479" on="0"/>
        <pt x="215" y="446" on="1"/>
        <pt x="313" y="270" on="1"/>
        <pt x="313" y="166" on="1"/>
        <pt x="310" y="59" on="0"/>
        <pt x="306" y="48" on="1"/>
        <pt x="301" y="35" on="1"/>
        <pt x="415" y="35" on="1"/>
        <pt x="410" y="48" on="1"/>
        <pt x="404" y="65" on="0"/>
        <pt x="404" y="175" on="1"/>
        <pt x="404" y="290" on="1"/>
        <pt x="317" y="443" on="1"/>
        <pt x="230" y="601" on="0"/>
        <pt x="226" y="612" on="1"/>
        <pt x="219" y="625" on="0"/>
      </contour>
      <contour>
        <pt x="608" y="630" on="1"/>
        <pt x="624" y="648" on="1"/>
        <pt x="575" y="648" on="1"/>
        <pt x="575" y="647" on="0"/>
        <pt x="586" y="630" on="0"/>
        <pt x="588" y="623" on="1"/>
        <pt x="595" y="610" on="1"/>
      </contour>
    </TTGlyph>
    <TTGlyph name="Z" xMin="29" yMin="-1" xMax="635" yMax="683">
      <contour>
        <pt x="39" y="-1" on="1"/>
        <pt x="29" y="9" on="0"/>
        <pt x="29" y="12" on="1"/>
        <pt x="29" y="23" on="0"/>
        <pt x="92" y="131" on="0"/>
        <pt x="219" y="337" on="1"/>
        <pt x="410" y="648" on="1"/>
        <pt x="364" y="648" on="1"/>
        <pt x="261" y="648" on="0"/>
        <pt x="210" y="628" on="1"/>
        <pt x="116" y="592" on="0"/>
        <pt x="99" y="517" on="1"/>
        <pt x="95" y="498" on="0"/>
        <pt x="90" y="489" on="0"/>
        <pt x="72" y="489" on="0"/>
        <pt x="61" y="503" on="1"/>
        <pt x="70" y="588" on="1"/>
        <pt x="72" y="607" on="0"/>
        <pt x="78" y="650" on="0"/>
        <pt x="81" y="674" on="0"/>
        <pt x="81" y="675" on="1"/>
        <pt x="84" y="677" on="0"/>
        <pt x="88" y="681" on="1"/>
        <pt x="90" y="683" on="0"/>
        <pt x="341" y="683" on="1"/>
        <pt x="592" y="683" on="1"/>
        <pt x="604" y="673" on="0"/>
        <pt x="604" y="666" on="1"/>
        <pt x="604" y="664" on="0"/>
        <pt x="535" y="548" on="0"/>
        <pt x="427" y="373" on="0"/>
        <pt x="324" y="204" on="0"/>
        <pt x="230" y="51" on="0"/>
        <pt x="221" y="37" on="1"/>
        <pt x="221" y="35" on="0"/>
        <pt x="301" y="35" on="1"/>
        <pt x="406" y="35" on="0"/>
        <pt x="446" y="48" on="1"/>
        <pt x="504" y="68" on="0"/>
        <pt x="583" y="154" on="0"/>
        <pt x="597" y="212" on="1"/>
        <pt x="602" y="239" on="0"/>
        <pt x="617" y="239" on="1"/>
        <pt x="624" y="239" on="0"/>
        <pt x="635" y="228" on="0"/>
        <pt x="635" y="223" on="1"/>
        <pt x="635" y="215" on="0"/>
        <pt x="606" y="11" on="0"/>
        <pt x="604" y="8" on="1"/>
        <pt x="597" y="1" on="1"/>
        <pt x="595" y="-1" on="0"/>
        <pt x="317" y="-1" on="1"/>
      </contour>
      <contour>
        <pt x="148" y="637" on="1"/>
        <pt x="166" y="648" on="1"/>
        <pt x="112" y="648" on="1"/>
        <pt x="112" y="632" on="1"/>
        <pt x="111" y="629" on="0"/>
        <pt x="109" y="614" on="0"/>
        <pt x="108" y="612" on="1"/>
        <pt x="108" y="608" on="0"/>
        <pt x="109" y="608" on="1"/>
        <pt x="110" y="608" on="0"/>
        <pt x="119" y="615" on="1"/>
        <pt x="135" y="629" on="0"/>
      </contour>
      <contour>
        <pt x="552" y="646" on="1"/>
        <pt x="552" y="648" on="0"/>
        <pt x="504" y="648" on="1"/>
        <pt x="452" y="648" on="0"/>
        <pt x="450" y="643" on="1"/>
        <pt x="448" y="639" on="0"/>
        <pt x="83" y="46" on="0"/>
        <pt x="77" y="37" on="1"/>
        <pt x="77" y="35" on="0"/>
        <pt x="128" y="35" on="1"/>
        <pt x="179" y="35" on="1"/>
        <pt x="366" y="339" on="1"/>
      </contour>
      <contour>
        <pt x="572" y="35" on="1"/>
        <pt x="576" y="65" on="1"/>
        <pt x="581" y="95" on="0"/>
        <pt x="581" y="97" on="1"/>
        <pt x="561" y="77" on="1"/>
        <pt x="542" y="59" on="0"/>
        <pt x="526" y="48" on="1"/>
        <pt x="508" y="37" on="1"/>
        <pt x="539" y="35" on="1"/>
      </contour>
    </TTGlyph>
    <TTGlyph name="angle" xMin="55" yMin="0" xMax="666" yMax="694">
      <contour>
        <pt x="71" y="0" on="1"/>
        <pt x="55" y="9" on="0"/>
        <pt x="55" y="20" on="1"/>
        <pt x="55" y="22" on="0"/>
        <pt x="57" y="28" on="1"/>
        <pt x="67" y="43" on="0"/>
        <pt x="346" y="361" on="1"/>
        <pt x="632" y="690" on="0"/>
        <pt x="644" y="694" on="0"/>
        <pt x="647" y="694" on="1"/>
        <pt x="655" y="694" on="0"/>
        <pt x="666" y="683" on="0"/>
        <pt x="666" y="674" on="1"/>
        <pt x="666" y="668" on="0"/>
        <pt x="663" y="663" on="1"/>
        <pt x="662" y="662" on="0"/>
        <pt x="592" y="582" on="0"/>
        <pt x="455" y="424" on="0"/>
        <pt x="390" y="350" on="1"/>
        <pt x="120" y="41" on="1"/>
        <pt x="386" y="40" on="1"/>
        <pt x="653" y="40" on="1"/>
        <pt x="666" y="31" on="0"/>
        <pt x="666" y="20" on="1"/>
        <pt x="666" y="7" on="0"/>
        <pt x="651" y="0" on="1"/>
      </contour>
    </TTGlyph>
    <TTGlyph name="approxequal" xMin="55" yMin="50" xMax="719" yMax="481">
      <contour>
        <pt x="55" y="326" on="1"/>
        <pt x="55" y="393" on="0"/>
        <pt x="148" y="481" on="0"/>
        <pt x="226" y="481" on="1"/>
        <pt x="263" y="479" on="0"/>
        <pt x="332" y="454" on="0"/>
        <pt x="391" y="419" on="1"/>
        <pt x="457" y="383" on="0"/>
        <pt x="516" y="361" on="0"/>
        <pt x="555" y="361" on="1"/>
        <pt x="622" y="361" on="0"/>
        <pt x="662" y="401" on="1"/>
        <pt x="686" y="423" on="0"/>
        <pt x="688" y="450" on="1"/>
        <pt x="693" y="479" on="0"/>
        <pt x="702" y="479" on="1"/>
        <pt x="703" y="480" on="1"/>
        <pt x="704" y="480" on="0"/>
        <pt x="705" y="480" on="1"/>
        <pt x="719" y="480" on="0"/>
        <pt x="719" y="442" on="1"/>
        <pt x="719" y="371" on="0"/>
        <pt x="624" y="286" on="0"/>
        <pt x="554" y="286" on="1"/>
        <pt x="515" y="286" on="0"/>
        <pt x="449" y="310" on="0"/>
        <pt x="384" y="346" on="1"/>
        <pt x="326" y="380" on="0"/>
        <pt x="302" y="388" on="1"/>
        <pt x="263" y="404" on="0"/>
        <pt x="220" y="404" on="1"/>
        <pt x="179" y="404" on="0"/>
        <pt x="144" y="388" on="1"/>
        <pt x="129" y="382" on="0"/>
        <pt x="111" y="363" on="1"/>
        <pt x="86" y="339" on="0"/>
        <pt x="86" y="317" on="1"/>
        <pt x="86" y="306" on="0"/>
        <pt x="77" y="288" on="0"/>
        <pt x="71" y="288" on="1"/>
        <pt x="55" y="288" on="0"/>
      </contour>
      <contour>
        <pt x="86" y="81" on="1"/>
        <pt x="86" y="70" on="0"/>
        <pt x="77" y="52" on="0"/>
        <pt x="71" y="52" on="1"/>
        <pt x="55" y="52" on="0"/>
        <pt x="55" y="90" on="1"/>
        <pt x="55" y="148" on="0"/>
        <pt x="122" y="227" on="0"/>
        <pt x="182" y="241" on="1"/>
        <pt x="195" y="246" on="0"/>
        <pt x="226" y="246" on="1"/>
        <pt x="263" y="244" on="0"/>
        <pt x="332" y="218" on="0"/>
        <pt x="391" y="183" on="1"/>
        <pt x="456" y="147" on="0"/>
        <pt x="516" y="126" on="0"/>
        <pt x="558" y="126" on="1"/>
        <pt x="622" y="126" on="0"/>
        <pt x="662" y="166" on="1"/>
        <pt x="686" y="187" on="0"/>
        <pt x="688" y="214" on="1"/>
        <pt x="692" y="244" on="0"/>
        <pt x="716" y="244" on="0"/>
        <pt x="719" y="210" on="1"/>
        <pt x="719" y="168" on="0"/>
        <pt x="704" y="134" on="1"/>
        <pt x="686" y="96" on="0"/>
        <pt x="601" y="50" on="0"/>
        <pt x="552" y="50" on="1"/>
        <pt x="515" y="50" on="0"/>
        <pt x="450" y="75" on="0"/>
        <pt x="384" y="110" on="1"/>
        <pt x="322" y="146" on="0"/>
        <pt x="302" y="152" on="1"/>
        <pt x="263" y="168" on="0"/>
        <pt x="220" y="168" on="1"/>
        <pt x="179" y="168" on="0"/>
        <pt x="144" y="152" on="1"/>
        <pt x="131" y="148" on="0"/>
        <pt x="111" y="128" on="1"/>
        <pt x="86" y="103" on="0"/>
      </contour>
    </TTGlyph>
    <TTGlyph name="arrowleft" xMin="64" yMin="64" xMax="422" yMax="437">
      <contour>
        <pt x="205" y="417" on="1"/>
        <pt x="212" y="431" on="0"/>
        <pt x="221" y="437" on="0"/>
        <pt x="238" y="437" on="1"/>
        <pt x="252" y="437" on="1"/>
        <pt x="275" y="437" on="0"/>
        <pt x="281" y="435" on="1"/>
        <pt x="292" y="429" on="0"/>
        <pt x="292" y="418" on="1"/>
        <pt x="292" y="409" on="0"/>
        <pt x="287" y="400" on="1"/>
        <pt x="264" y="340" on="0"/>
        <pt x="223" y="291" on="1"/>
        <pt x="216" y="282" on="0"/>
        <pt x="213" y="277" on="1"/>
        <pt x="211" y="275" on="1"/>
        <pt x="306" y="275" on="1"/>
        <pt x="385" y="275" on="0"/>
        <pt x="409" y="273" on="0"/>
        <pt x="415" y="268" on="1"/>
        <pt x="422" y="259" on="0"/>
        <pt x="422" y="241" on="0"/>
        <pt x="415" y="232" on="1"/>
        <pt x="409" y="227" on="0"/>
        <pt x="385" y="225" on="0"/>
        <pt x="306" y="225" on="1"/>
        <pt x="211" y="225" on="1"/>
        <pt x="213" y="223" on="1"/>
        <pt x="216" y="218" on="0"/>
        <pt x="223" y="209" on="1"/>
        <pt x="264" y="160" on="0"/>
        <pt x="287" y="100" on="1"/>
        <pt x="292" y="91" on="0"/>
        <pt x="292" y="82" on="1"/>
        <pt x="292" y="71" on="0"/>
        <pt x="281" y="65" on="1"/>
        <pt x="278" y="64" on="0"/>
        <pt x="250" y="64" on="1"/>
        <pt x="221" y="64" on="0"/>
        <pt x="218" y="66" on="1"/>
        <pt x="210" y="70" on="0"/>
        <pt x="205" y="83" on="1"/>
        <pt x="162" y="183" on="0"/>
        <pt x="78" y="230" on="1"/>
        <pt x="64" y="238" on="0"/>
        <pt x="64" y="262" on="0"/>
        <pt x="78" y="270" on="1"/>
        <pt x="162" y="317" on="0"/>
      </contour>
    </TTGlyph>
    <TTGlyph name="arrowright" xMin="58" yMin="64" xMax="417" yMax="437">
      <contour>
        <pt x="204" y="436" on="1"/>
        <pt x="205" y="437" on="0"/>
        <pt x="233" y="437" on="1"/>
        <pt x="257" y="437" on="0"/>
        <pt x="263" y="434" on="1"/>
        <pt x="270" y="430" on="0"/>
        <pt x="275" y="417" on="1"/>
        <pt x="318" y="317" on="0"/>
        <pt x="402" y="270" on="1"/>
        <pt x="417" y="261" on="0"/>
        <pt x="417" y="239" on="0"/>
        <pt x="402" y="230" on="1"/>
        <pt x="318" y="183" on="0"/>
        <pt x="275" y="83" on="1"/>
        <pt x="270" y="70" on="0"/>
        <pt x="263" y="66" on="1"/>
        <pt x="259" y="64" on="0"/>
        <pt x="231" y="64" on="1"/>
        <pt x="202" y="64" on="0"/>
        <pt x="199" y="65" on="1"/>
        <pt x="188" y="71" on="0"/>
        <pt x="188" y="82" on="1"/>
        <pt x="188" y="91" on="0"/>
        <pt x="193" y="100" on="1"/>
        <pt x="216" y="160" on="0"/>
        <pt x="257" y="209" on="1"/>
        <pt x="264" y="218" on="0"/>
        <pt x="267" y="223" on="1"/>
        <pt x="269" y="225" on="1"/>
        <pt x="174" y="225" on="1"/>
        <pt x="95" y="225" on="0"/>
        <pt x="71" y="227" on="0"/>
        <pt x="65" y="232" on="1"/>
        <pt x="58" y="241" on="0"/>
        <pt x="58" y="259" on="0"/>
        <pt x="65" y="268" on="1"/>
        <pt x="71" y="273" on="0"/>
        <pt x="95" y="275" on="0"/>
        <pt x="174" y="275" on="1"/>
        <pt x="269" y="275" on="1"/>
        <pt x="267" y="277" on="1"/>
        <pt x="264" y="282" on="0"/>
        <pt x="257" y="291" on="1"/>
        <pt x="230" y="322" on="0"/>
        <pt x="205" y="374" on="1"/>
        <pt x="188" y="408" on="0"/>
        <pt x="188" y="417" on="1"/>
        <pt x="188" y="433" on="0"/>
      </contour>
    </TTGlyph>
    <TTGlyph name="circumflex" xMin="-14" yMin="561" xMax="2346" yMax="845">
      <contour>
        <pt x="2338" y="630" on="1"/>
        <pt x="2346" y="630" on="0"/>
        <pt x="2346" y="618" on="1"/>
        <pt x="2346" y="616" on="0"/>
        <pt x="2343" y="599" on="1"/>
        <pt x="2337" y="563" on="0"/>
        <pt x="2332" y="561" on="1"/>
        <pt x="2329" y="561" on="0"/>
        <pt x="1749" y="654" on="1"/>
        <pt x="1617" y="675" on="0"/>
        <pt x="1314" y="724" on="0"/>
        <pt x="1168" y="748" on="0"/>
        <pt x="1167" y="748" on="1"/>
        <pt x="1165" y="748" on="0"/>
        <pt x="1021" y="725" on="0"/>
        <pt x="712" y="675" on="0"/>
        <pt x="583" y="654" on="1"/>
        <pt x="3" y="561" on="0"/>
        <pt x="1" y="561" on="1"/>
        <pt x="-5" y="563" on="0"/>
        <pt x="-11" y="599" on="1"/>
        <pt x="-14" y="611" on="0"/>
        <pt x="-14" y="625" on="0"/>
        <pt x="0" y="631" on="0"/>
        <pt x="23" y="635" on="1"/>
        <pt x="31" y="636" on="0"/>
        <pt x="36" y="637" on="1"/>
        <pt x="63" y="641" on="0"/>
        <pt x="621" y="745" on="1"/>
        <pt x="1148" y="845" on="0"/>
        <pt x="1165" y="845" on="1"/>
        <pt x="1167" y="845" on="0"/>
        <pt x="1752" y="739" on="1"/>
      </contour>
    </TTGlyph>
    <TTGlyph name="dotmath" xMin="55" yMin="0" xMax="222" yMax="189">
      <contour>
        <pt x="71" y="0" on="1"/>
        <pt x="59" y="4" on="0"/>
        <pt x="55" y="16" on="1"/>
        <pt x="55" y="96" on="1"/>
        <pt x="56" y="176" on="1"/>
        <pt x="59" y="180" on="0"/>
        <pt x="66" y="187" on="1"/>
        <pt x="70" y="189" on="1"/>
        <pt x="209" y="189" on="1"/>
        <pt x="219" y="181" on="0"/>
        <pt x="222" y="174" on="1"/>
        <pt x="222" y="15" on="1"/>
        <pt x="220" y="10" on="0"/>
        <pt x="209" y="1" on="1"/>
        <pt x="140" y="0" on="1"/>
      </contour>
    </TTGlyph>
    <TTGlyph name="emptyset" xMin="55" yMin="-3" xMax="720" yMax="587">
      <contour>
        <pt x="699" y="587" on="1"/>
        <pt x="707" y="587" on="0"/>
        <pt x="720" y="576" on="0"/>
        <pt x="720" y="560" on="0"/>
        <pt x="713" y="553" on="1"/>
        <pt x="707" y="548" on="0"/>
        <pt x="688" y="531" on="0"/>
        <pt x="647" y="494" on="0"/>
        <pt x="622" y="470" on="0"/>
        <pt x="624" y="470" on="1"/>
        <pt x="624" y="469" on="0"/>
        <pt x="628" y="463" on="0"/>
        <pt x="633" y="454" on="0"/>
        <pt x="635" y="450" on="1"/>
        <pt x="683" y="376" on="0"/>
        <pt x="683" y="291" on="1"/>
        <pt x="683" y="265" on="0"/>
        <pt x="679" y="241" on="1"/>
        <pt x="662" y="151" on="0"/>
        <pt x="599" y="86" on="1"/>
        <pt x="530" y="16" on="0"/>
        <pt x="437" y="-1" on="1"/>
        <pt x="425" y="-2" on="0"/>
        <pt x="349" y="-2" on="0"/>
        <pt x="337" y="-1" on="1"/>
        <pt x="245" y="18" on="0"/>
        <pt x="193" y="70" on="1"/>
        <pt x="179" y="81" on="1"/>
        <pt x="131" y="39" on="1"/>
        <pt x="96" y="8" on="0"/>
        <pt x="82" y="-3" on="0"/>
        <pt x="75" y="-3" on="1"/>
        <pt x="55" y="-3" on="0"/>
        <pt x="55" y="17" on="1"/>
        <pt x="55" y="24" on="0"/>
        <pt x="67" y="36" on="0"/>
        <pt x="111" y="73" on="1"/>
        <pt x="154" y="113" on="0"/>
        <pt x="151" y="113" on="1"/>
        <pt x="151" y="114" on="0"/>
        <pt x="147" y="120" on="0"/>
        <pt x="141" y="129" on="0"/>
        <pt x="139" y="133" on="1"/>
        <pt x="106" y="185" on="0"/>
        <pt x="95" y="241" on="1"/>
        <pt x="94" y="253" on="0"/>
        <pt x="94" y="329" on="0"/>
        <pt x="95" y="341" on="1"/>
        <pt x="112" y="431" on="0"/>
        <pt x="173" y="495" on="1"/>
        <pt x="265" y="587" on="0"/>
        <pt x="385" y="587" on="1"/>
        <pt x="410" y="587" on="0"/>
        <pt x="437" y="581" on="1"/>
        <pt x="522" y="571" on="0"/>
        <pt x="582" y="513" on="1"/>
        <pt x="595" y="501" on="1"/>
        <pt x="642" y="541" on="1"/>
        <pt x="689" y="586" on="0"/>
        <pt x="695" y="586" on="1"/>
        <pt x="696" y="586" on="0"/>
        <pt x="698" y="587" on="0"/>
      </contour>
      <contour>
        <pt x="448" y="539" on="1"/>
        <pt x="428" y="546" on="0"/>
        <pt x="375" y="546" on="1"/>
        <pt x="357" y="546" on="0"/>
        <pt x="339" y="544" on="1"/>
        <pt x="271" y="531" on="0"/>
        <pt x="166" y="436" on="0"/>
        <pt x="144" y="370" on="1"/>
        <pt x="133" y="332" on="0"/>
        <pt x="133" y="279" on="1"/>
        <pt x="136" y="228" on="0"/>
        <pt x="151" y="195" on="1"/>
        <pt x="157" y="179" on="0"/>
        <pt x="180" y="141" on="0"/>
        <pt x="184" y="141" on="1"/>
        <pt x="186" y="141" on="0"/>
        <pt x="564" y="474" on="0"/>
        <pt x="564" y="477" on="1"/>
        <pt x="550" y="491" on="0"/>
        <pt x="519" y="510" on="1"/>
        <pt x="490" y="529" on="0"/>
      </contour>
      <contour>
        <pt x="642" y="290" on="1"/>
        <pt x="642" y="366" on="0"/>
        <pt x="606" y="424" on="1"/>
        <pt x="604" y="428" on="0"/>
        <pt x="598" y="435" on="0"/>
        <pt x="595" y="439" on="0"/>
        <pt x="593" y="443" on="0"/>
        <pt x="593" y="444" on="1"/>
        <pt x="590" y="444" on="0"/>
        <pt x="213" y="110" on="0"/>
        <pt x="213" y="108" on="1"/>
        <pt x="213" y="100" on="0"/>
        <pt x="255" y="73" on="1"/>
        <pt x="282" y="55" on="0"/>
        <pt x="326" y="44" on="1"/>
        <pt x="346" y="37" on="0"/>
        <pt x="392" y="37" on="1"/>
        <pt x="408" y="37" on="0"/>
        <pt x="426" y="39" on="1"/>
        <pt x="508" y="51" on="0"/>
        <pt x="628" y="171" on="0"/>
        <pt x="639" y="253" on="1"/>
        <pt x="642" y="268" on="0"/>
      </contour>
    </TTGlyph>
    <TTGlyph name="eth" xMin="42" yMin="-21" xMax="509" yMax="749">
      <contour>
        <pt x="478" y="621" on="1"/>
        <pt x="469" y="615" on="0"/>
        <pt x="456" y="615" on="1"/>
        <pt x="436" y="615" on="0"/>
        <pt x="424" y="624" on="1"/>
        <pt x="422" y="661" on="1"/>
        <pt x="422" y="699" on="1"/>
        <pt x="382" y="675" on="1"/>
        <pt x="344" y="648" on="1"/>
        <pt x="353" y="639" on="0"/>
        <pt x="366" y="630" on="1"/>
        <pt x="420" y="586" on="0"/>
        <pt x="449" y="544" on="1"/>
        <pt x="491" y="479" on="0"/>
        <pt x="504" y="413" on="1"/>
        <pt x="509" y="393" on="0"/>
        <pt x="509" y="333" on="1"/>
        <pt x="509" y="266" on="0"/>
        <pt x="506" y="246" on="1"/>
        <pt x="477" y="30" on="0"/>
        <pt x="329" y="-16" on="1"/>
        <pt x="311" y="-21" on="0"/>
        <pt x="275" y="-21" on="1"/>
        <pt x="226" y="-21" on="0"/>
        <pt x="195" y="-10" on="1"/>
        <pt x="150" y="7" on="0"/>
        <pt x="70" y="93" on="0"/>
        <pt x="53" y="141" on="1"/>
        <pt x="42" y="179" on="0"/>
        <pt x="42" y="227" on="1"/>
        <pt x="42" y="271" on="0"/>
        <pt x="53" y="310" on="1"/>
        <pt x="65" y="353" on="0"/>
        <pt x="123" y="431" on="0"/>
        <pt x="160" y="453" on="1"/>
        <pt x="198" y="474" on="0"/>
        <pt x="245" y="474" on="1"/>
        <pt x="286" y="474" on="0"/>
        <pt x="358" y="440" on="0"/>
        <pt x="380" y="415" on="1"/>
        <pt x="386" y="405" on="0"/>
        <pt x="389" y="408" on="1"/>
        <pt x="389" y="426" on="0"/>
        <pt x="378" y="475" on="1"/>
        <pt x="358" y="533" on="0"/>
        <pt x="326" y="570" on="1"/>
        <pt x="320" y="577" on="0"/>
        <pt x="299" y="596" on="0"/>
        <pt x="283" y="607" on="0"/>
        <pt x="282" y="606" on="1"/>
        <pt x="281" y="606" on="0"/>
        <pt x="261" y="593" on="0"/>
        <pt x="220" y="565" on="0"/>
        <pt x="204" y="555" on="1"/>
        <pt x="120" y="501" on="1"/>
        <pt x="116" y="500" on="0"/>
        <pt x="88" y="500" on="0"/>
        <pt x="82" y="501" on="1"/>
        <pt x="75" y="506" on="1"/>
        <pt x="75" y="566" on="1"/>
        <pt x="75" y="628" on="0"/>
        <pt x="80" y="630" on="1"/>
        <pt x="83" y="635" on="0"/>
        <pt x="102" y="635" on="1"/>
        <pt x="124" y="635" on="0"/>
        <pt x="131" y="623" on="0"/>
        <pt x="131" y="588" on="1"/>
        <pt x="133" y="550" on="1"/>
        <pt x="197" y="591" on="0"/>
        <pt x="249" y="628" on="1"/>
        <pt x="231" y="635" on="1"/>
        <pt x="176" y="654" on="0"/>
        <pt x="124" y="657" on="1"/>
        <pt x="116" y="657" on="0"/>
        <pt x="106" y="658" on="1"/>
        <pt x="95" y="659" on="1"/>
        <pt x="94" y="661" on="0"/>
        <pt x="94" y="713" on="0"/>
        <pt x="95" y="715" on="1"/>
        <pt x="99" y="717" on="0"/>
        <pt x="113" y="717" on="1"/>
        <pt x="199" y="717" on="0"/>
        <pt x="282" y="679" on="1"/>
        <pt x="309" y="668" on="1"/>
        <pt x="331" y="681" on="1"/>
        <pt x="351" y="697" on="0"/>
        <pt x="391" y="721" on="1"/>
        <pt x="428" y="748" on="0"/>
        <pt x="435" y="748" on="1"/>
        <pt x="437" y="749" on="0"/>
        <pt x="446" y="749" on="1"/>
        <pt x="470" y="749" on="0"/>
        <pt x="473" y="746" on="1"/>
        <pt x="478" y="744" on="0"/>
        <pt x="478" y="681" on="1"/>
      </contour>
      <contour>
        <pt x="388" y="225" on="1"/>
        <pt x="388" y="377" on="0"/>
        <pt x="309" y="410" on="1"/>
        <pt x="299" y="416" on="0"/>
        <pt x="273" y="419" on="1"/>
        <pt x="216" y="419" on="0"/>
        <pt x="191" y="390" on="1"/>
        <pt x="174" y="371" on="0"/>
        <pt x="163" y="325" on="0"/>
        <pt x="162" y="255" on="1"/>
        <pt x="162" y="218" on="1"/>
        <pt x="162" y="112" on="0"/>
        <pt x="184" y="79" on="1"/>
        <pt x="212" y="39" on="0"/>
        <pt x="273" y="39" on="1"/>
        <pt x="312" y="39" on="0"/>
        <pt x="373" y="86" on="0"/>
        <pt x="380" y="121" on="1"/>
        <pt x="388" y="159" on="0"/>
      </contour>
    </TTGlyph>
    <TTGlyph name="filledbox" xMin="55" yMin="0" xMax="722" yMax="689">
      <contour>
        <pt x="71" y="0" on="1"/>
        <pt x="59" y="4" on="0"/>
        <pt x="55" y="16" on="1"/>
        <pt x="55" y="346" on="1"/>
        <pt x="56" y="676" on="1"/>
        <pt x="63" y="685" on="0"/>
        <pt x="70" y="689" on="1"/>
        <pt x="709" y="689" on="1"/>
        <pt x="719" y="681" on="0"/>
        <pt x="722" y="674" on="1"/>
        <pt x="722" y="15" on="1"/>
        <pt x="720" y="10" on="0"/>
        <pt x="709" y="1" on="1"/>
        <pt x="390" y="0" on="1"/>
      </contour>
    </TTGlyph>
    <TTGlyph name="hbar" xMin="42" yMin="-13" xMax="562" yMax="695">
      <contour>
        <pt x="42" y="26" on="1"/>
        <pt x="166" y="530" on="1"/>
        <pt x="166" y="534" on="0"/>
        <pt x="156" y="535" on="0"/>
        <pt x="129" y="535" on="1"/>
        <pt x="91" y="535" on="0"/>
        <pt x="86" y="539" on="1"/>
        <pt x="74" y="548" on="0"/>
        <pt x="74" y="562" on="1"/>
        <pt x="74" y="570" on="0"/>
        <pt x="78" y="577" on="1"/>
        <pt x="84" y="587" on="0"/>
        <pt x="100" y="590" on="0"/>
        <pt x="138" y="592" on="1"/>
        <pt x="182" y="595" on="1"/>
        <pt x="182" y="599" on="1"/>
        <pt x="182" y="615" on="0"/>
        <pt x="164" y="617" on="1"/>
        <pt x="155" y="619" on="0"/>
        <pt x="133" y="619" on="1"/>
        <pt x="118" y="619" on="0"/>
        <pt x="109" y="623" on="0"/>
        <pt x="109" y="630" on="1"/>
        <pt x="109" y="636" on="0"/>
        <pt x="120" y="677" on="0"/>
        <pt x="122" y="681" on="1"/>
        <pt x="125" y="685" on="0"/>
        <pt x="202" y="688" on="1"/>
        <pt x="272" y="695" on="0"/>
        <pt x="286" y="695" on="1"/>
        <pt x="304" y="695" on="0"/>
        <pt x="304" y="684" on="1"/>
        <pt x="304" y="682" on="0"/>
        <pt x="285" y="605" on="0"/>
        <pt x="282" y="597" on="1"/>
        <pt x="282" y="592" on="0"/>
        <pt x="360" y="592" on="1"/>
        <pt x="437" y="592" on="0"/>
        <pt x="446" y="586" on="1"/>
        <pt x="460" y="577" on="0"/>
        <pt x="460" y="563" on="1"/>
        <pt x="460" y="552" on="0"/>
        <pt x="451" y="541" on="1"/>
        <pt x="442" y="535" on="1"/>
        <pt x="266" y="535" on="1"/>
        <pt x="251" y="468" on="1"/>
        <pt x="247" y="453" on="0"/>
        <pt x="238" y="418" on="0"/>
        <pt x="233" y="400" on="0"/>
        <pt x="233" y="399" on="1"/>
        <pt x="233" y="395" on="0"/>
        <pt x="244" y="404" on="1"/>
        <pt x="295" y="441" on="0"/>
        <pt x="357" y="441" on="1"/>
        <pt x="402" y="441" on="0"/>
        <pt x="467" y="405" on="0"/>
        <pt x="478" y="375" on="1"/>
        <pt x="485" y="352" on="0"/>
        <pt x="485" y="333" on="1"/>
        <pt x="485" y="282" on="0"/>
        <pt x="435" y="141" on="1"/>
        <pt x="412" y="77" on="0"/>
        <pt x="412" y="58" on="1"/>
        <pt x="412" y="44" on="0"/>
        <pt x="426" y="44" on="1"/>
        <pt x="447" y="44" on="0"/>
        <pt x="466" y="68" on="1"/>
        <pt x="485" y="87" on="0"/>
        <pt x="500" y="130" on="1"/>
        <pt x="509" y="152" on="1"/>
        <pt x="531" y="152" on="1"/>
        <pt x="550" y="152" on="1"/>
        <pt x="562" y="152" on="0"/>
        <pt x="562" y="144" on="1"/>
        <pt x="562" y="134" on="0"/>
        <pt x="551" y="108" on="1"/>
        <pt x="512" y="12" on="0"/>
        <pt x="438" y="-10" on="1"/>
        <pt x="426" y="-13" on="0"/>
        <pt x="415" y="-13" on="1"/>
        <pt x="385" y="-13" on="0"/>
        <pt x="332" y="19" on="0"/>
        <pt x="322" y="44" on="1"/>
        <pt x="318" y="52" on="0"/>
        <pt x="318" y="77" on="1"/>
        <pt x="318" y="97" on="0"/>
        <pt x="335" y="148" on="1"/>
        <pt x="386" y="286" on="0"/>
        <pt x="386" y="337" on="1"/>
        <pt x="386" y="386" on="0"/>
        <pt x="346" y="386" on="1"/>
        <pt x="318" y="386" on="0"/>
        <pt x="286" y="370" on="1"/>
        <pt x="267" y="361" on="0"/>
        <pt x="222" y="315" on="0"/>
        <pt x="211" y="292" on="1"/>
        <pt x="205" y="285" on="0"/>
        <pt x="173" y="157" on="1"/>
        <pt x="165" y="128" on="0"/>
        <pt x="148" y="61" on="0"/>
        <pt x="139" y="24" on="0"/>
        <pt x="138" y="21" on="1"/>
        <pt x="128" y="7" on="0"/>
        <pt x="122" y="4" on="1"/>
        <pt x="105" y="-12" on="0"/>
        <pt x="83" y="-12" on="1"/>
        <pt x="66" y="-12" on="0"/>
        <pt x="42" y="9" on="0"/>
      </contour>
    </TTGlyph>
    <TTGlyph name="k" xMin="17" yMin="-1" xMax="534" yMax="683">
      <contour>
        <pt x="519" y="443" on="1"/>
        <pt x="519" y="426" on="0"/>
        <pt x="497" y="426" on="1"/>
        <pt x="458" y="422" on="0"/>
        <pt x="361" y="335" on="1"/>
        <pt x="328" y="308" on="0"/>
        <pt x="315" y="295" on="1"/>
        <pt x="307" y="289" on="0"/>
        <pt x="313" y="283" on="0"/>
        <pt x="454" y="102" on="0"/>
        <pt x="466" y="88" on="1"/>
        <pt x="507" y="35" on="0"/>
        <pt x="517" y="35" on="1"/>
        <pt x="534" y="35" on="0"/>
        <pt x="534" y="16" on="1"/>
        <pt x="534" y="6" on="0"/>
        <pt x="524" y="-1" on="1"/>
        <pt x="304" y="-1" on="1"/>
        <pt x="297" y="3" on="1"/>
        <pt x="288" y="19" on="0"/>
        <pt x="297" y="28" on="1"/>
        <pt x="300" y="35" on="0"/>
        <pt x="317" y="35" on="1"/>
        <pt x="320" y="36" on="0"/>
        <pt x="328" y="37" on="0"/>
        <pt x="333" y="38" on="0"/>
        <pt x="333" y="39" on="1"/>
        <pt x="334" y="41" on="0"/>
        <pt x="333" y="43" on="0"/>
        <pt x="330" y="50" on="1"/>
        <pt x="327" y="58" on="0"/>
        <pt x="218" y="197" on="0"/>
        <pt x="215" y="199" on="1"/>
        <pt x="212" y="202" on="0"/>
        <pt x="206" y="199" on="1"/>
        <pt x="201" y="195" on="0"/>
        <pt x="201" y="137" on="1"/>
        <pt x="201" y="77" on="0"/>
        <pt x="204" y="70" on="1"/>
        <pt x="210" y="35" on="0"/>
        <pt x="230" y="35" on="1"/>
        <pt x="238" y="35" on="0"/>
        <pt x="248" y="23" on="0"/>
        <pt x="248" y="15" on="1"/>
        <pt x="248" y="8" on="0"/>
        <pt x="244" y="3" on="1"/>
        <pt x="237" y="-1" on="1"/>
        <pt x="28" y="-1" on="1"/>
        <pt x="21" y="3" on="1"/>
        <pt x="17" y="13" on="0"/>
        <pt x="17" y="17" on="1"/>
        <pt x="17" y="24" on="0"/>
        <pt x="28" y="35" on="0"/>
        <pt x="35" y="35" on="1"/>
        <pt x="55" y="35" on="0"/>
        <pt x="61" y="70" on="1"/>
        <pt x="63" y="78" on="0"/>
        <pt x="63" y="604" on="0"/>
        <pt x="61" y="612" on="1"/>
        <pt x="55" y="648" on="0"/>
        <pt x="35" y="648" on="1"/>
        <pt x="27" y="648" on="0"/>
        <pt x="17" y="660" on="0"/>
        <pt x="17" y="668" on="1"/>
        <pt x="17" y="678" on="0"/>
        <pt x="28" y="683" on="1"/>
        <pt x="108" y="683" on="1"/>
        <pt x="163" y="683" on="1"/>
        <pt x="189" y="683" on="0"/>
        <pt x="197" y="677" on="1"/>
        <pt x="200" y="676" on="0"/>
        <pt x="201" y="675" on="1"/>
        <pt x="201" y="461" on="1"/>
        <pt x="204" y="246" on="1"/>
        <pt x="244" y="281" on="1"/>
        <pt x="254" y="291" on="0"/>
        <pt x="272" y="307" on="1"/>
        <pt x="317" y="349" on="0"/>
        <pt x="336" y="371" on="0"/>
        <pt x="339" y="386" on="1"/>
        <pt x="340" y="390" on="0"/>
        <pt x="340" y="398" on="1"/>
        <pt x="340" y="426" on="0"/>
        <pt x="321" y="426" on="1"/>
        <pt x="314" y="426" on="0"/>
        <pt x="304" y="437" on="0"/>
        <pt x="304" y="445" on="1"/>
        <pt x="304" y="454" on="0"/>
        <pt x="315" y="461" on="1"/>
        <pt x="508" y="461" on="1"/>
        <pt x="519" y="450" on="0"/>
      </contour>
      <contour>
        <pt x="166" y="359" on="1"/>
        <pt x="166" y="648" on="1"/>
        <pt x="126" y="648" on="1"/>
        <pt x="89" y="648" on="0"/>
        <pt x="89" y="645" on="1"/>
        <pt x="89" y="644" on="0"/>
        <pt x="90" y="644" on="0"/>
        <pt x="90" y="642" on="0"/>
        <pt x="92" y="638" on="0"/>
        <pt x="94" y="630" on="0"/>
        <pt x="95" y="626" on="1"/>
        <pt x="99" y="612" on="0"/>
        <pt x="99" y="70" on="0"/>
        <pt x="95" y="57" on="1"/>
        <pt x="94" y="53" on="0"/>
        <pt x="92" y="45" on="0"/>
        <pt x="90" y="40" on="0"/>
        <pt x="90" y="39" on="1"/>
        <pt x="89" y="37" on="1"/>
        <pt x="89" y="35" on="0"/>
        <pt x="133" y="35" on="1"/>
        <pt x="176" y="35" on="0"/>
        <pt x="176" y="37" on="1"/>
        <pt x="175" y="38" on="0"/>
        <pt x="175" y="39" on="1"/>
        <pt x="175" y="42" on="0"/>
        <pt x="170" y="57" on="1"/>
        <pt x="166" y="70" on="0"/>
      </contour>
      <contour>
        <pt x="410" y="423" on="1"/>
        <pt x="412" y="425" on="0"/>
        <pt x="407" y="426" on="1"/>
        <pt x="404" y="426" on="0"/>
        <pt x="393" y="426" on="1"/>
        <pt x="373" y="426" on="0"/>
        <pt x="373" y="423" on="1"/>
        <pt x="374" y="422" on="0"/>
        <pt x="376" y="412" on="0"/>
        <pt x="377" y="410" on="1"/>
        <pt x="377" y="399" on="0"/>
        <pt x="379" y="399" on="1"/>
        <pt x="406" y="419" on="0"/>
      </contour>
      <contour>
        <pt x="460" y="35" on="0"/>
        <pt x="460" y="39" on="0"/>
        <pt x="368" y="152" on="1"/>
        <pt x="281" y="263" on="1"/>
        <pt x="280" y="263" on="0"/>
        <pt x="259" y="246" on="1"/>
        <pt x="239" y="228" on="1"/>
        <pt x="250" y="215" on="1"/>
        <pt x="325" y="123" on="0"/>
        <pt x="355" y="79" on="1"/>
        <pt x="370" y="61" on="0"/>
        <pt x="370" y="41" on="1"/>
        <pt x="370" y="35" on="1"/>
        <pt x="417" y="35" on="1"/>
      </contour>
    </TTGlyph>
    <TTGlyph name="lozenge" xMin="56" yMin="-132" xMax="611" yMax="716">
      <contour>
        <pt x="318" y="709" on="1"/>
        <pt x="325" y="716" on="0"/>
        <pt x="332" y="716" on="1"/>
        <pt x="340" y="716" on="0"/>
        <pt x="348" y="710" on="0"/>
        <pt x="474" y="511" on="1"/>
        <pt x="503" y="467" on="0"/>
        <pt x="571" y="359" on="0"/>
        <pt x="605" y="307" on="0"/>
        <pt x="606" y="305" on="1"/>
        <pt x="611" y="296" on="0"/>
        <pt x="611" y="292" on="1"/>
        <pt x="611" y="287" on="0"/>
        <pt x="606" y="278" on="1"/>
        <pt x="600" y="271" on="0"/>
        <pt x="471" y="67" on="0"/>
        <pt x="347" y="-128" on="0"/>
        <pt x="344" y="-130" on="1"/>
        <pt x="340" y="-132" on="0"/>
        <pt x="326" y="-132" on="0"/>
        <pt x="322" y="-130" on="1"/>
        <pt x="319" y="-128" on="0"/>
        <pt x="195" y="67" on="0"/>
        <pt x="66" y="271" on="0"/>
        <pt x="60" y="278" on="1"/>
        <pt x="56" y="285" on="0"/>
        <pt x="56" y="292" on="1"/>
        <pt x="56" y="298" on="0"/>
        <pt x="60" y="305" on="1"/>
        <pt x="73" y="326" on="0"/>
        <pt x="316" y="707" on="0"/>
      </contour>
      <contour>
        <pt x="567" y="290" on="0"/>
        <pt x="567" y="292" on="0"/>
        <pt x="334" y="658" on="0"/>
        <pt x="333" y="658" on="1"/>
        <pt x="100" y="316" on="0"/>
        <pt x="100" y="293" on="1"/>
        <pt x="100" y="288" on="0"/>
        <pt x="215" y="108" on="1"/>
        <pt x="333" y="-74" on="1"/>
        <pt x="334" y="-74" on="0"/>
      </contour>
    </TTGlyph>
    <TTGlyph name="minus" xMin="84" yMin="230" xMax="417" yMax="270">
      <contour>
        <pt x="84" y="237" on="0"/>
        <pt x="84" y="263" on="0"/>
        <pt x="98" y="270" on="1"/>
        <pt x="402" y="270" on="1"/>
        <pt x="417" y="262" on="0"/>
        <pt x="417" y="238" on="0"/>
        <pt x="402" y="230" on="1"/>
        <pt x="98" y="230" on="1"/>
      </contour>
    </TTGlyph>
    <TTGlyph name="proportional" xMin="56" yMin="28" xMax="722" yMax="472">
      <contour>
        <pt x="722" y="48" on="1"/>
        <pt x="722" y="28" on="0"/>
        <pt x="698" y="28" on="1"/>
        <pt x="649" y="28" on="0"/>
        <pt x="559" y="73" on="0"/>
        <pt x="531" y="107" on="1"/>
        <pt x="505" y="138" on="0"/>
        <pt x="493" y="174" on="1"/>
        <pt x="490" y="184" on="1"/>
        <pt x="467" y="131" on="0"/>
        <pt x="448" y="107" on="1"/>
        <pt x="421" y="73" on="0"/>
        <pt x="325" y="28" on="0"/>
        <pt x="277" y="28" on="1"/>
        <pt x="198" y="28" on="0"/>
        <pt x="136" y="79" on="1"/>
        <pt x="99" y="110" on="0"/>
        <pt x="77" y="154" on="1"/>
        <pt x="56" y="202" on="0"/>
        <pt x="56" y="250" on="1"/>
        <pt x="56" y="300" on="0"/>
        <pt x="78" y="348" on="1"/>
        <pt x="106" y="402" on="0"/>
        <pt x="208" y="472" on="0"/>
        <pt x="276" y="472" on="1"/>
        <pt x="327" y="472" on="0"/>
        <pt x="418" y="427" on="0"/>
        <pt x="448" y="393" on="1"/>
        <pt x="474" y="362" on="0"/>
        <pt x="486" y="326" on="1"/>
        <pt x="489" y="316" on="1"/>
        <pt x="512" y="369" on="0"/>
        <pt x="531" y="393" on="1"/>
        <pt x="559" y="427" on="0"/>
        <pt x="649" y="472" on="0"/>
        <pt x="698" y="472" on="1"/>
        <pt x="722" y="472" on="0"/>
        <pt x="722" y="452" on="1"/>
        <pt x="722" y="434" on="0"/>
        <pt x="693" y="432" on="1"/>
        <pt x="620" y="427" on="0"/>
        <pt x="571" y="377" on="1"/>
        <pt x="520" y="323" on="0"/>
        <pt x="520" y="250" on="1"/>
        <pt x="520" y="173" on="0"/>
        <pt x="620" y="73" on="0"/>
        <pt x="693" y="68" on="1"/>
        <pt x="722" y="66" on="0"/>
      </contour>
      <contour>
        <pt x="278" y="68" on="1"/>
        <pt x="356" y="68" on="0"/>
        <pt x="459" y="175" on="0"/>
        <pt x="459" y="250" on="1"/>
        <pt x="459" y="286" on="0"/>
        <pt x="447" y="317" on="1"/>
        <pt x="429" y="361" on="0"/>
        <pt x="355" y="422" on="0"/>
        <pt x="308" y="430" on="1"/>
        <pt x="302" y="431" on="0"/>
        <pt x="273" y="431" on="1"/>
        <pt x="199" y="431" on="0"/>
        <pt x="96" y="324" on="0"/>
        <pt x="96" y="250" on="1"/>
        <pt x="96" y="177" on="0"/>
        <pt x="147" y="123" on="1"/>
        <pt x="186" y="82" on="0"/>
        <pt x="248" y="70" on="1"/>
        <pt x="260" y="68" on="0"/>
      </contour>
    </TTGlyph>
    <TTGlyph name="registered" xMin="32" yMin="-175" xMax="915" yMax="709">
      <contour>
        <pt x="397" y="703" on="1"/>
        <pt x="422" y="709" on="0"/>
        <pt x="464" y="709" on="1"/>
        <pt x="513" y="709" on="0"/>
        <pt x="522" y="708" on="1"/>
        <pt x="640" y="693" on="0"/>
        <pt x="821" y="561" on="0"/>
        <pt x="870" y="464" on="1"/>
        <pt x="900" y="404" on="0"/>
        <pt x="910" y="342" on="1"/>
        <pt x="915" y="315" on="0"/>
        <pt x="915" y="287" on="1"/>
        <pt x="915" y="266" on="1"/>
        <pt x="915" y="220" on="0"/>
        <pt x="909" y="190" on="1"/>
        <pt x="883" y="37" on="0"/>
        <pt x="639" y="-175" on="0"/>
        <pt x="474" y="-175" on="1"/>
        <pt x="302" y="-175" on="0"/>
        <pt x="175" y="-60" on="1"/>
        <pt x="63" y="41" on="0"/>
        <pt x="38" y="190" on="1"/>
        <pt x="32" y="220" on="0"/>
        <pt x="32" y="266" on="1"/>
        <pt x="32" y="287" on="1"/>
        <pt x="32" y="314" on="0"/>
        <pt x="37" y="342" on="1"/>
        <pt x="57" y="457" on="0"/>
        <pt x="129" y="545" on="1"/>
        <pt x="179" y="607" on="0"/>
        <pt x="319" y="690" on="0"/>
      </contour>
      <contour>
        <pt x="519" y="668" on="1"/>
        <pt x="510" y="669" on="0"/>
        <pt x="465" y="669" on="1"/>
        <pt x="448" y="669" on="1"/>
        <pt x="364" y="662" on="0"/>
        <pt x="299" y="630" on="1"/>
        <pt x="211" y="588" on="0"/>
        <pt x="93" y="431" on="0"/>
        <pt x="77" y="336" on="1"/>
        <pt x="72" y="312" on="0"/>
        <pt x="72" y="285" on="1"/>
        <pt x="72" y="266" on="1"/>
        <pt x="72" y="231" on="0"/>
        <pt x="74" y="217" on="1"/>
        <pt x="91" y="79" on="0"/>
        <pt x="289" y="-116" on="0"/>
        <pt x="428" y="-133" on="1"/>
        <pt x="440" y="-135" on="0"/>
        <pt x="474" y="-135" on="1"/>
        <pt x="507" y="-135" on="0"/>
        <pt x="519" y="-133" on="1"/>
        <pt x="634" y="-120" on="0"/>
        <pt x="727" y="-46" on="1"/>
        <pt x="756" y="-22" on="0"/>
        <pt x="784" y="11" on="1"/>
        <pt x="858" y="102" on="0"/>
        <pt x="873" y="217" on="1"/>
        <pt x="875" y="231" on="0"/>
        <pt x="875" y="266" on="1"/>
        <pt x="875" y="285" on="1"/>
        <pt x="875" y="312" on="0"/>
        <pt x="870" y="336" on="1"/>
        <pt x="853" y="437" on="0"/>
        <pt x="788" y="518" on="1"/>
        <pt x="686" y="648" on="0"/>
      </contour>
      <contour>
        <pt x="424" y="0" on="1"/>
        <pt x="413" y="3" on="0"/>
        <pt x="223" y="3" on="0"/>
        <pt x="212" y="0" on="1"/>
        <pt x="204" y="0" on="1"/>
        <pt x="204" y="40" on="1"/>
        <pt x="218" y="40" on="1"/>
        <pt x="237" y="40" on="0"/>
        <pt x="243" y="41" on="1"/>
        <pt x="260" y="42" on="0"/>
        <pt x="270" y="48" on="0"/>
        <pt x="276" y="58" on="1"/>
        <pt x="276" y="457" on="1"/>
        <pt x="271" y="464" on="0"/>
        <pt x="267" y="468" on="0"/>
        <pt x="255" y="472" on="0"/>
        <pt x="243" y="473" on="1"/>
        <pt x="237" y="474" on="0"/>
        <pt x="218" y="474" on="1"/>
        <pt x="204" y="474" on="1"/>
        <pt x="204" y="514" on="1"/>
        <pt x="335" y="514" on="1"/>
        <pt x="477" y="514" on="0"/>
        <pt x="499" y="510" on="1"/>
        <pt x="544" y="504" on="0"/>
        <pt x="622" y="463" on="0"/>
        <pt x="642" y="434" on="1"/>
        <pt x="661" y="407" on="0"/>
        <pt x="661" y="375" on="1"/>
        <pt x="661" y="359" on="0"/>
        <pt x="659" y="353" on="1"/>
        <pt x="651" y="322" on="0"/>
        <pt x="593" y="271" on="0"/>
        <pt x="556" y="257" on="1"/>
        <pt x="547" y="253" on="1"/>
        <pt x="552" y="249" on="0"/>
        <pt x="559" y="245" on="1"/>
        <pt x="590" y="224" on="0"/>
        <pt x="614" y="177" on="0"/>
        <pt x="626" y="124" on="1"/>
        <pt x="640" y="57" on="0"/>
        <pt x="651" y="41" on="1"/>
        <pt x="663" y="23" on="0"/>
        <pt x="683" y="23" on="1"/>
        <pt x="715" y="23" on="0"/>
        <pt x="720" y="68" on="1"/>
        <pt x="721" y="78" on="0"/>
        <pt x="728" y="84" on="0"/>
        <pt x="752" y="84" on="0"/>
        <pt x="760" y="79" on="0"/>
        <pt x="760" y="70" on="1"/>
        <pt x="760" y="45" on="0"/>
        <pt x="735" y="2" on="0"/>
        <pt x="715" y="-7" on="1"/>
        <pt x="700" y="-14" on="0"/>
        <pt x="673" y="-14" on="1"/>
        <pt x="669" y="-14" on="0"/>
        <pt x="650" y="-13" on="0"/>
        <pt x="647" y="-12" on="1"/>
        <pt x="552" y="0" on="0"/>
        <pt x="534" y="67" on="1"/>
        <pt x="531" y="75" on="0"/>
        <pt x="530" y="169" on="0"/>
        <pt x="528" y="180" on="1"/>
        <pt x="517" y="222" on="0"/>
        <pt x="472" y="236" on="1"/>
        <pt x="466" y="238" on="0"/>
        <pt x="413" y="239" on="1"/>
        <pt x="360" y="239" on="1"/>
        <pt x="360" y="148" on="1"/>
        <pt x="361" y="58" on="1"/>
        <pt x="365" y="48" on="0"/>
        <pt x="376" y="43" on="0"/>
        <pt x="393" y="41" on="1"/>
        <pt x="399" y="40" on="0"/>
        <pt x="418" y="40" on="1"/>
        <pt x="432" y="40" on="1"/>
        <pt x="432" y="0" on="1"/>
      </contour>
      <contour>
        <pt x="561" y="375" on="1"/>
        <pt x="561" y="424" on="0"/>
        <pt x="526" y="463" on="0"/>
        <pt x="482" y="472" on="1"/>
        <pt x="478" y="473" on="0"/>
        <pt x="427" y="474" on="1"/>
        <pt x="415" y="474" on="0"/>
        <pt x="391" y="474" on="0"/>
        <pt x="384" y="474" on="1"/>
        <pt x="376" y="473" on="1"/>
        <pt x="364" y="470" on="0"/>
        <pt x="361" y="460" on="1"/>
        <pt x="360" y="458" on="0"/>
        <pt x="360" y="366" on="1"/>
        <pt x="360" y="276" on="1"/>
        <pt x="416" y="276" on="1"/>
        <pt x="480" y="277" on="0"/>
        <pt x="500" y="282" on="1"/>
        <pt x="525" y="288" on="0"/>
        <pt x="542" y="305" on="1"/>
        <pt x="561" y="324" on="0"/>
      </contour>
    </TTGlyph>
    <TTGlyph name="similar" xMin="55" yMin="132" xMax="719" yMax="365">
      <contour>
        <pt x="73" y="132" on="1"/>
        <pt x="55" y="132" on="0"/>
        <pt x="55" y="172" on="1"/>
        <pt x="55" y="219" on="0"/>
        <pt x="79" y="272" on="1"/>
        <pt x="95" y="301" on="0"/>
        <pt x="111" y="319" on="1"/>
        <pt x="148" y="353" on="0"/>
        <pt x="195" y="363" on="1"/>
        <pt x="199" y="364" on="0"/>
        <pt x="212" y="364" on="1"/>
        <pt x="244" y="364" on="0"/>
        <pt x="266" y="359" on="1"/>
        <pt x="310" y="348" on="0"/>
        <pt x="408" y="272" on="1"/>
        <pt x="472" y="222" on="0"/>
        <pt x="522" y="212" on="1"/>
        <pt x="537" y="208" on="0"/>
        <pt x="555" y="208" on="1"/>
        <pt x="606" y="208" on="0"/>
        <pt x="646" y="243" on="1"/>
        <pt x="682" y="279" on="0"/>
        <pt x="688" y="330" on="1"/>
        <pt x="692" y="359" on="0"/>
        <pt x="702" y="365" on="1"/>
        <pt x="713" y="365" on="0"/>
        <pt x="719" y="341" on="0"/>
        <pt x="719" y="314" on="1"/>
        <pt x="714" y="238" on="0"/>
        <pt x="622" y="132" on="0"/>
        <pt x="549" y="132" on="1"/>
        <pt x="532" y="132" on="0"/>
        <pt x="524" y="134" on="1"/>
        <pt x="473" y="146" on="0"/>
        <pt x="402" y="199" on="1"/>
        <pt x="331" y="253" on="0"/>
        <pt x="268" y="286" on="0"/>
        <pt x="231" y="290" on="1"/>
        <pt x="223" y="290" on="1"/>
        <pt x="163" y="290" on="0"/>
        <pt x="124" y="248" on="1"/>
        <pt x="86" y="207" on="0"/>
        <pt x="86" y="165" on="1"/>
        <pt x="86" y="155" on="0"/>
        <pt x="77" y="133" on="0"/>
      </contour>
    </TTGlyph>
    <TTGlyph name="therefore" xMin="24" yMin="-82" xMax="643" yMax="471">
      <contour>
        <pt x="273" y="411" on="1"/>
        <pt x="273" y="437" on="0"/>
        <pt x="308" y="471" on="0"/>
        <pt x="334" y="471" on="1"/>
        <pt x="358" y="471" on="0"/>
        <pt x="393" y="436" on="0"/>
        <pt x="393" y="386" on="0"/>
        <pt x="358" y="351" on="0"/>
        <pt x="308" y="351" on="0"/>
        <pt x="273" y="386" on="0"/>
      </contour>
      <contour>
        <pt x="143" y="4" on="0"/>
        <pt x="143" y="-48" on="0"/>
        <pt x="109" y="-82" on="0"/>
        <pt x="57" y="-82" on="0"/>
        <pt x="24" y="-48" on="0"/>
        <pt x="24" y="4" on="0"/>
        <pt x="58" y="38" on="0"/>
        <pt x="110" y="38" on="0"/>
      </contour>
      <contour>
        <pt x="609" y="-82" on="0"/>
        <pt x="557" y="-82" on="0"/>
        <pt x="524" y="-48" on="0"/>
        <pt x="524" y="4" on="0"/>
        <pt x="558" y="38" on="0"/>
        <pt x="584" y="38" on="1"/>
        <pt x="609" y="38" on="0"/>
        <pt x="643" y="4" on="0"/>
        <pt x="643" y="-48" on="0"/>
      </contour>
    </TTGlyph>
    <TTGlyph name="tilde" xMin="2" yMin="628" xMax="2329" yMax="899">
      <contour>
        <pt x="784" y="897" on="1"/>
        <pt x="792" y="898" on="0"/>
        <pt x="826" y="898" on="1"/>
        <pt x="893" y="898" on="0"/>
        <pt x="947" y="895" on="1"/>
        <pt x="1009" y="887" on="0"/>
        <pt x="1103" y="857" on="0"/>
        <pt x="1187" y="819" on="1"/>
        <pt x="1283" y="777" on="0"/>
        <pt x="1397" y="746" on="0"/>
        <pt x="1478" y="741" on="1"/>
        <pt x="1510" y="739" on="0"/>
        <pt x="1527" y="739" on="1"/>
        <pt x="1787" y="739" on="0"/>
        <pt x="2267" y="886" on="1"/>
        <pt x="2277" y="889" on="0"/>
        <pt x="2300" y="895" on="0"/>
        <pt x="2312" y="899" on="0"/>
        <pt x="2313" y="899" on="1"/>
        <pt x="2320" y="899" on="0"/>
        <pt x="2320" y="895" on="1"/>
        <pt x="2323" y="890" on="0"/>
        <pt x="2331" y="829" on="0"/>
        <pt x="2329" y="824" on="1"/>
        <pt x="2329" y="818" on="0"/>
        <pt x="2296" y="795" on="1"/>
        <pt x="2273" y="787" on="0"/>
        <pt x="2089" y="732" on="1"/>
        <pt x="1810" y="657" on="0"/>
        <pt x="1598" y="632" on="1"/>
        <pt x="1562" y="629" on="0"/>
        <pt x="1492" y="629" on="1"/>
        <pt x="1423" y="629" on="0"/>
        <pt x="1396" y="632" on="1"/>
        <pt x="1325" y="641" on="0"/>
        <pt x="1226" y="671" on="0"/>
        <pt x="1144" y="708" on="1"/>
        <pt x="1050" y="750" on="0"/>
        <pt x="935" y="781" on="0"/>
        <pt x="853" y="786" on="1"/>
        <pt x="821" y="788" on="0"/>
        <pt x="804" y="788" on="1"/>
        <pt x="544" y="788" on="0"/>
        <pt x="64" y="641" on="1"/>
        <pt x="54" y="638" on="0"/>
        <pt x="31" y="632" on="0"/>
        <pt x="19" y="628" on="0"/>
        <pt x="18" y="628" on="1"/>
        <pt x="11" y="628" on="0"/>
        <pt x="11" y="632" on="1"/>
        <pt x="8" y="637" on="0"/>
        <pt x="0" y="699" on="0"/>
        <pt x="2" y="704" on="1"/>
        <pt x="2" y="713" on="0"/>
        <pt x="36" y="732" on="1"/>
        <pt x="55" y="739" on="0"/>
        <pt x="242" y="795" on="1"/>
        <pt x="568" y="884" on="0"/>
      </contour>
    </TTGlyph>
    <TTGlyph name="tildecomb" xMin="-2331" yMin="628" xMax="-4" yMax="899">
      <contour>
        <pt x="-1549" y="897" on="1"/>
        <pt x="-1541" y="898" on="0"/>
        <pt x="-1507" y="898" on="1"/>
        <pt x="-1440" y="898" on="0"/>
        <pt x="-1386" y="895" on="1"/>
        <pt x="-1324" y="887" on="0"/>
        <pt x="-1230" y="857" on="0"/>
        <pt x="-1146" y="819" on="1"/>
        <pt x="-1050" y="777" on="0"/>
        <pt x="-936" y="746" on="0"/>
        <pt x="-855" y="741" on="1"/>
        <pt x="-823" y="739" on="0"/>
        <pt x="-806" y="739" on="1"/>
        <pt x="-546" y="739" on="0"/>
        <pt x="-66" y="886" on="1"/>
        <pt x="-56" y="889" on="0"/>
        <pt x="-33" y="895" on="0"/>
        <pt x="-21" y="899" on="0"/>
        <pt x="-20" y="899" on="1"/>
        <pt x="-13" y="899" on="0"/>
        <pt x="-13" y="895" on="1"/>
        <pt x="-10" y="890" on="0"/>
        <pt x="-2" y="829" on="0"/>
        <pt x="-4" y="824" on="1"/>
        <pt x="-4" y="818" on="0"/>
        <pt x="-37" y="795" on="1"/>
        <pt x="-60" y="787" on="0"/>
        <pt x="-244" y="732" on="1"/>
        <pt x="-523" y="657" on="0"/>
        <pt x="-735" y="632" on="1"/>
        <pt x="-771" y="629" on="0"/>
        <pt x="-841" y="629" on="1"/>
        <pt x="-910" y="629" on="0"/>
        <pt x="-937" y="632" on="1"/>
        <pt x="-1008" y="641" on="0"/>
        <pt x="-1107" y="671" on="0"/>
        <pt x="-1189" y="708" on="1"/>
        <pt x="-1283" y="750" on="0"/>
        <pt x="-1398" y="781" on="0"/>
        <pt x="-1480" y="786" on="1"/>
        <pt x="-1512" y="788" on="0"/>
        <pt x="-1529" y="788" on="1"/>
        <pt x="-1789" y="788" on="0"/>
        <pt x="-2269" y="641" on="1"/>
        <pt x="-2279" y="638" on="0"/>
        <pt x="-2302" y="632" on="0"/>
        <pt x="-2314" y="628" on="0"/>
        <pt x="-2315" y="628" on="1"/>
        <pt x="-2322" y="628" on="0"/>
        <pt x="-2322" y="632" on="1"/>
        <pt x="-2325" y="637" on="0"/>
        <pt x="-2333" y="699" on="0"/>
        <pt x="-2331" y="704" on="1"/>
        <pt x="-2331" y="713" on="0"/>
        <pt x="-2297" y="732" on="1"/>
        <pt x="-2278" y="739" on="0"/>
        <pt x="-2091" y="795" on="1"/>
        <pt x="-1765" y="884" on="0"/>
      </contour>
    </TTGlyph>
    <TTGlyph name="triagdn" xMin="84" yMin="-19" xMax="637" yMax="576">
      <contour>
        <pt x="84" y="545" on="0"/>
        <pt x="84" y="567" on="0"/>
        <pt x="99" y="576" on="1"/>
        <pt x="622" y="576" on="1"/>
        <pt x="637" y="567" on="0"/>
        <pt x="637" y="556" on="1"/>
        <pt x="637" y="551" on="0"/>
        <pt x="506" y="266" on="0"/>
        <pt x="376" y="-13" on="0"/>
        <pt x="375" y="-14" on="1"/>
        <pt x="368" y="-19" on="0"/>
        <pt x="360" y="-19" on="1"/>
        <pt x="349" y="-19" on="0"/>
        <pt x="342" y="-7" on="1"/>
      </contour>
    </TTGlyph>
    <TTGlyph name="triagup" xMin="84" yMin="-20" xMax="637" yMax="575">
      <contour>
        <pt x="99" y="-20" on="1"/>
        <pt x="84" y="-11" on="0"/>
        <pt x="84" y="0" on="1"/>
        <pt x="84" y="5" on="0"/>
        <pt x="213" y="286" on="0"/>
        <pt x="278" y="424" on="1"/>
        <pt x="342" y="563" on="1"/>
        <pt x="349" y="575" on="0"/>
        <pt x="360" y="575" on="1"/>
        <pt x="368" y="575" on="0"/>
        <pt x="375" y="570" on="1"/>
        <pt x="376" y="569" on="0"/>
        <pt x="506" y="290" on="0"/>
        <pt x="637" y="5" on="0"/>
        <pt x="637" y="0" on="1"/>
        <pt x="637" y="-11" on="0"/>
        <pt x="622" y="-20" on="1"/>
      </contour>
    </TTGlyph>
    <TTGlyph name="uni0302" xMin="-2347" yMin="561" xMax="13" yMax="845">
      <contour>
        <pt x="5" y="630" on="1"/>
        <pt x="13" y="630" on="0"/>
        <pt x="13" y="618" on="1"/>
        <pt x="13" y="616" on="0"/>
        <pt x="10" y="599" on="1"/>
        <pt x="4" y="563" on="0"/>
        <pt x="-1" y="561" on="1"/>
        <pt x="-4" y="561" on="0"/>
        <pt x="-584" y="654" on="1"/>
        <pt x="-716" y="675" on="0"/>
        <pt x="-1019" y="724" on="0"/>
        <pt x="-1165" y="748" on="0"/>
        <pt x="-1166" y="748" on="1"/>
        <pt x="-1168" y="748" on="0"/>
        <pt x="-1312" y="725" on="0"/>
        <pt x="-1621" y="675" on="0"/>
        <pt x="-1750" y="654" on="1"/>
        <pt x="-2330" y="561" on="0"/>
        <pt x="-2332" y="561" on="1"/>
        <pt x="-2338" y="563" on="0"/>
        <pt x="-2344" y="599" on="1"/>
        <pt x="-2347" y="611" on="0"/>
        <pt x="-2347" y="625" on="0"/>
        <pt x="-2333" y="631" on="0"/>
        <pt x="-2310" y="635" on="1"/>
        <pt x="-2302" y="636" on="0"/>
        <pt x="-2297" y="637" on="1"/>
        <pt x="-2270" y="641" on="0"/>
        <pt x="-1712" y="745" on="1"/>
        <pt x="-1185" y="845" on="0"/>
        <pt x="-1168" y="845" on="1"/>
        <pt x="-1166" y="845" on="0"/>
        <pt x="-581" y="739" on="1"/>
      </contour>
    </TTGlyph>
    <TTGlyph name="uni03DD" xMin="55" yMin="-85" xMax="719" yMax="605">
      <contour>
        <pt x="351" y="270" on="1"/>
        <pt x="375" y="270" on="0"/>
        <pt x="408" y="270" on="0"/>
        <pt x="434" y="269" on="0"/>
        <pt x="447" y="269" on="0"/>
        <pt x="461" y="266" on="0"/>
        <pt x="463" y="266" on="0"/>
        <pt x="475" y="262" on="0"/>
        <pt x="477" y="261" on="1"/>
        <pt x="477" y="258" on="0"/>
        <pt x="468" y="254" on="1"/>
        <pt x="456" y="250" on="0"/>
        <pt x="348" y="250" on="1"/>
        <pt x="235" y="250" on="1"/>
        <pt x="209" y="141" on="0"/>
        <pt x="155" y="-77" on="1"/>
        <pt x="146" y="-82" on="1"/>
        <pt x="137" y="-85" on="0"/>
        <pt x="109" y="-85" on="1"/>
        <pt x="55" y="-85" on="0"/>
        <pt x="55" y="-77" on="1"/>
        <pt x="55" y="-76" on="0"/>
        <pt x="139" y="262" on="0"/>
        <pt x="224" y="596" on="0"/>
        <pt x="226" y="598" on="1"/>
        <pt x="229" y="603" on="0"/>
        <pt x="239" y="603" on="1"/>
        <pt x="240" y="603" on="0"/>
        <pt x="268" y="603" on="0"/>
        <pt x="313" y="604" on="0"/>
        <pt x="369" y="605" on="0"/>
        <pt x="442" y="605" on="0"/>
        <pt x="477" y="605" on="1"/>
        <pt x="656" y="603" on="0"/>
        <pt x="719" y="601" on="0"/>
        <pt x="719" y="596" on="1"/>
        <pt x="719" y="589" on="0"/>
        <pt x="664" y="587" on="0"/>
        <pt x="513" y="585" on="1"/>
        <pt x="319" y="585" on="1"/>
        <pt x="282" y="427" on="1"/>
        <pt x="242" y="272" on="1"/>
        <pt x="242" y="270" on="0"/>
      </contour>
    </TTGlyph>
    <TTGlyph name="uni03F0" xMin="37" yMin="-6" xMax="734" yMax="434">
      <contour>
        <pt x="691" y="434" on="1"/>
        <pt x="708" y="434" on="0"/>
        <pt x="734" y="420" on="0"/>
        <pt x="734" y="406" on="1"/>
        <pt x="734" y="394" on="0"/>
        <pt x="719" y="381" on="1"/>
        <pt x="715" y="376" on="0"/>
        <pt x="644" y="330" on="1"/>
        <pt x="575" y="287" on="1"/>
        <pt x="566" y="267" on="1"/>
        <pt x="543" y="233" on="0"/>
        <pt x="526" y="176" on="1"/>
        <pt x="520" y="160" on="0"/>
        <pt x="510" y="125" on="0"/>
        <pt x="505" y="105" on="0"/>
        <pt x="506" y="105" on="1"/>
        <pt x="506" y="103" on="0"/>
        <pt x="533" y="103" on="1"/>
        <pt x="600" y="103" on="0"/>
        <pt x="617" y="114" on="1"/>
        <pt x="621" y="118" on="0"/>
        <pt x="641" y="118" on="1"/>
        <pt x="670" y="118" on="0"/>
        <pt x="670" y="107" on="1"/>
        <pt x="670" y="100" on="0"/>
        <pt x="661" y="85" on="1"/>
        <pt x="643" y="50" on="0"/>
        <pt x="552" y="3" on="0"/>
        <pt x="504" y="3" on="1"/>
        <pt x="465" y="3" on="0"/>
        <pt x="450" y="36" on="1"/>
        <pt x="441" y="51" on="0"/>
        <pt x="441" y="73" on="1"/>
        <pt x="441" y="84" on="0"/>
        <pt x="444" y="96" on="1"/>
        <pt x="452" y="146" on="0"/>
        <pt x="484" y="205" on="1"/>
        <pt x="497" y="236" on="1"/>
        <pt x="419" y="187" on="0"/>
        <pt x="324" y="125" on="1"/>
        <pt x="143" y="12" on="0"/>
        <pt x="135" y="10" on="1"/>
        <pt x="103" y="-6" on="0"/>
        <pt x="77" y="-6" on="1"/>
        <pt x="61" y="-6" on="0"/>
        <pt x="37" y="10" on="0"/>
        <pt x="37" y="21" on="1"/>
        <pt x="37" y="36" on="0"/>
        <pt x="61" y="56" on="0"/>
        <pt x="124" y="96" on="1"/>
        <pt x="195" y="141" on="1"/>
        <pt x="204" y="156" on="1"/>
        <pt x="215" y="172" on="0"/>
        <pt x="224" y="196" on="1"/>
        <pt x="237" y="228" on="0"/>
        <pt x="267" y="319" on="0"/>
        <pt x="264" y="323" on="1"/>
        <pt x="264" y="325" on="0"/>
        <pt x="228" y="325" on="1"/>
        <pt x="166" y="322" on="0"/>
        <pt x="153" y="314" on="1"/>
        <pt x="148" y="309" on="0"/>
        <pt x="127" y="309" on="1"/>
        <pt x="108" y="309" on="0"/>
        <pt x="104" y="314" on="1"/>
        <pt x="99" y="319" on="0"/>
        <pt x="100" y="326" on="0"/>
        <pt x="108" y="341" on="1"/>
        <pt x="125" y="376" on="0"/>
        <pt x="217" y="425" on="0"/>
        <pt x="268" y="425" on="1"/>
        <pt x="304" y="425" on="0"/>
        <pt x="319" y="396" on="1"/>
        <pt x="328" y="377" on="0"/>
        <pt x="328" y="358" on="1"/>
        <pt x="328" y="332" on="0"/>
        <pt x="324" y="314" on="1"/>
        <pt x="311" y="270" on="0"/>
        <pt x="286" y="221" on="1"/>
        <pt x="274" y="194" on="0"/>
        <pt x="274" y="192" on="1"/>
        <pt x="275" y="192" on="1"/>
        <pt x="339" y="234" on="0"/>
        <pt x="630" y="417" on="0"/>
        <pt x="639" y="421" on="1"/>
        <pt x="671" y="434" on="0"/>
      </contour>
    </TTGlyph>
    <TTGlyph name="uni2035" xMin="12" yMin="43" xMax="244" yMax="560">
      <contour>
        <pt x="63" y="558" on="1"/>
        <pt x="73" y="560" on="0"/>
        <pt x="77" y="560" on="1"/>
        <pt x="114" y="560" on="0"/>
        <pt x="128" y="528" on="1"/>
        <pt x="133" y="518" on="0"/>
        <pt x="244" y="68" on="0"/>
        <pt x="244" y="61" on="1"/>
        <pt x="244" y="57" on="0"/>
        <pt x="218" y="48" on="1"/>
        <pt x="202" y="43" on="0"/>
        <pt x="195" y="43" on="1"/>
        <pt x="192" y="43" on="0"/>
        <pt x="188" y="47" on="0"/>
        <pt x="15" y="479" on="0"/>
        <pt x="14" y="486" on="1"/>
        <pt x="12" y="496" on="0"/>
        <pt x="12" y="501" on="1"/>
        <pt x="12" y="536" on="0"/>
        <pt x="46" y="552" on="1"/>
        <pt x="56" y="558" on="0"/>
      </contour>
    </TTGlyph>
    <TTGlyph name="uni210F" xMin="42" yMin="-13" xMax="562" yMax="695">
      <contour>
        <pt x="42" y="26" on="1"/>
        <pt x="42" y="29" on="0"/>
        <pt x="151" y="475" on="1"/>
        <pt x="150" y="475" on="1"/>
        <pt x="146" y="475" on="0"/>
        <pt x="85" y="457" on="0"/>
        <pt x="82" y="457" on="1"/>
        <pt x="73" y="457" on="0"/>
        <pt x="54" y="477" on="0"/>
        <pt x="54" y="487" on="1"/>
        <pt x="54" y="490" on="0"/>
        <pt x="55" y="492" on="1"/>
        <pt x="63" y="506" on="0"/>
        <pt x="64" y="506" on="1"/>
        <pt x="67" y="512" on="0"/>
        <pt x="118" y="526" on="1"/>
        <pt x="162" y="541" on="0"/>
        <pt x="169" y="546" on="1"/>
        <pt x="173" y="559" on="0"/>
        <pt x="175" y="575" on="1"/>
        <pt x="181" y="596" on="0"/>
        <pt x="181" y="604" on="1"/>
        <pt x="181" y="613" on="0"/>
        <pt x="166" y="617" on="1"/>
        <pt x="164" y="617" on="0"/>
        <pt x="141" y="619" on="0"/>
        <pt x="135" y="619" on="1"/>
        <pt x="119" y="619" on="0"/>
        <pt x="109" y="623" on="0"/>
        <pt x="109" y="630" on="1"/>
        <pt x="109" y="636" on="0"/>
        <pt x="120" y="677" on="0"/>
        <pt x="122" y="681" on="1"/>
        <pt x="125" y="685" on="0"/>
        <pt x="202" y="688" on="1"/>
        <pt x="272" y="695" on="0"/>
        <pt x="286" y="695" on="1"/>
        <pt x="304" y="695" on="0"/>
        <pt x="304" y="684" on="1"/>
        <pt x="304" y="682" on="0"/>
        <pt x="291" y="628" on="1"/>
        <pt x="278" y="577" on="1"/>
        <pt x="291" y="581" on="1"/>
        <pt x="293" y="582" on="0"/>
        <pt x="324" y="591" on="0"/>
        <pt x="367" y="605" on="0"/>
        <pt x="386" y="612" on="1"/>
        <pt x="466" y="635" on="0"/>
        <pt x="486" y="635" on="0"/>
        <pt x="499" y="618" on="0"/>
        <pt x="499" y="607" on="1"/>
        <pt x="499" y="593" on="0"/>
        <pt x="489" y="586" on="1"/>
        <pt x="485" y="583" on="0"/>
        <pt x="373" y="546" on="1"/>
        <pt x="262" y="512" on="1"/>
        <pt x="262" y="511" on="0"/>
        <pt x="233" y="398" on="0"/>
        <pt x="233" y="396" on="0"/>
        <pt x="239" y="399" on="0"/>
        <pt x="244" y="404" on="1"/>
        <pt x="295" y="441" on="0"/>
        <pt x="357" y="441" on="1"/>
        <pt x="402" y="441" on="0"/>
        <pt x="467" y="405" on="0"/>
        <pt x="478" y="375" on="1"/>
        <pt x="485" y="352" on="0"/>
        <pt x="485" y="333" on="1"/>
        <pt x="485" y="282" on="0"/>
        <pt x="435" y="141" on="1"/>
        <pt x="412" y="77" on="0"/>
        <pt x="412" y="58" on="1"/>
        <pt x="412" y="44" on="0"/>
        <pt x="426" y="44" on="1"/>
        <pt x="447" y="44" on="0"/>
        <pt x="466" y="68" on="1"/>
        <pt x="485" y="87" on="0"/>
        <pt x="500" y="130" on="1"/>
        <pt x="509" y="152" on="1"/>
        <pt x="531" y="152" on="1"/>
        <pt x="550" y="152" on="1"/>
        <pt x="562" y="152" on="0"/>
        <pt x="562" y="144" on="1"/>
        <pt x="562" y="134" on="0"/>
        <pt x="551" y="108" on="1"/>
        <pt x="512" y="12" on="0"/>
        <pt x="438" y="-10" on="1"/>
        <pt x="426" y="-13" on="0"/>
        <pt x="415" y="-13" on="1"/>
        <pt x="385" y="-13" on="0"/>
        <pt x="332" y="19" on="0"/>
        <pt x="322" y="44" on="1"/>
        <pt x="318" y="52" on="0"/>
        <pt x="318" y="77" on="1"/>
        <pt x="318" y="97" on="0"/>
        <pt x="335" y="148" on="1"/>
        <pt x="386" y="286" on="0"/>
        <pt x="386" y="337" on="1"/>
        <pt x="386" y="386" on="0"/>
        <pt x="346" y="386" on="1"/>
        <pt x="318" y="386" on="0"/>
        <pt x="286" y="370" on="1"/>
        <pt x="267" y="361" on="0"/>
        <pt x="222" y="315" on="0"/>
        <pt x="211" y="292" on="1"/>
        <pt x="205" y="285" on="0"/>
        <pt x="173" y="157" on="1"/>
        <pt x="165" y="128" on="0"/>
        <pt x="148" y="61" on="0"/>
        <pt x="139" y="24" on="0"/>
        <pt x="138" y="21" on="1"/>
        <pt x="128" y="7" on="0"/>
        <pt x="122" y="4" on="1"/>
        <pt x="105" y="-12" on="0"/>
        <pt x="83" y="-12" on="1"/>
        <pt x="66" y="-12" on="0"/>
        <pt x="42" y="9" on="0"/>
      </contour>
    </TTGlyph>
    <TTGlyph name="uni2127" xMin="44" yMin="-22" xMax="675" yMax="684">
      <contour>
        <pt x="276" y="33" on="0"/>
        <pt x="444" y="33" on="0"/>
        <pt x="533" y="141" on="0"/>
        <pt x="533" y="231" on="1"/>
        <pt x="533" y="278" on="0"/>
        <pt x="515" y="357" on="0"/>
        <pt x="488" y="444" on="1"/>
        <pt x="447" y="581" on="0"/>
        <pt x="442" y="648" on="1"/>
        <pt x="442" y="675" on="0"/>
        <pt x="446" y="679" on="1"/>
        <pt x="448" y="684" on="0"/>
        <pt x="542" y="684" on="1"/>
        <pt x="635" y="684" on="0"/>
        <pt x="637" y="681" on="1"/>
        <pt x="640" y="678" on="0"/>
        <pt x="675" y="509" on="0"/>
        <pt x="675" y="501" on="1"/>
        <pt x="675" y="490" on="0"/>
        <pt x="646" y="490" on="1"/>
        <pt x="624" y="490" on="0"/>
        <pt x="622" y="493" on="1"/>
        <pt x="619" y="493" on="0"/>
        <pt x="611" y="528" on="1"/>
        <pt x="600" y="584" on="0"/>
        <pt x="593" y="584" on="1"/>
        <pt x="591" y="585" on="0"/>
        <pt x="579" y="586" on="0"/>
        <pt x="559" y="587" on="0"/>
        <pt x="551" y="588" on="1"/>
        <pt x="513" y="588" on="1"/>
        <pt x="515" y="584" on="1"/>
        <pt x="526" y="546" on="0"/>
        <pt x="582" y="453" on="1"/>
        <pt x="647" y="340" on="0"/>
        <pt x="660" y="277" on="1"/>
        <pt x="663" y="259" on="0"/>
        <pt x="663" y="232" on="1"/>
        <pt x="663" y="194" on="0"/>
        <pt x="657" y="177" on="1"/>
        <pt x="651" y="146" on="0"/>
        <pt x="624" y="104" on="1"/>
        <pt x="595" y="60" on="0"/>
        <pt x="485" y="-8" on="0"/>
        <pt x="424" y="-19" on="1"/>
        <pt x="403" y="-22" on="0"/>
        <pt x="360" y="-22" on="1"/>
        <pt x="318" y="-22" on="0"/>
        <pt x="297" y="-19" on="1"/>
        <pt x="234" y="-7" on="0"/>
        <pt x="125" y="59" on="0"/>
        <pt x="95" y="104" on="1"/>
        <pt x="68" y="146" on="0"/>
        <pt x="62" y="177" on="1"/>
        <pt x="56" y="194" on="0"/>
        <pt x="56" y="229" on="1"/>
        <pt x="56" y="253" on="0"/>
        <pt x="60" y="277" on="1"/>
        <pt x="71" y="339" on="0"/>
        <pt x="137" y="453" on="1"/>
        <pt x="193" y="546" on="0"/>
        <pt x="204" y="584" on="1"/>
        <pt x="206" y="588" on="1"/>
        <pt x="168" y="588" on="1"/>
        <pt x="160" y="587" on="0"/>
        <pt x="140" y="586" on="0"/>
        <pt x="128" y="585" on="0"/>
        <pt x="126" y="584" on="1"/>
        <pt x="119" y="584" on="0"/>
        <pt x="108" y="528" on="1"/>
        <pt x="100" y="493" on="0"/>
        <pt x="97" y="493" on="1"/>
        <pt x="95" y="490" on="0"/>
        <pt x="73" y="490" on="1"/>
        <pt x="44" y="490" on="0"/>
        <pt x="44" y="501" on="1"/>
        <pt x="44" y="515" on="0"/>
        <pt x="62" y="590" on="1"/>
        <pt x="75" y="672" on="0"/>
        <pt x="82" y="679" on="1"/>
        <pt x="84" y="684" on="0"/>
        <pt x="177" y="684" on="1"/>
        <pt x="271" y="684" on="0"/>
        <pt x="275" y="679" on="1"/>
        <pt x="277" y="677" on="0"/>
        <pt x="277" y="648" on="1"/>
        <pt x="271" y="570" on="0"/>
        <pt x="231" y="444" on="1"/>
        <pt x="203" y="353" on="0"/>
        <pt x="186" y="277" on="0"/>
        <pt x="186" y="231" on="1"/>
        <pt x="186" y="141" on="0"/>
      </contour>
    </TTGlyph>
    <TTGlyph name="uni2132" xMin="55" yMin="-1" xMax="497" yMax="695">
      <contour>
        <pt x="457" y="681" on="1"/>
        <pt x="471" y="695" on="0"/>
        <pt x="477" y="695" on="1"/>
        <pt x="485" y="695" on="0"/>
        <pt x="497" y="681" on="1"/>
        <pt x="497" y="12" on="1"/>
        <pt x="484" y="-1" on="1"/>
        <pt x="68" y="-1" on="1"/>
        <pt x="55" y="15" on="0"/>
        <pt x="55" y="23" on="0"/>
        <pt x="68" y="39" on="1"/>
        <pt x="457" y="39" on="1"/>
        <pt x="457" y="328" on="1"/>
        <pt x="215" y="328" on="1"/>
        <pt x="211" y="335" on="1"/>
        <pt x="198" y="346" on="0"/>
        <pt x="211" y="359" on="1"/>
        <pt x="217" y="368" on="1"/>
        <pt x="457" y="368" on="1"/>
      </contour>
    </TTGlyph>
    <TTGlyph name="uni2136" xMin="-22" yMin="-21" xMax="687" yMax="763">
      <contour>
        <pt x="-9" y="-21" on="1"/>
        <pt x="-10" y="-19" on="0"/>
        <pt x="-16" y="-14" on="0"/>
        <pt x="-19" y="-10" on="0"/>
        <pt x="-22" y="-4" on="0"/>
        <pt x="-22" y="-1" on="1"/>
        <pt x="-22" y="4" on="0"/>
        <pt x="-4" y="24" on="0"/>
        <pt x="42" y="72" on="1"/>
        <pt x="107" y="137" on="1"/>
        <pt x="569" y="137" on="1"/>
        <pt x="569" y="339" on="1"/>
        <pt x="569" y="541" on="0"/>
        <pt x="567" y="546" on="1"/>
        <pt x="558" y="555" on="0"/>
        <pt x="554" y="557" on="1"/>
        <pt x="545" y="563" on="1"/>
        <pt x="329" y="563" on="1"/>
        <pt x="118" y="566" on="0"/>
        <pt x="101" y="569" on="1"/>
        <pt x="90" y="573" on="0"/>
        <pt x="78" y="586" on="1"/>
        <pt x="54" y="610" on="0"/>
        <pt x="54" y="661" on="1"/>
        <pt x="54" y="670" on="0"/>
        <pt x="56" y="706" on="1"/>
        <pt x="56" y="750" on="0"/>
        <pt x="62" y="757" on="1"/>
        <pt x="69" y="763" on="0"/>
        <pt x="83" y="763" on="0"/>
        <pt x="91" y="754" on="0"/>
        <pt x="98" y="741" on="1"/>
        <pt x="108" y="726" on="0"/>
        <pt x="116" y="721" on="1"/>
        <pt x="127" y="717" on="1"/>
        <pt x="340" y="715" on="1"/>
        <pt x="547" y="712" on="0"/>
        <pt x="564" y="709" on="1"/>
        <pt x="575" y="705" on="0"/>
        <pt x="587" y="692" on="1"/>
        <pt x="599" y="680" on="0"/>
        <pt x="605" y="663" on="1"/>
        <pt x="609" y="650" on="1"/>
        <pt x="609" y="137" on="1"/>
        <pt x="676" y="137" on="1"/>
        <pt x="687" y="124" on="0"/>
        <pt x="687" y="115" on="1"/>
        <pt x="687" y="110" on="0"/>
        <pt x="668" y="89" on="0"/>
        <pt x="622" y="43" on="1"/>
        <pt x="558" y="-21" on="1"/>
      </contour>
    </TTGlyph>
    <TTGlyph name="uni2137" xMin="-22" yMin="-43" xMax="421" yMax="764">
      <contour>
        <pt x="56" y="750" on="1"/>
        <pt x="68" y="764" on="0"/>
        <pt x="76" y="764" on="1"/>
        <pt x="91" y="764" on="0"/>
        <pt x="96" y="746" on="1"/>
        <pt x="103" y="723" on="0"/>
        <pt x="125" y="717" on="1"/>
        <pt x="131" y="715" on="0"/>
        <pt x="349" y="715" on="0"/>
        <pt x="358" y="713" on="1"/>
        <pt x="421" y="692" on="0"/>
        <pt x="421" y="640" on="1"/>
        <pt x="421" y="608" on="0"/>
        <pt x="398" y="588" on="1"/>
        <pt x="374" y="568" on="0"/>
        <pt x="358" y="566" on="1"/>
        <pt x="353" y="566" on="0"/>
        <pt x="351" y="564" on="0"/>
        <pt x="351" y="557" on="1"/>
        <pt x="356" y="526" on="1"/>
        <pt x="356" y="486" on="0"/>
        <pt x="376" y="361" on="1"/>
        <pt x="402" y="203" on="0"/>
        <pt x="402" y="97" on="1"/>
        <pt x="400" y="21" on="0"/>
        <pt x="385" y="-12" on="1"/>
        <pt x="366" y="-43" on="0"/>
        <pt x="351" y="-43" on="1"/>
        <pt x="335" y="-43" on="0"/>
        <pt x="329" y="-10" on="1"/>
        <pt x="316" y="40" on="0"/>
        <pt x="316" y="64" on="1"/>
        <pt x="316" y="67" on="0"/>
        <pt x="315" y="67" on="1"/>
        <pt x="313" y="67" on="0"/>
        <pt x="269" y="26" on="1"/>
        <pt x="222" y="-21" on="1"/>
        <pt x="-9" y="-21" on="1"/>
        <pt x="-10" y="-19" on="0"/>
        <pt x="-16" y="-14" on="0"/>
        <pt x="-19" y="-10" on="0"/>
        <pt x="-22" y="-4" on="0"/>
        <pt x="-22" y="-1" on="1"/>
        <pt x="-22" y="4" on="0"/>
        <pt x="-5" y="24" on="0"/>
        <pt x="42" y="73" on="1"/>
        <pt x="107" y="137" on="1"/>
        <pt x="311" y="137" on="1"/>
        <pt x="311" y="564" on="1"/>
        <pt x="211" y="564" on="1"/>
        <pt x="116" y="564" on="0"/>
        <pt x="100" y="570" on="1"/>
        <pt x="72" y="580" on="0"/>
        <pt x="60" y="615" on="1"/>
        <pt x="56" y="630" on="0"/>
        <pt x="56" y="690" on="1"/>
      </contour>
    </TTGlyph>
    <TTGlyph name="uni2138" xMin="54" yMin="-43" xMax="640" yMax="764">
      <contour>
        <pt x="62" y="757" on="1"/>
        <pt x="69" y="764" on="0"/>
        <pt x="75" y="764" on="1"/>
        <pt x="87" y="764" on="0"/>
        <pt x="97" y="741" on="1"/>
        <pt x="102" y="731" on="0"/>
        <pt x="109" y="725" on="0"/>
        <pt x="117" y="721" on="1"/>
        <pt x="129" y="715" on="1"/>
        <pt x="349" y="715" on="1"/>
        <pt x="569" y="715" on="0"/>
        <pt x="580" y="710" on="1"/>
        <pt x="618" y="701" on="0"/>
        <pt x="635" y="670" on="1"/>
        <pt x="640" y="661" on="0"/>
        <pt x="640" y="639" on="1"/>
        <pt x="640" y="609" on="0"/>
        <pt x="622" y="590" on="1"/>
        <pt x="617" y="583" on="0"/>
        <pt x="590" y="567" on="0"/>
        <pt x="580" y="566" on="1"/>
        <pt x="573" y="566" on="1"/>
        <pt x="573" y="553" on="1"/>
        <pt x="574" y="549" on="0"/>
        <pt x="576" y="526" on="0"/>
        <pt x="577" y="521" on="1"/>
        <pt x="584" y="448" on="0"/>
        <pt x="600" y="353" on="1"/>
        <pt x="617" y="247" on="0"/>
        <pt x="624" y="170" on="0"/>
        <pt x="624" y="104" on="1"/>
        <pt x="624" y="46" on="0"/>
        <pt x="609" y="-13" on="0"/>
        <pt x="591" y="-32" on="1"/>
        <pt x="581" y="-43" on="0"/>
        <pt x="573" y="-43" on="1"/>
        <pt x="570" y="-43" on="0"/>
        <pt x="562" y="-39" on="1"/>
        <pt x="549" y="-30" on="0"/>
        <pt x="540" y="44" on="1"/>
        <pt x="535" y="73" on="0"/>
        <pt x="533" y="319" on="1"/>
        <pt x="533" y="564" on="1"/>
        <pt x="322" y="564" on="1"/>
        <pt x="117" y="566" on="0"/>
        <pt x="100" y="570" on="1"/>
        <pt x="90" y="573" on="0"/>
        <pt x="77" y="586" on="1"/>
        <pt x="54" y="609" on="0"/>
        <pt x="54" y="663" on="1"/>
        <pt x="54" y="689" on="0"/>
        <pt x="55" y="706" on="1"/>
        <pt x="55" y="738" on="0"/>
        <pt x="57" y="752" on="0"/>
      </contour>
    </TTGlyph>
    <TTGlyph name="uni2141" xMin="37" yMin="-23" xMax="577" yMax="705">
      <contour>
        <pt x="247" y="290" on="1"/>
        <pt x="247" y="285" on="0"/>
        <pt x="235" y="270" on="1"/>
        <pt x="77" y="270" on="1"/>
        <pt x="77" y="103" on="1"/>
        <pt x="77" y="88" on="0"/>
        <pt x="77" y="71" on="0"/>
        <pt x="77" y="54" on="0"/>
        <pt x="80" y="46" on="0"/>
        <pt x="79" y="39" on="0"/>
        <pt x="85" y="36" on="0"/>
        <pt x="85" y="34" on="0"/>
        <pt x="94" y="30" on="0"/>
        <pt x="95" y="30" on="1"/>
        <pt x="126" y="20" on="0"/>
        <pt x="206" y="17" on="1"/>
        <pt x="289" y="17" on="0"/>
        <pt x="330" y="30" on="1"/>
        <pt x="407" y="55" on="0"/>
        <pt x="514" y="185" on="0"/>
        <pt x="533" y="275" on="1"/>
        <pt x="538" y="305" on="0"/>
        <pt x="538" y="342" on="1"/>
        <pt x="538" y="378" on="0"/>
        <pt x="533" y="408" on="1"/>
        <pt x="513" y="511" on="0"/>
        <pt x="380" y="648" on="0"/>
        <pt x="288" y="661" on="1"/>
        <pt x="267" y="665" on="0"/>
        <pt x="239" y="665" on="1"/>
        <pt x="158" y="665" on="0"/>
        <pt x="86" y="626" on="1"/>
        <pt x="70" y="617" on="0"/>
        <pt x="66" y="617" on="1"/>
        <pt x="59" y="617" on="0"/>
        <pt x="46" y="630" on="0"/>
        <pt x="46" y="637" on="1"/>
        <pt x="46" y="652" on="0"/>
        <pt x="66" y="659" on="1"/>
        <pt x="129" y="695" on="0"/>
        <pt x="197" y="701" on="1"/>
        <pt x="218" y="705" on="0"/>
        <pt x="248" y="705" on="1"/>
        <pt x="293" y="705" on="0"/>
        <pt x="335" y="693" on="1"/>
        <pt x="371" y="684" on="0"/>
        <pt x="435" y="644" on="1"/>
        <pt x="543" y="562" on="0"/>
        <pt x="573" y="417" on="1"/>
        <pt x="577" y="393" on="0"/>
        <pt x="577" y="341" on="1"/>
        <pt x="577" y="290" on="0"/>
        <pt x="573" y="266" on="1"/>
        <pt x="531" y="83" on="0"/>
        <pt x="384" y="10" on="1"/>
        <pt x="346" y="-9" on="0"/>
        <pt x="284" y="-23" on="0"/>
        <pt x="234" y="-23" on="1"/>
        <pt x="206" y="-23" on="1"/>
        <pt x="191" y="-22" on="0"/>
        <pt x="153" y="-21" on="0"/>
        <pt x="130" y="-20" on="0"/>
        <pt x="124" y="-19" on="1"/>
        <pt x="58" y="-6" on="0"/>
        <pt x="44" y="24" on="1"/>
        <pt x="37" y="35" on="1"/>
        <pt x="37" y="297" on="1"/>
        <pt x="50" y="310" on="1"/>
        <pt x="235" y="310" on="1"/>
        <pt x="247" y="298" on="0"/>
      </contour>
    </TTGlyph>
    <TTGlyph name="uni219A" xMin="56" yMin="60" xMax="942" yMax="437">
      <contour>
        <pt x="942" y="256" on="0"/>
        <pt x="942" y="244" on="0"/>
        <pt x="928" y="230" on="1"/>
        <pt x="511" y="230" on="1"/>
        <pt x="457" y="148" on="1"/>
        <pt x="445" y="130" on="0"/>
        <pt x="415" y="85" on="0"/>
        <pt x="400" y="64" on="0"/>
        <pt x="399" y="63" on="1"/>
        <pt x="394" y="60" on="0"/>
        <pt x="389" y="60" on="1"/>
        <pt x="381" y="60" on="0"/>
        <pt x="368" y="72" on="0"/>
        <pt x="368" y="81" on="1"/>
        <pt x="368" y="88" on="0"/>
        <pt x="415" y="159" on="1"/>
        <pt x="462" y="230" on="1"/>
        <pt x="175" y="230" on="1"/>
        <pt x="188" y="214" on="1"/>
        <pt x="210" y="188" on="0"/>
        <pt x="260" y="102" on="0"/>
        <pt x="264" y="85" on="1"/>
        <pt x="264" y="75" on="0"/>
        <pt x="255" y="72" on="0"/>
        <pt x="231" y="72" on="1"/>
        <pt x="206" y="74" on="1"/>
        <pt x="191" y="103" on="1"/>
        <pt x="169" y="142" on="0"/>
        <pt x="164" y="150" on="1"/>
        <pt x="130" y="195" on="0"/>
        <pt x="64" y="239" on="1"/>
        <pt x="56" y="244" on="0"/>
        <pt x="56" y="256" on="0"/>
        <pt x="64" y="261" on="1"/>
        <pt x="115" y="294" on="0"/>
        <pt x="169" y="352" on="0"/>
        <pt x="191" y="397" on="1"/>
        <pt x="206" y="428" on="1"/>
        <pt x="231" y="428" on="1"/>
        <pt x="255" y="428" on="0"/>
        <pt x="264" y="424" on="0"/>
        <pt x="264" y="414" on="1"/>
        <pt x="260" y="397" on="0"/>
        <pt x="209" y="312" on="0"/>
        <pt x="188" y="288" on="1"/>
        <pt x="175" y="272" on="1"/>
        <pt x="331" y="270" on="1"/>
        <pt x="488" y="270" on="0"/>
        <pt x="491" y="272" on="1"/>
        <pt x="491" y="275" on="0"/>
        <pt x="594" y="431" on="0"/>
        <pt x="597" y="432" on="1"/>
        <pt x="602" y="437" on="0"/>
        <pt x="609" y="437" on="1"/>
        <pt x="617" y="437" on="0"/>
        <pt x="628" y="426" on="0"/>
        <pt x="628" y="408" on="0"/>
        <pt x="582" y="341" on="1"/>
        <pt x="537" y="272" on="1"/>
        <pt x="735" y="270" on="1"/>
        <pt x="931" y="270" on="1"/>
      </contour>
    </TTGlyph>
    <TTGlyph name="uni219B" xMin="54" yMin="60" xMax="942" yMax="437">
      <contour>
        <pt x="54" y="250" on="1"/>
        <pt x="54" y="258" on="0"/>
        <pt x="66" y="270" on="1"/>
        <pt x="277" y="270" on="1"/>
        <pt x="488" y="272" on="1"/>
        <pt x="542" y="350" on="1"/>
        <pt x="594" y="429" on="0"/>
        <pt x="597" y="432" on="1"/>
        <pt x="602" y="437" on="0"/>
        <pt x="609" y="437" on="1"/>
        <pt x="617" y="437" on="0"/>
        <pt x="628" y="426" on="0"/>
        <pt x="628" y="408" on="0"/>
        <pt x="582" y="341" on="1"/>
        <pt x="537" y="272" on="1"/>
        <pt x="608" y="270" on="1"/>
        <pt x="751" y="270" on="1"/>
        <pt x="822" y="272" on="1"/>
        <pt x="808" y="288" on="1"/>
        <pt x="786" y="313" on="0"/>
        <pt x="736" y="397" on="0"/>
        <pt x="733" y="414" on="1"/>
        <pt x="733" y="424" on="0"/>
        <pt x="742" y="428" on="0"/>
        <pt x="766" y="428" on="1"/>
        <pt x="793" y="428" on="1"/>
        <pt x="806" y="397" on="1"/>
        <pt x="829" y="354" on="0"/>
        <pt x="864" y="314" on="1"/>
        <pt x="896" y="284" on="0"/>
        <pt x="928" y="263" on="1"/>
        <pt x="942" y="257" on="0"/>
        <pt x="942" y="243" on="0"/>
        <pt x="928" y="237" on="1"/>
        <pt x="887" y="208" on="0"/>
        <pt x="864" y="185" on="1"/>
        <pt x="829" y="147" on="0"/>
        <pt x="806" y="103" on="1"/>
        <pt x="793" y="74" on="1"/>
        <pt x="766" y="72" on="1"/>
        <pt x="742" y="72" on="0"/>
        <pt x="733" y="75" on="0"/>
        <pt x="733" y="85" on="1"/>
        <pt x="734" y="100" on="0"/>
        <pt x="782" y="182" on="0"/>
        <pt x="802" y="205" on="1"/>
        <pt x="814" y="219" on="0"/>
        <pt x="817" y="225" on="1"/>
        <pt x="822" y="230" on="1"/>
        <pt x="511" y="230" on="1"/>
        <pt x="457" y="148" on="1"/>
        <pt x="445" y="130" on="0"/>
        <pt x="415" y="85" on="0"/>
        <pt x="400" y="64" on="0"/>
        <pt x="399" y="63" on="1"/>
        <pt x="394" y="60" on="0"/>
        <pt x="389" y="60" on="1"/>
        <pt x="381" y="60" on="0"/>
        <pt x="368" y="72" on="0"/>
        <pt x="368" y="81" on="1"/>
        <pt x="368" y="88" on="0"/>
        <pt x="415" y="159" on="1"/>
        <pt x="462" y="230" on="1"/>
        <pt x="264" y="230" on="1"/>
        <pt x="66" y="232" on="1"/>
        <pt x="54" y="240" on="0"/>
      </contour>
    </TTGlyph>
    <TTGlyph name="uni219E" xMin="56" yMin="83" xMax="944" yMax="417">
      <contour>
        <pt x="56" y="250" on="1"/>
        <pt x="158" y="310" on="0"/>
        <pt x="199" y="417" on="1"/>
        <pt x="221" y="417" on="1"/>
        <pt x="244" y="417" on="0"/>
        <pt x="244" y="416" on="1"/>
        <pt x="244" y="414" on="0"/>
        <pt x="228" y="379" on="1"/>
        <pt x="201" y="326" on="0"/>
        <pt x="158" y="278" on="1"/>
        <pt x="151" y="270" on="1"/>
        <pt x="276" y="270" on="1"/>
        <pt x="285" y="277" on="1"/>
        <pt x="361" y="336" on="0"/>
        <pt x="388" y="417" on="1"/>
        <pt x="434" y="417" on="1"/>
        <pt x="434" y="410" on="0"/>
        <pt x="415" y="375" on="1"/>
        <pt x="388" y="322" on="0"/>
        <pt x="349" y="279" on="1"/>
        <pt x="340" y="270" on="1"/>
        <pt x="634" y="270" on="1"/>
        <pt x="933" y="270" on="0"/>
        <pt x="937" y="266" on="1"/>
        <pt x="938" y="265" on="1"/>
        <pt x="944" y="259" on="0"/>
        <pt x="944" y="241" on="0"/>
        <pt x="938" y="235" on="1"/>
        <pt x="937" y="234" on="1"/>
        <pt x="933" y="230" on="0"/>
        <pt x="634" y="230" on="1"/>
        <pt x="340" y="230" on="1"/>
        <pt x="349" y="221" on="1"/>
        <pt x="388" y="178" on="0"/>
        <pt x="415" y="125" on="1"/>
        <pt x="434" y="90" on="0"/>
        <pt x="434" y="83" on="1"/>
        <pt x="388" y="83" on="1"/>
        <pt x="361" y="164" on="0"/>
        <pt x="285" y="223" on="1"/>
        <pt x="276" y="230" on="1"/>
        <pt x="151" y="230" on="1"/>
        <pt x="158" y="222" on="1"/>
        <pt x="201" y="174" on="0"/>
        <pt x="228" y="121" on="1"/>
        <pt x="244" y="86" on="0"/>
        <pt x="244" y="84" on="1"/>
        <pt x="244" y="83" on="0"/>
        <pt x="221" y="83" on="1"/>
        <pt x="199" y="83" on="1"/>
        <pt x="158" y="190" on="0"/>
      </contour>
    </TTGlyph>
    <TTGlyph name="uni21A0" xMin="55" yMin="83" xMax="943" yMax="417">
      <contour>
        <pt x="943" y="250" on="1"/>
        <pt x="837" y="187" on="0"/>
        <pt x="801" y="83" on="1"/>
        <pt x="778" y="83" on="1"/>
        <pt x="755" y="83" on="0"/>
        <pt x="755" y="84" on="1"/>
        <pt x="755" y="86" on="0"/>
        <pt x="771" y="121" on="1"/>
        <pt x="798" y="174" on="0"/>
        <pt x="841" y="222" on="1"/>
        <pt x="848" y="230" on="1"/>
        <pt x="723" y="230" on="1"/>
        <pt x="714" y="223" on="1"/>
        <pt x="638" y="164" on="0"/>
        <pt x="611" y="83" on="1"/>
        <pt x="565" y="83" on="1"/>
        <pt x="565" y="90" on="0"/>
        <pt x="584" y="125" on="1"/>
        <pt x="611" y="178" on="0"/>
        <pt x="650" y="221" on="1"/>
        <pt x="659" y="230" on="1"/>
        <pt x="365" y="230" on="1"/>
        <pt x="66" y="230" on="0"/>
        <pt x="62" y="234" on="1"/>
        <pt x="61" y="235" on="1"/>
        <pt x="55" y="241" on="0"/>
        <pt x="55" y="259" on="0"/>
        <pt x="61" y="265" on="1"/>
        <pt x="62" y="266" on="1"/>
        <pt x="66" y="270" on="0"/>
        <pt x="365" y="270" on="1"/>
        <pt x="659" y="270" on="1"/>
        <pt x="650" y="279" on="1"/>
        <pt x="611" y="322" on="0"/>
        <pt x="584" y="375" on="1"/>
        <pt x="565" y="410" on="0"/>
        <pt x="565" y="417" on="1"/>
        <pt x="611" y="417" on="1"/>
        <pt x="638" y="336" on="0"/>
        <pt x="714" y="277" on="1"/>
        <pt x="723" y="270" on="1"/>
        <pt x="848" y="270" on="1"/>
        <pt x="841" y="278" on="1"/>
        <pt x="798" y="326" on="0"/>
        <pt x="771" y="379" on="1"/>
        <pt x="755" y="414" on="0"/>
        <pt x="755" y="416" on="1"/>
        <pt x="755" y="417" on="0"/>
        <pt x="778" y="417" on="1"/>
        <pt x="801" y="417" on="1"/>
        <pt x="837" y="313" on="0"/>
      </contour>
    </TTGlyph>
    <TTGlyph name="uni21A2" xMin="56" yMin="83" xMax="1031" yMax="417">
      <contour>
        <pt x="56" y="250" on="1"/>
        <pt x="158" y="310" on="0"/>
        <pt x="199" y="417" on="1"/>
        <pt x="221" y="417" on="1"/>
        <pt x="244" y="417" on="0"/>
        <pt x="244" y="416" on="1"/>
        <pt x="244" y="414" on="0"/>
        <pt x="228" y="379" on="1"/>
        <pt x="201" y="326" on="0"/>
        <pt x="158" y="278" on="1"/>
        <pt x="151" y="270" on="1"/>
        <pt x="873" y="270" on="1"/>
        <pt x="882" y="277" on="1"/>
        <pt x="958" y="336" on="0"/>
        <pt x="985" y="417" on="1"/>
        <pt x="1031" y="417" on="1"/>
        <pt x="1031" y="410" on="0"/>
        <pt x="1012" y="375" on="1"/>
        <pt x="985" y="322" on="0"/>
        <pt x="946" y="279" on="1"/>
        <pt x="937" y="270" on="1"/>
        <pt x="937" y="230" on="1"/>
        <pt x="946" y="221" on="1"/>
        <pt x="985" y="178" on="0"/>
        <pt x="1012" y="125" on="1"/>
        <pt x="1031" y="90" on="0"/>
        <pt x="1031" y="83" on="1"/>
        <pt x="985" y="83" on="1"/>
        <pt x="958" y="164" on="0"/>
        <pt x="882" y="223" on="1"/>
        <pt x="873" y="230" on="1"/>
        <pt x="151" y="230" on="1"/>
        <pt x="158" y="222" on="1"/>
        <pt x="201" y="174" on="0"/>
        <pt x="228" y="121" on="1"/>
        <pt x="244" y="86" on="0"/>
        <pt x="244" y="84" on="1"/>
        <pt x="244" y="83" on="0"/>
        <pt x="221" y="83" on="1"/>
        <pt x="199" y="83" on="1"/>
        <pt x="158" y="190" on="0"/>
      </contour>
    </TTGlyph>
</ttFont>
